<?xml version="1.0" encoding="UTF-8"?>
<!DOCTYPE svg PUBLIC "-//W3C//DTD SVG 1.1//EN" "http://www.w3.org/Graphics/SVG/1.1/DTD/svg11.dtd">
<svg xmlns="http://www.w3.org/2000/svg" version="1.1" width="1002px" height="312px" style="shape-rendering:geometricPrecision; text-rendering:geometricPrecision; image-rendering:optimizeQuality; fill-rule:evenodd; clip-rule:evenodd" xmlns:xlink="http://www.w3.org/1999/xlink">
<g><path style="opacity:1" fill="#1cc8dd" d="M 68.5,-0.5 C 356.5,-0.5 644.5,-0.5 932.5,-0.5C 933.919,0.451145 935.585,0.784479 937.5,0.5C 936.833,1.16667 936.167,1.83333 935.5,2.5C 933.367,9.36693 931.7,16.3669 930.5,23.5C 927.313,30.5605 924.646,37.8938 922.5,45.5C 920.992,47.1815 919.992,49.1815 919.5,51.5C 917.412,53.3356 916.079,55.6689 915.5,58.5C 913.453,60.5496 911.786,62.883 910.5,65.5C 907.036,68.4625 903.703,71.6291 900.5,75C 896.767,77.5228 893.101,80.0228 889.5,82.5C 887.321,83.0592 885.154,83.7259 883,84.5C 882.235,84.4301 881.735,84.0967 881.5,83.5C 892.578,78.6172 901.245,70.9505 907.5,60.5C 898.905,70.7637 888.572,78.7637 876.5,84.5C 872.863,85.4968 869.196,85.9968 865.5,86C 884.036,79.8236 898.203,68.3236 908,51.5C 916.588,36.015 922.588,19.6817 926,2.5C 921.359,19.1231 915.026,35.1231 907,50.5C 896.985,67.5983 882.485,79.0983 863.5,85C 842.393,89.0726 821.393,93.5726 800.5,98.5C 799.508,98.3284 798.842,98.6618 798.5,99.5C 759.786,108.687 725.786,126.52 696.5,153C 685.398,164.058 676.398,176.558 669.5,190.5C 663.142,201.236 659.142,212.903 657.5,225.5C 656.539,227.265 656.205,229.265 656.5,231.5C 654.752,261.94 664.418,287.94 685.5,309.5C 479.667,310.5 273.667,310.833 67.5,310.5C 37.9518,305.963 17.1184,289.963 5,262.5C 2.6729,256.172 0.839566,249.838 -0.5,243.5C -0.5,184.833 -0.5,126.167 -0.5,67.5C 7.95107,30.0488 30.9511,7.38213 68.5,-0.5 Z"/></g>
<g><path style="opacity:0.996" fill="#38ccdf" d="M 937.5,0.5 C 940.115,1.29063 942.782,1.9573 945.5,2.5C 942.084,19.5618 937.584,36.2285 932,52.5C 938.85,36.7675 943.683,20.4342 946.5,3.5C 947.959,3.43255 949.292,3.76589 950.5,4.5C 947.819,17.2255 944.819,29.8922 941.5,42.5C 946.06,30.2657 949.393,17.5991 951.5,4.5C 952.71,4.93205 953.71,5.59872 954.5,6.5C 952.448,20.7074 949.448,34.7074 945.5,48.5C 942.598,58.3035 938.098,67.3035 932,75.5C 929.499,78.8483 926.332,81.1816 922.5,82.5C 918.849,83.6589 915.515,85.3256 912.5,87.5C 907.928,88.3876 903.595,89.7209 899.5,91.5C 894.383,93.537 889.05,95.2036 883.5,96.5C 886.202,95.299 888.202,93.9657 889.5,92.5C 895.107,90.8406 900.773,89.0073 906.5,87C 903.206,87.365 899.873,87.865 896.5,88.5C 895.833,88.5 895.5,88.1667 895.5,87.5C 900.043,86.2306 904.376,84.3972 908.5,82C 909.696,81.3457 909.696,80.8457 908.5,80.5C 901.649,84.5607 894.316,87.2273 886.5,88.5C 886.5,88.1667 886.5,87.8333 886.5,87.5C 899.295,84.3532 909.295,77.3532 916.5,66.5C 907.52,76.911 896.353,83.911 883,87.5C 882.333,86.8333 881.667,86.1667 881,85.5C 875.266,87.3802 869.433,88.8802 863.5,90C 864.833,90.3333 866.167,90.6667 867.5,91C 865.942,91.21 864.609,91.71 863.5,92.5C 863.5,93.1667 863.167,93.5 862.5,93.5C 862.083,92.8761 861.416,92.5427 860.5,92.5C 855.909,93.3913 851.575,94.7247 847.5,96.5C 844.848,96.4095 842.515,97.0762 840.5,98.5C 839.833,98.5 839.167,98.5 838.5,98.5C 838.158,97.6618 837.492,97.3284 836.5,97.5C 844.897,94.7811 853.563,92.6145 862.5,91C 861.167,90.6667 859.833,90.3333 858.5,90C 864.842,88.8446 870.842,87.0112 876.5,84.5C 878.216,84.3713 879.883,84.038 881.5,83.5C 881.735,84.0967 882.235,84.4301 883,84.5C 885.154,83.7259 887.321,83.0592 889.5,82.5C 898.57,79.4336 905.57,73.767 910.5,65.5C 911.786,62.883 913.453,60.5496 915.5,58.5C 917.588,56.6644 918.921,54.3311 919.5,51.5C 919.992,49.1815 920.992,47.1815 922.5,45.5C 926.537,38.7288 929.203,31.3955 930.5,23.5C 933.934,16.7722 935.6,9.77217 935.5,2.5C 936.167,1.83333 936.833,1.16667 937.5,0.5 Z"/></g>
<g><path style="opacity:1" fill="#95e5ef" d="M 935.5,2.5 C 935.6,9.77217 933.934,16.7722 930.5,23.5C 931.7,16.3669 933.367,9.36693 935.5,2.5 Z"/></g>
<g><path style="opacity:1" fill="#98e5ef" d="M 945.5,2.5 C 946.167,2.5 946.5,2.83333 946.5,3.5C 943.683,20.4342 938.85,36.7675 932,52.5C 937.584,36.2285 942.084,19.5618 945.5,2.5 Z"/></g>
<g><path style="opacity:0.999" fill="#1cc8dd" d="M 965.5,12.5 C 985.277,25.715 997.277,44.0483 1001.5,67.5C 1001.5,126.167 1001.5,184.833 1001.5,243.5C 995.615,272.395 979.282,293.229 952.5,306C 946.411,308.606 940.078,310.106 933.5,310.5C 903.165,310.667 872.832,310.5 842.5,310C 841.837,308.482 840.837,307.315 839.5,306.5C 839.293,303.759 838.293,301.426 836.5,299.5C 836.02,296.557 835.02,293.89 833.5,291.5C 827.928,270.552 825.595,249.219 826.5,227.5C 827.461,225.735 827.795,223.735 827.5,221.5C 829.044,205.444 832.378,189.777 837.5,174.5C 838.895,171.858 840.395,169.191 842,166.5C 842.49,165.207 842.657,163.873 842.5,162.5C 844.008,160.819 845.008,158.819 845.5,156.5C 850.574,148.024 855.907,139.691 861.5,131.5C 864.573,129.431 866.906,126.764 868.5,123.5C 869.833,123.5 870.5,122.833 870.5,121.5C 874.436,119.234 877.769,116.234 880.5,112.5C 885.114,109.883 889.447,106.883 893.5,103.5C 899.151,101.341 904.484,98.6745 909.5,95.5C 911.553,95.5979 913.22,94.9313 914.5,93.5C 919.534,92.6018 924.201,90.9351 928.5,88.5C 933.886,87.1186 938.553,84.4519 942.5,80.5C 943.925,79.078 944.925,77.4113 945.5,75.5C 948.502,72.8388 950.502,69.5055 951.5,65.5C 954.15,61.5512 955.817,57.2179 956.5,52.5C 961.047,39.6328 964.047,26.2995 965.5,12.5 Z"/></g>
<g><path style="opacity:1" fill="#a2e8f1" d="M 930.5,2.5 C 929.299,12.9866 926.465,23.3199 922,33.5C 924.665,23.1791 927.498,12.8457 930.5,2.5 Z"/></g>
<g><path style="opacity:1" fill="#92e4ee" d="M 950.5,4.5 C 950.833,4.5 951.167,4.5 951.5,4.5C 949.393,17.5991 946.06,30.2657 941.5,42.5C 944.819,29.8922 947.819,17.2255 950.5,4.5 Z"/></g>
<g><path style="opacity:1" fill="#97e5ef" d="M 931.5,37.5 C 934.509,25.7974 937.676,14.1307 941,2.5C 939.296,13.9849 936.63,25.3182 933,36.5C 932.617,37.056 932.117,37.3893 931.5,37.5 Z"/></g>
<g><path style="opacity:1" fill="#91e4ee" d="M 954.5,6.5 C 955.492,6.32842 956.158,6.66175 956.5,7.5C 954.215,21.6177 950.548,35.2844 945.5,48.5C 949.448,34.7074 952.448,20.7074 954.5,6.5 Z"/></g>
<g><path style="opacity:1" fill="#9ee7f0" d="M 930.5,23.5 C 929.203,31.3955 926.537,38.7288 922.5,45.5C 924.646,37.8938 927.313,30.5605 930.5,23.5 Z"/></g>
<g><path style="opacity:1" fill="#8be2ed" d="M 959.5,10.5 C 960.147,11.2739 960.48,12.2739 960.5,13.5C 958.214,27.6675 954.547,41.3342 949.5,54.5C 953.726,40.0385 957.059,25.3718 959.5,10.5 Z"/></g>
<g><path style="opacity:1" fill="#8ce2ed" d="M 964.5,11.5 C 965.167,11.5 965.5,11.8333 965.5,12.5C 964.047,26.2995 961.047,39.6328 956.5,52.5C 959.678,38.9418 962.345,25.2751 964.5,11.5 Z"/></g>
<g><path style="opacity:1" fill="#9de7f0" d="M 931.5,37.5 C 931.267,40.5418 930.267,43.2084 928.5,45.5C 928.733,42.4582 929.733,39.7916 931.5,37.5 Z"/></g>
<g><path style="opacity:1" fill="#fbfefe" d="M 149.5,40.5 C 151.463,47.4238 152.13,54.7572 151.5,62.5C 152.675,62.281 153.675,62.6143 154.5,63.5C 152.994,64.7472 151.494,64.7472 150,63.5C 149.5,55.8406 149.334,48.1739 149.5,40.5 Z"/></g>
<g><path style="opacity:1" fill="#f1fbfd" d="M 54.5,42.5 C 56.3904,42.2965 57.8904,42.9632 59,44.5C 62,49.1667 65,53.8333 68,58.5C 68.4994,53.1771 68.666,47.8437 68.5,42.5C 69.5,42.5 70.5,42.5 71.5,42.5C 71.5,49.8333 71.5,57.1667 71.5,64.5C 70.1779,64.67 69.0113,64.3366 68,63.5C 64.5825,57.6631 60.9158,51.9964 57,46.5C 56.8303,52.5275 56.3303,58.5275 55.5,64.5C 54.5027,57.1968 54.1694,49.8635 54.5,42.5 Z"/></g>
<g><path style="opacity:1" fill="#f2fbfd" d="M 133.5,42.5 C 135.144,42.2865 136.644,42.6198 138,43.5C 140.167,50 142.333,56.5 144.5,63C 144.167,63.5 143.833,64 143.5,64.5C 142.218,62.8208 141.218,60.9874 140.5,59C 137.118,58.1764 133.784,58.343 130.5,59.5C 129.752,61.3325 128.752,62.9991 127.5,64.5C 127.167,64 126.833,63.5 126.5,63C 128.742,56.106 131.076,49.2727 133.5,42.5 Z"/></g>
<g><path style="opacity:1" fill="#98e6ef" d="M 941.5,42.5 C 941.267,45.5418 940.267,48.2084 938.5,50.5C 938.733,47.4582 939.733,44.7916 941.5,42.5 Z"/></g>
<g><path style="opacity:1" fill="#a1e8f0" d="M 911.5,54.5 C 913.715,49.0679 916.215,43.7345 919,38.5C 917.862,44.4443 915.362,49.7776 911.5,54.5 Z"/></g>
<g><path style="opacity:1" fill="#f1fbfc" d="M 80.5,47.5 C 88.0019,46.0617 91.6686,49.0617 91.5,56.5C 87.5,56.5 83.5,56.5 79.5,56.5C 79.504,61.9885 82.1707,63.8219 87.5,62C 90.8591,60.3755 91.1924,61.0421 88.5,64C 79.3862,65.553 75.5529,61.7197 77,52.5C 77.9973,50.6769 79.1639,49.0103 80.5,47.5 Z"/></g>
<g><path style="opacity:1" fill="#42cee1" d="M 134.5,45.5 C 135.497,45.4701 136.164,45.9701 136.5,47C 137.401,49.8711 138.401,52.7044 139.5,55.5C 136.833,56.8333 134.167,56.8333 131.5,55.5C 132.909,52.2732 133.909,48.9399 134.5,45.5 Z"/></g>
<g><path style="opacity:1" fill="#f2fbfd" d="M 158.5,40.5 C 160.25,43.3554 161.083,46.6887 161,50.5C 165.352,46.3354 169.352,46.6687 173,51.5C 174.369,56.4801 173.203,60.6468 169.5,64C 166.412,64.8467 163.579,64.3467 161,62.5C 160.692,63.3081 160.192,63.9747 159.5,64.5C 158.502,56.5277 158.169,48.5277 158.5,40.5 Z"/></g>
<g><path style="opacity:1" fill="#effbfc" d="M 94.5,47.5 C 95.5862,47.62 96.2528,48.2867 96.5,49.5C 97.6667,53.5 98.8333,57.5 100,61.5C 101,57.5 102,53.5 103,49.5C 104.333,46.8333 105.667,46.8333 107,49.5C 108.034,53.654 109.368,57.654 111,61.5C 111.655,56.7018 112.822,52.0351 114.5,47.5C 114.833,48.5 115.167,49.5 115.5,50.5C 114.181,55.1067 113.181,59.7733 112.5,64.5C 111.167,64.5 109.833,64.5 108.5,64.5C 106.167,47.1667 103.833,47.1667 101.5,64.5C 100.167,64.5 98.8333,64.5 97.5,64.5C 96.6597,58.8054 95.6597,53.1387 94.5,47.5 Z"/></g>
<g><path style="opacity:1" fill="#fbfefe" d="M 178.5,47.5 C 180.275,51.3864 181.108,55.7197 181,60.5C 183.951,63.181 186.618,62.8477 189,59.5C 189.173,55.4592 189.673,51.4592 190.5,47.5C 191.833,53.1667 191.833,58.8333 190.5,64.5C 189.808,63.9747 189.308,63.3081 189,62.5C 185.595,65.0768 182.262,65.0768 179,62.5C 178.501,57.5111 178.334,52.5111 178.5,47.5 Z"/></g>
<g><path style="opacity:1" fill="#f2fbfd" d="M 197.5,47.5 C 199.124,47.3601 200.29,48.0267 201,49.5C 204.472,46.582 207.472,46.9154 210,50.5C 213.048,46.9905 216.381,46.6572 220,49.5C 220.829,54.533 220.662,59.533 219.5,64.5C 218.672,59.8685 218.172,55.2018 218,50.5C 214.914,48.78 212.581,49.4466 211,52.5C 209.859,68.1727 208.859,67.8393 208,51.5C 205.667,48.8333 203.333,48.8333 201,51.5C 200.501,55.8206 200.334,60.1539 200.5,64.5C 199.5,64.5 198.5,64.5 197.5,64.5C 197.5,58.8333 197.5,53.1667 197.5,47.5 Z"/></g>
<g><path style="opacity:1" fill="#28c9de" d="M 81.5,49.5 C 85.8514,48.533 88.1847,50.1996 88.5,54.5C 85.5,54.5 82.5,54.5 79.5,54.5C 79.3915,52.4862 80.0582,50.8195 81.5,49.5 Z"/></g>
<g><path style="opacity:1" fill="#94e4ee" d="M 928.5,45.5 C 927.564,50.0382 925.564,54.0382 922.5,57.5C 923.992,53.1822 925.992,49.1822 928.5,45.5 Z"/></g>
<g><path style="opacity:1" fill="#2ecade" d="M 163.5,49.5 C 166.044,49.1043 168.211,49.771 170,51.5C 171.023,55.3169 170.523,58.8169 168.5,62C 161.676,62.4942 159.176,59.3276 161,52.5C 162.045,51.6266 162.878,50.6266 163.5,49.5 Z"/></g>
<g><path style="opacity:1" fill="#9ae6ef" d="M 938.5,50.5 C 938.293,53.2406 937.293,55.5739 935.5,57.5C 935.707,54.7594 936.707,52.4261 938.5,50.5 Z"/></g>
<g><path style="opacity:1" fill="#a1e8f1" d="M 919.5,51.5 C 918.921,54.3311 917.588,56.6644 915.5,58.5C 916.079,55.6689 917.412,53.3356 919.5,51.5 Z"/></g>
<g><path style="opacity:1" fill="#8fe3ed" d="M 956.5,52.5 C 955.817,57.2179 954.15,61.5512 951.5,65.5C 952.596,60.8677 954.263,56.5344 956.5,52.5 Z"/></g>
<g><path style="opacity:1" fill="#9fe7f0" d="M 911.5,54.5 C 911.155,57.1979 909.822,59.1979 907.5,60.5C 908.34,58.1475 909.674,56.1475 911.5,54.5 Z"/></g>
<g><path style="opacity:1" fill="#9ce7f0" d="M 922.5,57.5 C 921.277,61.0495 919.277,64.0495 916.5,66.5C 917.759,62.9754 919.759,59.9754 922.5,57.5 Z"/></g>
<g><path style="opacity:1" fill="#96e5ef" d="M 935.5,57.5 C 934.083,62.6788 931.417,67.0121 927.5,70.5C 929.919,65.9914 932.586,61.658 935.5,57.5 Z"/></g>
<g><path style="opacity:1" fill="#a0e7f0" d="M 907.5,60.5 C 901.245,70.9505 892.578,78.6172 881.5,83.5C 879.883,84.038 878.216,84.3713 876.5,84.5C 888.572,78.7637 898.905,70.7637 907.5,60.5 Z"/></g>
<g><path style="opacity:1" fill="#94e5ef" d="M 927.5,70.5 C 925.443,74.067 922.777,77.2337 919.5,80C 918.833,80.6667 918.167,80.6667 917.5,80C 920.703,76.6291 924.036,73.4625 927.5,70.5 Z"/></g>
<g><path style="opacity:1" fill="#94e5ee" d="M 945.5,75.5 C 944.925,77.4113 943.925,79.078 942.5,80.5C 941.913,78.3152 942.913,76.6485 945.5,75.5 Z"/></g>
<g><path style="opacity:1" fill="#91e4ee" d="M 939.5,73.5 C 937.5,77.5 934.5,80.5 930.5,82.5C 933.167,79.1667 936.167,76.1667 939.5,73.5 Z"/></g>
<g><path style="opacity:1" fill="#9ce7f0" d="M 910.5,65.5 C 905.57,73.767 898.57,79.4336 889.5,82.5C 893.101,80.0228 896.767,77.5228 900.5,75C 903.703,71.6291 907.036,68.4625 910.5,65.5 Z"/></g>
<g><path style="opacity:1" fill="#98e5ef" d="M 922.5,82.5 C 919.753,85.2067 916.42,86.8734 912.5,87.5C 915.515,85.3256 918.849,83.6589 922.5,82.5 Z"/></g>
<g><path style="opacity:1" fill="#91e4ee" d="M 930.5,82.5 C 928.422,85.0507 925.756,86.884 922.5,88C 916.289,90.3491 909.956,92.1825 903.5,93.5C 912.699,90.4309 921.699,86.7643 930.5,82.5 Z"/></g>
<g><path style="opacity:1" fill="#94e4ee" d="M 916.5,66.5 C 909.295,77.3532 899.295,84.3532 886.5,87.5C 880.41,89.1779 874.41,90.8446 868.5,92.5C 866.833,92.5 865.167,92.5 863.5,92.5C 864.609,91.71 865.942,91.21 867.5,91C 866.167,90.6667 864.833,90.3333 863.5,90C 869.433,88.8802 875.266,87.3802 881,85.5C 881.667,86.1667 882.333,86.8333 883,87.5C 896.353,83.911 907.52,76.911 916.5,66.5 Z"/></g>
<g><path style="opacity:1" fill="#95e5ef" d="M 895.5,87.5 C 891.679,89.2895 887.679,90.1228 883.5,90C 884.737,89.7679 885.737,89.2679 886.5,88.5C 894.316,87.2273 901.649,84.5607 908.5,80.5C 909.696,80.8457 909.696,81.3457 908.5,82C 904.376,84.3972 900.043,86.2306 895.5,87.5 Z"/></g>
<g><path style="opacity:1" fill="#8ce3ed" d="M 928.5,88.5 C 924.201,90.9351 919.534,92.6018 914.5,93.5C 918.799,91.0649 923.466,89.3982 928.5,88.5 Z"/></g>
<g><path style="opacity:1" fill="#9ce6f0" d="M 876.5,84.5 C 870.842,87.0112 864.842,88.8446 858.5,90C 859.833,90.3333 861.167,90.6667 862.5,91C 853.563,92.6145 844.897,94.7811 836.5,97.5C 834.833,97.5 833.167,97.5 831.5,97.5C 833.277,96.3995 835.277,95.5662 837.5,95C 831.825,94.5359 831.492,93.8693 836.5,93C 825.039,94.1952 813.706,96.3618 802.5,99.5C 801.584,99.4573 800.917,99.1239 800.5,98.5C 821.393,93.5726 842.393,89.0726 863.5,85C 882.485,79.0983 896.985,67.5983 907,50.5C 915.026,35.1231 921.359,19.1231 926,2.5C 922.588,19.6817 916.588,36.015 908,51.5C 898.203,68.3236 884.036,79.8236 865.5,86C 869.196,85.9968 872.863,85.4968 876.5,84.5 Z"/></g>
<g><path style="opacity:1" fill="#9ce7f0" d="M 912.5,87.5 C 908.597,89.8978 904.264,91.2311 899.5,91.5C 903.595,89.7209 907.928,88.3876 912.5,87.5 Z"/></g>
<g><path style="opacity:1" fill="#6ad9e7" d="M 886.5,87.5 C 886.5,87.8333 886.5,88.1667 886.5,88.5C 885.737,89.2679 884.737,89.7679 883.5,90C 887.679,90.1228 891.679,89.2895 895.5,87.5C 895.5,88.1667 895.833,88.5 896.5,88.5C 890.12,90.3452 883.786,92.3452 877.5,94.5C 873.784,96.4053 869.784,97.7387 865.5,98.5C 868.606,96.7321 871.939,95.2321 875.5,94C 874.906,93.5357 874.239,93.369 873.5,93.5C 871.95,92.2801 870.284,92.2801 868.5,93.5C 868.5,93.1667 868.5,92.8333 868.5,92.5C 874.41,90.8446 880.41,89.1779 886.5,87.5 Z"/></g>
<g><path style="opacity:1" fill="#2bcade" d="M 959.5,8.5 C 961.332,9.24848 962.999,10.2485 964.5,11.5C 962.345,25.2751 959.678,38.9418 956.5,52.5C 954.263,56.5344 952.596,60.8677 951.5,65.5C 950.502,69.5055 948.502,72.8388 945.5,75.5C 942.913,76.6485 941.913,78.3152 942.5,80.5C 938.553,84.4519 933.886,87.1186 928.5,88.5C 923.466,89.3982 918.799,91.0649 914.5,93.5C 913.22,94.9313 911.553,95.5979 909.5,95.5C 903.581,97.1263 898.247,99.7929 893.5,103.5C 889.447,106.883 885.114,109.883 880.5,112.5C 876.564,114.766 873.231,117.766 870.5,121.5C 870.5,122.833 869.833,123.5 868.5,123.5C 865.427,125.569 863.094,128.236 861.5,131.5C 855.907,139.691 850.574,148.024 845.5,156.5C 843.461,157.911 842.461,159.911 842.5,162.5C 839.763,165.983 838.097,169.983 837.5,174.5C 830.566,189.511 827.232,205.178 827.5,221.5C 827.795,223.735 827.461,225.735 826.5,227.5C 825.35,235.131 825.183,245.465 826,258.5C 826.961,266.563 828.295,274.563 830,282.5C 830.725,285.79 831.892,288.79 833.5,291.5C 835.02,293.89 836.02,296.557 836.5,299.5C 836.707,302.241 837.707,304.574 839.5,306.5C 839.539,307.583 839.873,308.583 840.5,309.5C 834.863,310.663 829.196,310.83 823.5,310C 822.267,308.333 820.933,306.833 819.5,305.5C 815.45,299.736 812.784,293.403 811.5,286.5C 809.35,276.915 807.517,267.249 806,257.5C 805.51,258.793 805.343,260.127 805.5,261.5C 804.527,259.052 804.194,256.385 804.5,253.5C 803.93,227.578 807.93,202.244 816.5,177.5C 816.707,174.759 817.707,172.426 819.5,170.5C 822.008,166.818 824.008,162.818 825.5,158.5C 829.312,150.215 834.145,142.548 840,135.5C 846.167,129.333 852.333,123.167 858.5,117C 864.048,112.397 870.048,108.563 876.5,105.5C 881.484,103.674 886.151,101.341 890.5,98.5C 895.081,97.4184 899.414,95.7518 903.5,93.5C 909.956,92.1825 916.289,90.3491 922.5,88C 925.756,86.884 928.422,85.0507 930.5,82.5C 934.5,80.5 937.5,77.5 939.5,73.5C 943.274,67.4462 946.607,61.1129 949.5,54.5C 954.547,41.3342 958.214,27.6675 960.5,13.5C 960.48,12.2739 960.147,11.2739 959.5,10.5C 959.5,9.83333 959.5,9.16667 959.5,8.5 Z"/></g>
<g><path style="opacity:1" fill="#a1e8f0" d="M 889.5,92.5 C 885.5,93.1667 881.5,93.8333 877.5,94.5C 883.786,92.3452 890.12,90.3452 896.5,88.5C 899.873,87.865 903.206,87.365 906.5,87C 900.773,89.0073 895.107,90.8406 889.5,92.5 Z"/></g>
<g><path style="opacity:1" fill="#22c8dd" d="M 956.5,7.5 C 957.609,7.55688 958.609,7.89022 959.5,8.5C 959.5,9.16667 959.5,9.83333 959.5,10.5C 957.059,25.3718 953.726,40.0385 949.5,54.5C 946.607,61.1129 943.274,67.4462 939.5,73.5C 936.167,76.1667 933.167,79.1667 930.5,82.5C 921.699,86.7643 912.699,90.4309 903.5,93.5C 898.728,94.1988 894.395,95.8655 890.5,98.5C 885.247,99.793 880.581,102.126 876.5,105.5C 870.048,108.563 864.048,112.397 858.5,117C 852.333,123.167 846.167,129.333 840,135.5C 834.145,142.548 829.312,150.215 825.5,158.5C 822.46,161.914 820.46,165.914 819.5,170.5C 817.707,172.426 816.707,174.759 816.5,177.5C 810.191,191.396 806.358,206.063 805,221.5C 804.5,232.161 804.333,242.828 804.5,253.5C 804.194,256.385 804.527,259.052 805.5,261.5C 806.246,270.25 808.246,278.584 811.5,286.5C 812.784,293.403 815.45,299.736 819.5,305.5C 819.751,307.17 820.418,308.67 821.5,310C 812.029,310.112 802.695,310.279 793.5,310.5C 790.5,310.333 787.5,310.167 784.5,310C 783.956,309.283 783.289,308.783 782.5,308.5C 780.085,309.814 777.252,310.481 774,310.5C 771.167,310.333 768.333,310.167 765.5,310C 763.548,307.926 761.715,305.759 760,303.5C 760.446,305.883 761.612,308.05 763.5,310C 757.5,310.667 751.5,310.667 745.5,310C 744.336,307.672 742.67,305.838 740.5,304.5C 741.048,306.394 742.048,308.06 743.5,309.5C 737.863,310.663 732.196,310.83 726.5,310C 725.627,308.955 724.627,308.122 723.5,307.5C 723.414,308.496 723.748,309.329 724.5,310C 719.177,310.499 713.844,310.666 708.5,310.5C 699.235,301.904 691.902,291.904 686.5,280.5C 690.177,292.016 696.511,301.85 705.5,310C 699.833,310.667 694.167,310.667 688.5,310C 674.587,297.346 665.42,281.846 661,263.5C 658.829,252.778 657.329,242.111 656.5,231.5C 656.205,229.265 656.539,227.265 657.5,225.5C 657.351,226.552 657.517,227.552 658,228.5C 660.149,215.228 663.982,202.561 669.5,190.5C 689.406,157.439 717.072,132.939 752.5,117C 768.351,110.689 783.684,104.856 798.5,99.5C 798.842,98.6618 799.508,98.3284 800.5,98.5C 800.917,99.1239 801.584,99.4573 802.5,99.5C 813.706,96.3618 825.039,94.1952 836.5,93C 831.492,93.8693 831.825,94.5359 837.5,95C 835.277,95.5662 833.277,96.3995 831.5,97.5C 833.167,97.5 834.833,97.5 836.5,97.5C 837.492,97.3284 838.158,97.6618 838.5,98.5C 835.843,98.9348 833.509,99.9348 831.5,101.5C 834.916,101.472 837.916,100.472 840.5,98.5C 843.152,98.5905 845.485,97.9238 847.5,96.5C 852.532,95.6586 857.532,94.6586 862.5,93.5C 863.167,93.5 863.5,93.1667 863.5,92.5C 865.167,92.5 866.833,92.5 868.5,92.5C 868.5,92.8333 868.5,93.1667 868.5,93.5C 861.079,94.8625 854.079,97.1958 847.5,100.5C 856.079,97.8551 864.746,95.5218 873.5,93.5C 874.239,93.369 874.906,93.5357 875.5,94C 871.939,95.2321 868.606,96.7321 865.5,98.5C 869.784,97.7387 873.784,96.4053 877.5,94.5C 881.5,93.8333 885.5,93.1667 889.5,92.5C 888.202,93.9657 886.202,95.299 883.5,96.5C 889.05,95.2036 894.383,93.537 899.5,91.5C 904.264,91.2311 908.597,89.8978 912.5,87.5C 916.42,86.8734 919.753,85.2067 922.5,82.5C 926.332,81.1816 929.499,78.8483 932,75.5C 938.098,67.3035 942.598,58.3035 945.5,48.5C 950.548,35.2844 954.215,21.6177 956.5,7.5 Z"/></g>
<g><path style="opacity:1" fill="#a3e9f1" d="M 862.5,93.5 C 857.532,94.6586 852.532,95.6586 847.5,96.5C 851.575,94.7247 855.909,93.3913 860.5,92.5C 861.416,92.5427 862.083,92.8761 862.5,93.5 Z"/></g>
<g><path style="opacity:1" fill="#92e4ee" d="M 873.5,93.5 C 864.746,95.5218 856.079,97.8551 847.5,100.5C 854.079,97.1958 861.079,94.8625 868.5,93.5C 870.284,92.2801 871.95,92.2801 873.5,93.5 Z"/></g>
<g><path style="opacity:1" fill="#86e0ec" d="M 903.5,93.5 C 899.414,95.7518 895.081,97.4184 890.5,98.5C 894.395,95.8655 898.728,94.1988 903.5,93.5 Z"/></g>
<g><path style="opacity:1" fill="#9ae6f0" d="M 847.5,96.5 C 845.485,97.9238 843.152,98.5905 840.5,98.5C 842.515,97.0762 844.848,96.4095 847.5,96.5 Z"/></g>
<g><path style="opacity:1" fill="#a5e9f1" d="M 865.5,98.5 C 862.47,100.403 859.137,101.737 855.5,102.5C 858.37,100.206 861.703,98.8723 865.5,98.5 Z"/></g>
<g><path style="opacity:1" fill="#97e5ef" d="M 883.5,96.5 C 881.208,98.2671 878.542,99.2671 875.5,99.5C 877.792,97.7329 880.458,96.7329 883.5,96.5 Z"/></g>
<g><path style="opacity:1" fill="#84e1ec" d="M 909.5,95.5 C 904.484,98.6745 899.151,101.341 893.5,103.5C 898.247,99.7929 903.581,97.1263 909.5,95.5 Z"/></g>
<g><path style="opacity:1" fill="#a4e9f1" d="M 838.5,98.5 C 839.167,98.5 839.833,98.5 840.5,98.5C 837.916,100.472 834.916,101.472 831.5,101.5C 833.509,99.9348 835.843,98.9348 838.5,98.5 Z"/></g>
<g><path style="opacity:1" fill="#95e5ef" d="M 778.5,111.5 C 795.348,103.496 813.015,97.9959 831.5,95C 813.629,99.941 795.962,105.441 778.5,111.5 Z"/></g>
<g><path style="opacity:1" fill="#86e1ec" d="M 890.5,98.5 C 886.151,101.341 881.484,103.674 876.5,105.5C 880.581,102.126 885.247,99.793 890.5,98.5 Z"/></g>
<g><path style="opacity:1" fill="#8ae1ed" d="M 847.5,100.5 C 844.858,101.895 842.191,103.395 839.5,105C 838.207,105.49 836.873,105.657 835.5,105.5C 838.983,102.763 842.983,101.097 847.5,100.5 Z"/></g>
<g><path style="opacity:1" fill="#f7fdfd" d="M 95.5,103.5 C 101.488,103.664 102.821,106.164 99.5,111C 93.4034,111.147 92.0701,108.647 95.5,103.5 Z"/></g>
<g><path style="opacity:1" fill="#9ce6f0" d="M 831.5,97.5 C 823.932,101.3 815.932,103.8 807.5,105C 815.252,101.62 823.252,99.1197 831.5,97.5 Z"/></g>
<g><path style="opacity:1" fill="#fcfefe" d="M 335.5,104.5 C 337.5,104.5 339.5,104.5 341.5,104.5C 341.5,116.833 341.5,129.167 341.5,141.5C 339.5,141.5 337.5,141.5 335.5,141.5C 335.633,136.728 334.3,136.562 331.5,141C 320.731,143.068 315.731,138.568 316.5,127.5C 316.526,117.305 321.526,113.138 331.5,115C 332.931,115.465 334.097,116.299 335,117.5C 335.499,113.179 335.666,108.846 335.5,104.5 Z"/></g>
<g><path style="opacity:1" fill="#c4f0f6" d="M 335.5,104.5 C 337.607,103.532 339.941,103.198 342.5,103.5C 342.829,116.344 342.495,129.011 341.5,141.5C 341.5,129.167 341.5,116.833 341.5,104.5C 339.5,104.5 337.5,104.5 335.5,104.5 Z"/></g>
<g><path style="opacity:1" fill="#9fe8f0" d="M 855.5,102.5 C 848.665,106.418 841.665,110.085 834.5,113.5C 840.746,108.542 847.746,104.876 855.5,102.5 Z"/></g>
<g><path style="opacity:1" fill="#93e4ee" d="M 875.5,99.5 C 869.84,103.164 863.84,105.998 857.5,108C 863.139,104.346 869.139,101.513 875.5,99.5 Z"/></g>
<g><path style="opacity:1" fill="#f9fdfe" d="M 369.5,105.5 C 378.708,103.887 382.875,107.554 382,116.5C 380.581,119.296 378.415,121.296 375.5,122.5C 377.427,125.35 379.594,128.017 382,130.5C 383.202,128.323 383.702,125.989 383.5,123.5C 385.167,123.5 386.833,123.5 388.5,123.5C 388.313,127.913 387.646,132.246 386.5,136.5C 387.833,136.5 389.167,136.5 390.5,136.5C 390.5,138.167 390.5,139.833 390.5,141.5C 387.276,141.797 384.276,141.13 381.5,139.5C 376.689,141.485 371.689,141.985 366.5,141C 361.111,138.495 358.944,134.328 360,128.5C 361.323,125.104 363.489,122.437 366.5,120.5C 361.963,114.322 362.963,109.322 369.5,105.5 Z"/></g>
<g><path style="opacity:1" fill="#fcfefe" d="M 55.5,105.5 C 57.8333,105.5 60.1667,105.5 62.5,105.5C 62.5,110.167 62.5,114.833 62.5,119.5C 67.8333,119.5 73.1667,119.5 78.5,119.5C 78.5,114.833 78.5,110.167 78.5,105.5C 80.8333,105.5 83.1667,105.5 85.5,105.5C 85.5,117.5 85.5,129.5 85.5,141.5C 83.1667,141.5 80.8333,141.5 78.5,141.5C 78.5,136.167 78.5,130.833 78.5,125.5C 73.1667,125.5 67.8333,125.5 62.5,125.5C 62.5,130.833 62.5,136.167 62.5,141.5C 60.1667,141.5 57.8333,141.5 55.5,141.5C 55.5,129.5 55.5,117.5 55.5,105.5 Z"/></g>
<g><path style="opacity:1" fill="#fcfefe" d="M 169.5,106.5 C 172.5,106.5 175.5,106.5 178.5,106.5C 178.5,118.167 178.5,129.833 178.5,141.5C 176.5,141.5 174.5,141.5 172.5,141.5C 172.666,133.493 172.5,125.493 172,117.5C 168.94,124.68 166.273,132.014 164,139.5C 161.667,142.167 159.333,142.167 157,139.5C 154.333,132.167 151.667,124.833 149,117.5C 148.5,125.493 148.334,133.493 148.5,141.5C 146.5,141.5 144.5,141.5 142.5,141.5C 142.5,129.5 142.5,117.5 142.5,105.5C 145.572,105.183 148.572,105.516 151.5,106.5C 154.305,114.915 157.305,123.248 160.5,131.5C 164.095,123.381 167.095,115.048 169.5,106.5 Z"/></g>
<g><path style="opacity:1" fill="#9de7f0" d="M 169.5,106.5 C 172.625,105.521 175.958,105.187 179.5,105.5C 179.828,117.678 179.495,129.678 178.5,141.5C 178.5,129.833 178.5,118.167 178.5,106.5C 175.5,106.5 172.5,106.5 169.5,106.5 Z"/></g>
<g><path style="opacity:1" fill="#fcfefe" d="M 229.5,105.5 C 231.833,105.5 234.167,105.5 236.5,105.5C 236.5,110.167 236.5,114.833 236.5,119.5C 241.833,119.5 247.167,119.5 252.5,119.5C 252.5,114.833 252.5,110.167 252.5,105.5C 254.833,105.5 257.167,105.5 259.5,105.5C 259.5,117.5 259.5,129.5 259.5,141.5C 257.167,141.5 254.833,141.5 252.5,141.5C 252.5,136.167 252.5,130.833 252.5,125.5C 247.167,125.5 241.833,125.5 236.5,125.5C 236.5,130.833 236.5,136.167 236.5,141.5C 234.167,141.5 231.833,141.5 229.5,141.5C 229.5,129.5 229.5,117.5 229.5,105.5 Z"/></g>
<g><path style="opacity:1" fill="#97e5ef" d="M 835.5,105.5 C 831.171,108.499 826.504,110.666 821.5,112C 825.808,109.012 830.475,106.845 835.5,105.5 Z"/></g>
<g><path style="opacity:1" fill="#fafdfe" d="M 123.5,114.5 C 123.5,116.167 123.5,117.833 123.5,119.5C 120.941,119.198 118.607,119.532 116.5,120.5C 116.334,125.179 116.501,129.845 117,134.5C 118.857,136.631 121.023,137.131 123.5,136C 124.833,137.667 124.833,139.333 123.5,141C 120.167,141.667 116.833,141.667 113.5,141C 111.513,139.681 110.346,137.848 110,135.5C 109.501,130.177 109.334,124.844 109.5,119.5C 108.167,119.5 106.833,119.5 105.5,119.5C 105.5,117.833 105.5,116.167 105.5,114.5C 106.833,114.5 108.167,114.5 109.5,114.5C 109.125,109.505 111.458,107.505 116.5,108.5C 116.5,110.5 116.5,112.5 116.5,114.5C 118.833,114.5 121.167,114.5 123.5,114.5 Z"/></g>
<g><path style="opacity:1" fill="#9de7f0" d="M 795.5,110.5 C 797.425,108.538 799.758,107.705 802.5,108C 800.35,109.411 798.016,110.245 795.5,110.5 Z"/></g>
<g><path style="opacity:1" fill="#31cbdf" d="M 371.5,110.5 C 376.068,110.083 377.568,112.083 376,116.5C 372.916,119.142 371.083,118.309 370.5,114C 370.648,112.744 370.982,111.577 371.5,110.5 Z"/></g>
<g><path style="opacity:1" fill="#a4e9f1" d="M 798.5,99.5 C 783.684,104.856 768.351,110.689 752.5,117C 717.072,132.939 689.406,157.439 669.5,190.5C 676.398,176.558 685.398,164.058 696.5,153C 725.786,126.52 759.786,108.687 798.5,99.5 Z"/></g>
<g><path style="opacity:1" fill="#a4e8f1" d="M 831.5,101.5 C 817.507,107.498 803.84,113.998 790.5,121C 803.137,112.349 816.803,105.849 831.5,101.5 Z"/></g>
<g><path style="opacity:1" fill="#fefefe" d="M 94.5,114.5 C 96.5,114.5 98.5,114.5 100.5,114.5C 100.5,123.5 100.5,132.5 100.5,141.5C 98.5,141.5 96.5,141.5 94.5,141.5C 94.5,132.5 94.5,123.5 94.5,114.5 Z"/></g>
<g><path style="opacity:1" fill="#fbfefe" d="M 193.5,114.5 C 205.832,112.173 211.499,117.173 210.5,129.5C 204.833,129.5 199.167,129.5 193.5,129.5C 193.81,135.303 196.81,137.47 202.5,136C 205.259,132.84 207.926,132.84 210.5,136C 208.221,140.473 204.554,142.306 199.5,141.5C 192.681,142.181 188.515,139.181 187,132.5C 185.003,124.854 187.17,118.854 193.5,114.5 Z"/></g>
<g><path style="opacity:1" fill="#f9fdfe" d="M 272.5,114.5 C 276.182,114.335 279.848,114.501 283.5,115C 284.931,115.465 286.097,116.299 287,117.5C 288.245,123.39 288.912,129.39 289,135.5C 291.016,136.955 291.849,138.955 291.5,141.5C 287.92,142.077 284.92,141.077 282.5,138.5C 277.95,142.096 273.117,142.43 268,139.5C 265.413,134.587 266.247,130.42 270.5,127C 274.104,125.846 277.771,125.013 281.5,124.5C 281.532,119.787 279.199,118.287 274.5,120C 272.35,122.704 270.184,122.871 268,120.5C 267.251,119.365 267.417,118.365 268.5,117.5C 269.901,116.479 271.235,115.479 272.5,114.5 Z"/></g>
<g><path style="opacity:1" fill="#f8fdfe" d="M 296.5,114.5 C 298.833,114.5 301.167,114.5 303.5,114.5C 303.443,118.133 304.443,118.3 306.5,115C 308.81,114.503 311.143,114.337 313.5,114.5C 313.167,116.5 312.833,118.5 312.5,120.5C 309.03,119.875 306.196,120.875 304,123.5C 303.501,129.491 303.334,135.491 303.5,141.5C 301.167,141.5 298.833,141.5 296.5,141.5C 296.5,132.5 296.5,123.5 296.5,114.5 Z"/></g>
<g><path style="opacity:1" fill="#99e6ef" d="M 778.5,111.5 C 772.151,115.341 765.484,118.675 758.5,121.5C 764.581,117.126 771.248,113.793 778.5,111.5 Z"/></g>
<g><path style="opacity:1" fill="#8ee3ed" d="M 880.5,112.5 C 877.769,116.234 874.436,119.234 870.5,121.5C 873.231,117.766 876.564,114.766 880.5,112.5 Z"/></g>
<g><path style="opacity:1" fill="#9ee7f0" d="M 795.5,110.5 C 790.484,113.674 785.151,116.341 779.5,118.5C 784.247,114.793 789.581,112.126 795.5,110.5 Z"/></g>
<g><path style="opacity:1" fill="#a1e8f0" d="M 834.5,113.5 C 832.044,116.387 829.044,118.221 825.5,119C 828.139,116.517 831.139,114.684 834.5,113.5 Z"/></g>
<g><path style="opacity:1" fill="#97e5ef" d="M 812.5,116.5 C 814.379,116.393 814.712,116.893 813.5,118C 804.694,122.599 804.36,122.099 812.5,116.5 Z"/></g>
<g><path style="opacity:1" fill="#8de3ed" d="M 123.5,114.5 C 124.461,116.265 124.795,118.265 124.5,120.5C 121.833,120.5 119.167,120.5 116.5,120.5C 118.607,119.532 120.941,119.198 123.5,119.5C 123.5,117.833 123.5,116.167 123.5,114.5 Z"/></g>
<g><path style="opacity:1" fill="#3fcee0" d="M 196.5,119.5 C 201.836,118.185 204.503,120.185 204.5,125.5C 200.833,125.5 197.167,125.5 193.5,125.5C 193.461,122.911 194.461,120.911 196.5,119.5 Z"/></g>
<g><path style="opacity:1" fill="#32cbde" d="M 326.5,119.5 C 334.086,119.94 336.919,123.94 335,131.5C 333.713,135.729 330.88,137.229 326.5,136C 325.667,135.167 324.833,134.333 324,133.5C 322.718,128.295 323.551,123.628 326.5,119.5 Z"/></g>
<g><path style="opacity:1" fill="#96e4ee" d="M 758.5,121.5 C 756.74,123.559 754.406,124.892 751.5,125.5C 753.336,123.412 755.669,122.079 758.5,121.5 Z"/></g>
<g><path style="opacity:1" fill="#9ee7f0" d="M 779.5,118.5 C 775.7,122.062 771.366,124.562 766.5,126C 770.48,122.845 774.814,120.345 779.5,118.5 Z"/></g>
<g><path style="opacity:1" fill="#80e0eb" d="M 827.5,131.5 C 830.186,127.627 833.519,124.794 837.5,123C 834.568,126.442 831.235,129.275 827.5,131.5 Z"/></g>
<g><path style="opacity:1" fill="#44cee1" d="M 368.5,125.5 C 369.496,125.414 370.329,125.748 371,126.5C 373.045,129.423 375.212,132.257 377.5,135C 373.294,137.435 369.794,136.601 367,132.5C 366.167,129.829 366.667,127.496 368.5,125.5 Z"/></g>
<g><path style="opacity:1" fill="#9fe7f0" d="M 780.5,128.5 C 782.281,125.954 784.614,124.454 787.5,124C 785.449,126.02 783.116,127.52 780.5,128.5 Z"/></g>
<g><path style="opacity:1" fill="#9ce7f0" d="M 751.5,125.5 C 745.115,130.549 738.448,135.215 731.5,139.5C 737.332,133.673 743.998,129.006 751.5,125.5 Z"/></g>
<g><path style="opacity:1" fill="#95e5ef" d="M 868.5,123.5 C 866.906,126.764 864.573,129.431 861.5,131.5C 863.094,128.236 865.427,125.569 868.5,123.5 Z"/></g>
<g><path style="opacity:1" fill="#40cde0" d="M 279.5,128.5 C 280.5,128.5 281.5,128.5 282.5,128.5C 283.278,135.388 280.278,138.055 273.5,136.5C 273.201,134.396 273.534,132.396 274.5,130.5C 276.336,129.972 278.003,129.306 279.5,128.5 Z"/></g>
<g><path style="opacity:1" fill="#a1e8f0" d="M 756.5,133.5 C 758.281,130.954 760.614,129.454 763.5,129C 761.449,131.02 759.116,132.52 756.5,133.5 Z"/></g>
<g><path style="opacity:1" fill="#8ee3ed" d="M 804.5,137.5 C 809.224,131.254 814.891,126.42 821.5,123C 815.941,128.066 810.275,132.9 804.5,137.5 Z"/></g>
<g><path style="opacity:1" fill="#9ce6ef" d="M 756.5,133.5 C 755.089,135.914 753.089,137.581 750.5,138.5C 751.911,136.086 753.911,134.419 756.5,133.5 Z"/></g>
<g><path style="opacity:1" fill="#9ee7f0" d="M 776.5,148.5 C 780.902,142.591 785.902,137.091 791.5,132C 793.691,130.081 796.024,128.747 798.5,128C 790.996,134.672 783.662,141.505 776.5,148.5 Z"/></g>
<g><path style="opacity:1" fill="#8be2ed" d="M 827.5,131.5 C 825.57,135.1 822.903,138.1 819.5,140.5C 821.43,136.9 824.097,133.9 827.5,131.5 Z"/></g>
<g><path style="opacity:1" fill="#a0e7f0" d="M 731.5,139.5 C 729.761,142.243 727.427,144.243 724.5,145.5C 726.239,142.757 728.573,140.757 731.5,139.5 Z"/></g>
<g><path style="opacity:1" fill="#9ae6f0" d="M 804.5,137.5 C 800.902,142.274 797.069,146.94 793,151.5C 795.407,145.901 799.24,141.235 804.5,137.5 Z"/></g>
<g><path style="opacity:1" fill="#8ee3ed" d="M 819.5,140.5 C 818.92,142.749 817.587,144.415 815.5,145.5C 816.08,143.251 817.413,141.585 819.5,140.5 Z"/></g>
<g><path style="opacity:1" fill="#a2e8f1" d="M 780.5,128.5 C 768.167,138.833 756.833,150.167 746.5,162.5C 755.5,148.833 766.833,137.5 780.5,128.5 Z"/></g>
<g><path style="opacity:1" fill="#91e4ee" d="M 815.5,145.5 C 813.933,148.283 812.1,150.949 810,153.5C 810.552,150.094 812.385,147.428 815.5,145.5 Z"/></g>
<g><path style="opacity:1" fill="#a2e8f1" d="M 724.5,145.5 C 721.167,149.5 717.5,153.167 713.5,156.5C 716.167,151.833 719.833,148.167 724.5,145.5 Z"/></g>
<g><path style="opacity:1" fill="#92e4ee" d="M 776.5,148.5 C 775.627,150.886 774.127,152.886 772,154.5C 772.427,151.879 773.927,149.879 776.5,148.5 Z"/></g>
<g><path style="opacity:1" fill="#9ce7f0" d="M 750.5,138.5 C 740.066,148.595 730.399,159.261 721.5,170.5C 729.034,157.962 738.701,147.296 750.5,138.5 Z"/></g>
<g><path style="opacity:1" fill="#92e4ee" d="M 845.5,156.5 C 845.008,158.819 844.008,160.819 842.5,162.5C 842.461,159.911 843.461,157.911 845.5,156.5 Z"/></g>
<g><path style="opacity:1" fill="#98e5ef" d="M 713.5,156.5 C 711.906,159.764 709.573,162.431 706.5,164.5C 708.094,161.236 710.427,158.569 713.5,156.5 Z"/></g>
<g><path style="opacity:1" fill="#90e4ee" d="M 825.5,158.5 C 824.008,162.818 822.008,166.818 819.5,170.5C 820.46,165.914 822.46,161.914 825.5,158.5 Z"/></g>
<g><path style="opacity:1" fill="#a2e8f1" d="M 746.5,162.5 C 743.996,167.515 740.996,172.181 737.5,176.5C 739.506,171.145 742.506,166.479 746.5,162.5 Z"/></g>
<g><path style="opacity:1" fill="#8ae1ec" d="M 842.5,162.5 C 842.657,163.873 842.49,165.207 842,166.5C 840.395,169.191 838.895,171.858 837.5,174.5C 838.097,169.983 839.763,165.983 842.5,162.5 Z"/></g>
<g><path style="opacity:1" fill="#a2e8f1" d="M 706.5,164.5 C 704.984,167.533 702.984,170.2 700.5,172.5C 701.529,169.109 703.529,166.443 706.5,164.5 Z"/></g>
<g><path style="opacity:1" fill="#96e5ef" d="M 801.5,165.5 C 802.043,165.56 802.376,165.893 802.5,166.5C 801,169.5 799.5,172.5 798,175.5C 798.274,171.932 799.44,168.599 801.5,165.5 Z"/></g>
<g><path style="opacity:1" fill="#fafdfe" d="M 131.5,184.5 C 131.5,186.167 131.5,187.833 131.5,189.5C 129.167,189.5 126.833,189.5 124.5,189.5C 124.5,196.833 124.5,204.167 124.5,211.5C 122.167,211.5 119.833,211.5 117.5,211.5C 117.5,204.167 117.5,196.833 117.5,189.5C 116.167,189.5 114.833,189.5 113.5,189.5C 113.5,187.833 113.5,186.167 113.5,184.5C 114.833,184.5 116.167,184.5 117.5,184.5C 117.834,173.565 123.168,170.398 133.5,175C 132.91,176.509 132.244,178.009 131.5,179.5C 126.221,177.142 123.554,178.809 123.5,184.5C 126.167,184.5 128.833,184.5 131.5,184.5 Z"/></g>
<g><path style="opacity:1" fill="#a5e9f1" d="M 700.5,172.5 C 699.609,174.609 698.442,176.609 697,178.5C 696.851,175.804 698.018,173.804 700.5,172.5 Z"/></g>
<g><path style="opacity:1" fill="#a1e8f0" d="M 721.5,170.5 C 720.617,173.704 718.95,176.371 716.5,178.5C 717.383,175.296 719.05,172.629 721.5,170.5 Z"/></g>
<g><path style="opacity:1" fill="#f9fdfe" d="M 60.5,175.5 C 66.352,174.861 71.852,175.861 77,178.5C 77.4493,181.094 76.4493,183.094 74,184.5C 70.268,181.428 66.1013,180.761 61.5,182.5C 60.0903,184.949 60.4237,187.116 62.5,189C 66.5352,189.874 70.5352,190.874 74.5,192C 79.5629,195.87 80.7296,200.704 78,206.5C 76.8906,208.815 75.0573,210.315 72.5,211C 68.1667,211.667 63.8333,211.667 59.5,211C 56.4245,210.089 54.0911,208.256 52.5,205.5C 55.1235,200.453 58.1235,200.286 61.5,205C 65.3169,206.023 68.8169,205.523 72,203.5C 72.8249,201.299 72.3249,199.466 70.5,198C 65.6165,196.928 60.9499,195.261 56.5,193C 53.6819,189.662 52.8485,185.829 54,181.5C 55.4936,178.686 57.6603,176.686 60.5,175.5 Z"/></g>
<g><path style="opacity:1" fill="#9ce7f0" d="M 780.5,168.5 C 781.043,168.56 781.376,168.893 781.5,169.5C 779.333,173.833 777.167,178.167 775,182.5C 775.949,177.583 777.783,172.916 780.5,168.5 Z"/></g>
<g><path style="opacity:1" fill="#fcfefe" d="M 151.5,189.5 C 148.833,189.5 146.167,189.5 143.5,189.5C 143.179,194.695 143.513,199.695 144.5,204.5C 146.607,205.468 148.941,205.802 151.5,205.5C 153.218,210.286 151.385,212.286 146,211.5C 141.195,211.526 138.361,209.192 137.5,204.5C 137.5,199.5 137.5,194.5 137.5,189.5C 136.167,189.5 134.833,189.5 133.5,189.5C 133.5,187.833 133.5,186.167 133.5,184.5C 134.833,184.5 136.167,184.5 137.5,184.5C 137.5,182.5 137.5,180.5 137.5,178.5C 139.5,178.5 141.5,178.5 143.5,178.5C 143.5,180.5 143.5,182.5 143.5,184.5C 146.167,184.5 148.833,184.5 151.5,184.5C 151.5,186.167 151.5,187.833 151.5,189.5 Z"/></g>
<g><path style="opacity:1" fill="#a1e8f0" d="M 753.5,184.5 C 754.176,180.813 755.676,177.48 758,174.5C 757.335,178.166 755.835,181.5 753.5,184.5 Z"/></g>
<g><path style="opacity:1" fill="#fbfefe" d="M 91.5,184.5 C 105.436,182.603 111.603,188.603 110,202.5C 106.55,210.804 100.383,213.638 91.5,211C 89.3762,209.878 87.5429,208.378 86,206.5C 84.5076,201.589 84.1743,196.589 85,191.5C 86.6941,188.642 88.8607,186.309 91.5,184.5 Z"/></g>
<g><path style="opacity:1" fill="#8de4ed" d="M 131.5,184.5 C 132.167,184.5 132.833,184.5 133.5,184.5C 133.5,186.167 133.5,187.833 133.5,189.5C 132.833,189.5 132.167,189.5 131.5,189.5C 131.5,187.833 131.5,186.167 131.5,184.5 Z"/></g>
<g><path style="opacity:1" fill="#a2e8f1" d="M 737.5,176.5 C 735.618,181.265 733.452,185.932 731,190.5C 731.804,185.225 733.97,180.558 737.5,176.5 Z"/></g>
<g><path style="opacity:1" fill="#a1e8f1" d="M 716.5,178.5 C 713.403,185.691 710.07,192.691 706.5,199.5C 708.516,191.804 711.85,184.804 716.5,178.5 Z"/></g>
<g><path style="opacity:1" fill="#97e5ee" d="M 753.5,184.5 C 753.818,187.481 752.818,189.815 750.5,191.5C 750.707,188.759 751.707,186.426 753.5,184.5 Z"/></g>
<g><path style="opacity:1" fill="#38ccdf" d="M 94.5,189.5 C 98.3547,188.845 101.188,190.179 103,193.5C 103.667,196.5 103.667,199.5 103,202.5C 98.5786,208.086 94.5786,207.753 91,201.5C 89.7452,196.738 90.9119,192.738 94.5,189.5 Z"/></g>
<g><path style="opacity:1" fill="#77deea" d="M 133.5,189.5 C 134.833,189.5 136.167,189.5 137.5,189.5C 137.5,194.5 137.5,199.5 137.5,204.5C 136.514,200.03 136.181,195.363 136.5,190.5C 135.209,190.737 134.209,190.404 133.5,189.5 Z"/></g>
<g><path style="opacity:1" fill="#90e4ee" d="M 151.5,189.5 C 149.393,190.468 147.059,190.802 144.5,190.5C 144.5,195.167 144.5,199.833 144.5,204.5C 143.513,199.695 143.179,194.695 143.5,189.5C 146.167,189.5 148.833,189.5 151.5,189.5 Z"/></g>
<g><path style="opacity:1" fill="#a5e9f1" d="M 687.5,195.5 C 688.511,191.144 690.344,187.144 693,183.5C 692,187.836 690.167,191.836 687.5,195.5 Z"/></g>
<g><path style="opacity:1" fill="#98e6ef" d="M 750.5,191.5 C 740.924,220.233 740.09,249.233 748,278.5C 751.066,285.944 754.066,293.277 757,300.5C 745.747,281.416 740.247,260.749 740.5,238.5C 740.532,221.998 743.865,206.331 750.5,191.5 Z"/></g>
<g><path style="opacity:1" fill="#95e5ef" d="M 816.5,177.5 C 807.93,202.244 803.93,227.578 804.5,253.5C 804.333,242.828 804.5,232.161 805,221.5C 806.358,206.063 810.191,191.396 816.5,177.5 Z"/></g>
<g><path style="opacity:1" fill="#a3e8f1" d="M 669.5,190.5 C 663.982,202.561 660.149,215.228 658,228.5C 657.517,227.552 657.351,226.552 657.5,225.5C 659.142,212.903 663.142,201.236 669.5,190.5 Z"/></g>
<g><path style="opacity:1" fill="#95e5ef" d="M 771.5,288.5 C 764.476,272.868 761.476,256.368 762.5,239C 761.947,221.154 765.113,203.988 772,187.5C 770.036,195.413 768.036,203.413 766,211.5C 761.35,237.669 763.183,263.336 771.5,288.5 Z"/></g>
<g><path style="opacity:1" fill="#90e3ee" d="M 837.5,174.5 C 832.378,189.777 829.044,205.444 827.5,221.5C 827.232,205.178 830.566,189.511 837.5,174.5 Z"/></g>
<g><path style="opacity:1" fill="#93e4ee" d="M 793.5,182.5 C 794.097,182.735 794.43,183.235 794.5,184C 786.215,207.108 782.715,230.941 784,255.5C 781.132,230.348 784.299,206.015 793.5,182.5 Z"/></g>
<g><path style="opacity:1" fill="#a0e7f0" d="M 687.5,195.5 C 677.194,223.69 676.861,252.023 686.5,280.5C 680.136,267.186 677.136,253.02 677.5,238C 677.371,222.894 680.704,208.728 687.5,195.5 Z"/></g>
<g><path style="opacity:1" fill="#8de3ed" d="M 706.5,199.5 C 700.058,221.479 698.725,243.812 702.5,266.5C 700.908,262.068 699.741,257.402 699,252.5C 698.017,239.742 698.684,227.075 701,214.5C 702.171,209.143 704.004,204.143 706.5,199.5 Z"/></g>
<g><path style="opacity:1" fill="#e5f8fa" d="M 80.5,240.5 C 83.5,240.167 84.8333,241.5 84.5,244.5C 83.1667,244.5 81.8333,244.5 80.5,244.5C 80.5,243.167 80.5,241.833 80.5,240.5 Z"/></g>
<g><path style="opacity:1" fill="#cdf2f7" d="M 93.5,241.5 C 91.5316,249.433 90.865,257.766 91.5,266.5C 90.507,258.016 90.1736,249.349 90.5,240.5C 91.791,240.263 92.791,240.596 93.5,241.5 Z"/></g>
<g><path style="opacity:1" fill="#fefefe" d="M 93.5,241.5 C 93.3336,249.84 93.5003,258.173 94,266.5C 98.4178,268.7 97.9178,269.534 92.5,269C 91.7476,268.329 91.4142,267.496 91.5,266.5C 90.865,257.766 91.5316,249.433 93.5,241.5 Z"/></g>
<g><path style="opacity:1" fill="#cdf2f7" d="M 104.5,241.5 C 102.532,249.433 101.865,257.766 102.5,266.5C 101.507,258.016 101.174,249.349 101.5,240.5C 102.791,240.263 103.791,240.596 104.5,241.5 Z"/></g>
<g><path style="opacity:1" fill="#fefefe" d="M 104.5,241.5 C 104.334,249.84 104.5,258.173 105,266.5C 109.418,268.7 108.918,269.534 103.5,269C 102.748,268.329 102.414,267.496 102.5,266.5C 101.865,257.766 102.532,249.433 104.5,241.5 Z"/></g>
<g><path style="opacity:1" fill="#effbfc" d="M 113.5,240.5 C 115.912,240.694 116.912,242.027 116.5,244.5C 115.167,244.5 113.833,244.5 112.5,244.5C 112.433,243.041 112.766,241.708 113.5,240.5 Z"/></g>
<g><path style="opacity:1" fill="#e7f9fb" d="M 177.5,240.5 C 178.5,240.5 179.5,240.5 180.5,240.5C 180.5,241.833 180.5,243.167 180.5,244.5C 179.167,244.5 177.833,244.5 176.5,244.5C 176.433,243.041 176.766,241.708 177.5,240.5 Z"/></g>
<g><path style="opacity:1" fill="#fbfefe" d="M 187.5,240.5 C 188.5,240.5 189.5,240.5 190.5,240.5C 190.334,249.173 190.5,257.84 191,266.5C 192.205,267.071 193.372,267.738 194.5,268.5C 192.051,269.91 189.884,269.576 188,267.5C 187.5,258.506 187.334,249.506 187.5,240.5 Z"/></g>
<g><path style="opacity:1" fill="#e5f8fa" d="M 198.5,240.5 C 201.5,240.167 202.833,241.5 202.5,244.5C 201.167,244.5 199.833,244.5 198.5,244.5C 198.5,243.167 198.5,241.833 198.5,240.5 Z"/></g>
<g><path style="opacity:1" fill="#c1eff5" d="M 230.5,241.5 C 228.528,250.44 227.861,259.773 228.5,269.5C 227.506,260.014 227.173,250.348 227.5,240.5C 228.791,240.263 229.791,240.596 230.5,241.5 Z"/></g>
<g><path style="opacity:1" fill="#eefafc" d="M 54.5,242.5 C 59.9586,242.103 65.2919,242.603 70.5,244C 73.2962,247.741 72.9629,251.241 69.5,254.5C 75.2501,258.251 75.9168,262.751 71.5,268C 65.9284,269.351 60.2617,269.851 54.5,269.5C 54.5,260.5 54.5,251.5 54.5,242.5 Z"/></g>
<g><path style="opacity:1" fill="#f1fbfc" d="M 171.5,244.5 C 166.833,244.5 162.167,244.5 157.5,244.5C 157.5,247.833 157.5,251.167 157.5,254.5C 161.5,254.5 165.5,254.5 169.5,254.5C 166.316,256.414 162.649,257.08 158.5,256.5C 158.5,259.833 158.5,263.167 158.5,266.5C 163.094,266.865 167.427,267.865 171.5,269.5C 165.833,269.5 160.167,269.5 154.5,269.5C 154.5,260.5 154.5,251.5 154.5,242.5C 160.598,241.883 166.265,242.55 171.5,244.5 Z"/></g>
<g><path style="opacity:1" fill="#91e4ee" d="M 726.5,277.5 C 716.786,250.127 717.286,222.794 728,195.5C 725.708,204.681 723.708,214.015 722,223.5C 720.375,241.79 721.875,259.79 726.5,277.5 Z"/></g>
<g><path style="opacity:1" fill="#a5e9f1" d="M 67.5,245.5 C 64.5,245.5 61.5,245.5 58.5,245.5C 58.5,248.167 58.5,250.833 58.5,253.5C 57.5233,250.713 57.19,247.713 57.5,244.5C 61.0419,244.187 64.3752,244.521 67.5,245.5 Z"/></g>
<g><path style="opacity:1" fill="#26c9dd" d="M 67.5,245.5 C 68.9931,246.312 69.6598,247.645 69.5,249.5C 69.4302,250.772 69.0968,251.938 68.5,253C 65.1832,253.498 61.8499,253.665 58.5,253.5C 58.5,250.833 58.5,248.167 58.5,245.5C 61.5,245.5 64.5,245.5 67.5,245.5 Z"/></g>
<g><path style="opacity:1" fill="#9fe7f0" d="M 171.5,244.5 C 167.366,245.485 163.032,245.818 158.5,245.5C 158.5,248.167 158.5,250.833 158.5,253.5C 162.371,253.185 166.038,253.518 169.5,254.5C 165.5,254.5 161.5,254.5 157.5,254.5C 157.5,251.167 157.5,247.833 157.5,244.5C 162.167,244.5 166.833,244.5 171.5,244.5 Z"/></g>
<g><path style="opacity:1" fill="#fcfefe" d="M 80.5,249.5 C 81.5,249.5 82.5,249.5 83.5,249.5C 83.5,256.167 83.5,262.833 83.5,269.5C 82.5,269.5 81.5,269.5 80.5,269.5C 80.5,262.833 80.5,256.167 80.5,249.5 Z"/></g>
<g><path style="opacity:1" fill="#fefffe" d="M 113.5,249.5 C 115.459,255.75 116.126,262.416 115.5,269.5C 113.541,263.25 112.874,256.584 113.5,249.5 Z"/></g>
<g><path style="opacity:1" fill="#abebf2" d="M 113.5,249.5 C 114.209,248.596 115.209,248.263 116.5,248.5C 116.825,255.687 116.491,262.687 115.5,269.5C 116.126,262.416 115.459,255.75 113.5,249.5 Z"/></g>
<g><path style="opacity:1" fill="#f6fcfd" d="M 128.5,248.5 C 136.519,247.853 140.186,251.519 139.5,259.5C 134.833,259.5 130.167,259.5 125.5,259.5C 125.294,265.74 128.294,268.24 134.5,267C 135.772,264.739 137.438,264.239 139.5,265.5C 136.367,269.24 132.367,270.407 127.5,269C 126.069,268.535 124.903,267.701 124,266.5C 120.782,259.064 122.282,253.064 128.5,248.5 Z"/></g>
<g><path style="opacity:1" fill="#f7fdfe" d="M 177.5,249.5 C 178.5,249.5 179.5,249.5 180.5,249.5C 180.5,256.167 180.5,262.833 180.5,269.5C 179.5,269.5 178.5,269.5 177.5,269.5C 177.5,262.833 177.5,256.167 177.5,249.5 Z"/></g>
<g><path style="opacity:1" fill="#fcfefe" d="M 198.5,249.5 C 199.5,249.5 200.5,249.5 201.5,249.5C 201.5,256.167 201.5,262.833 201.5,269.5C 200.5,269.5 199.5,269.5 198.5,269.5C 198.5,262.833 198.5,256.167 198.5,249.5 Z"/></g>
<g><path style="opacity:1" fill="#f2fbfc" d="M 211.5,248.5 C 215.306,248.02 218.639,249.02 221.5,251.5C 218.283,251.658 214.95,251.825 211.5,252C 210.14,253.938 210.473,255.604 212.5,257C 216.257,257.358 219.424,258.858 222,261.5C 222.855,264.956 221.689,267.456 218.5,269C 213.869,270.261 209.869,269.261 206.5,266C 207.025,265.308 207.692,264.808 208.5,264.5C 211.039,267.04 214.039,267.874 217.5,267C 220.167,265 220.167,263 217.5,261C 213.81,260.464 210.644,258.964 208,256.5C 206.78,252.707 207.947,250.04 211.5,248.5 Z"/></g>
<g><path style="opacity:1" fill="#f7fdfd" d="M 230.5,241.5 C 230.18,244.898 230.513,248.232 231.5,251.5C 235.026,247.942 238.86,247.608 243,250.5C 244.416,256.715 244.916,263.048 244.5,269.5C 243.5,269.5 242.5,269.5 241.5,269.5C 241.666,264.156 241.499,258.823 241,253.5C 238.879,251.543 236.379,251.043 233.5,252C 232.299,252.903 231.465,254.069 231,255.5C 231.114,260.606 230.28,265.273 228.5,269.5C 227.861,259.773 228.528,250.44 230.5,241.5 Z"/></g>
<g><path style="opacity:1" fill="#2dcade" d="M 127.5,251.5 C 129.857,251.337 132.19,251.503 134.5,252C 136.155,253.444 136.822,255.278 136.5,257.5C 132.833,257.5 129.167,257.5 125.5,257.5C 125.604,255.297 126.27,253.297 127.5,251.5 Z"/></g>
<g><path style="opacity:1" fill="#25c9dd" d="M 58.5,256.5 C 62.1817,256.335 65.8484,256.501 69.5,257C 72.1667,260 72.1667,263 69.5,266C 65.8484,266.499 62.1817,266.665 58.5,266.5C 58.5,263.167 58.5,259.833 58.5,256.5 Z"/></g>
<g><path style="opacity:1" fill="#96e5ef" d="M 826.5,227.5 C 825.595,249.219 827.928,270.552 833.5,291.5C 831.892,288.79 830.725,285.79 830,282.5C 828.295,274.563 826.961,266.563 826,258.5C 825.183,245.465 825.35,235.131 826.5,227.5 Z"/></g>
<g><path style="opacity:1" fill="#afebf2" d="M 158.5,266.5 C 163.167,266.5 167.833,266.5 172.5,266.5C 172.737,267.791 172.404,268.791 171.5,269.5C 167.427,267.865 163.094,266.865 158.5,266.5 Z"/></g>
<g><path style="opacity:1" fill="#90e3ee" d="M 784.5,257.5 C 786.744,265.287 788.244,273.287 789,281.5C 786.314,273.716 784.814,265.716 784.5,257.5 Z"/></g>
<g><path style="opacity:1" fill="#90e4ee" d="M 811.5,286.5 C 808.246,278.584 806.246,270.25 805.5,261.5C 805.343,260.127 805.51,258.793 806,257.5C 807.517,267.249 809.35,276.915 811.5,286.5 Z"/></g>
<g><path style="opacity:1" fill="#a2e8f1" d="M 656.5,231.5 C 657.329,242.111 658.829,252.778 661,263.5C 665.42,281.846 674.587,297.346 688.5,310C 694.167,310.667 699.833,310.667 705.5,310C 696.511,301.85 690.177,292.016 686.5,280.5C 691.902,291.904 699.235,301.904 708.5,310.5C 708.5,310.833 708.5,311.167 708.5,311.5C 701.167,311.5 693.833,311.5 686.5,311.5C 686.672,310.508 686.338,309.842 685.5,309.5C 664.418,287.94 654.752,261.94 656.5,231.5 Z"/></g>
<g><path style="opacity:1" fill="#a2e8f1" d="M 702.5,266.5 C 707.121,281.41 714.121,295.077 723.5,307.5C 712.564,295.963 705.564,282.296 702.5,266.5 Z"/></g>
<g><path style="opacity:1" fill="#90e4ee" d="M 771.5,288.5 C 774.341,292.849 776.674,297.516 778.5,302.5C 775.126,298.419 772.793,293.753 771.5,288.5 Z"/></g>
<g><path style="opacity:1" fill="#a1e8f0" d="M 726.5,277.5 C 730.367,286.901 735.034,295.901 740.5,304.5C 733.491,296.818 728.824,287.818 726.5,277.5 Z"/></g>
<g><path style="opacity:1" fill="#8de3ed" d="M 793.5,292.5 C 796.167,296.164 798,300.164 799,304.5C 796.344,300.856 794.511,296.856 793.5,292.5 Z"/></g>
<g><path style="opacity:1" fill="#8fe3ee" d="M 836.5,299.5 C 838.293,301.426 839.293,303.759 839.5,306.5C 837.707,304.574 836.707,302.241 836.5,299.5 Z"/></g>
<g><path style="opacity:1" fill="#9be6ef" d="M 778.5,302.5 C 780.326,304.147 781.66,306.147 782.5,308.5C 780.178,307.198 778.845,305.198 778.5,302.5 Z"/></g>
<g><path style="opacity:1" fill="#7ee0eb" d="M 685.5,309.5 C 686.338,309.842 686.672,310.508 686.5,311.5C 480.167,311.5 273.833,311.5 67.5,311.5C 67.5,311.167 67.5,310.833 67.5,310.5C 273.667,310.833 479.667,310.5 685.5,309.5 Z"/></g>
<g><path style="opacity:1" fill="#86e1ed" d="M 782.5,308.5 C 783.289,308.783 783.956,309.283 784.5,310C 787.5,310.167 790.5,310.333 793.5,310.5C 802.695,310.279 812.029,310.112 821.5,310C 820.418,308.67 819.751,307.17 819.5,305.5C 820.933,306.833 822.267,308.333 823.5,310C 829.196,310.83 834.863,310.663 840.5,309.5C 839.873,308.583 839.539,307.583 839.5,306.5C 840.837,307.315 841.837,308.482 842.5,310C 872.832,310.5 903.165,310.667 933.5,310.5C 933.5,310.833 933.5,311.167 933.5,311.5C 858.5,311.5 783.5,311.5 708.5,311.5C 708.5,311.167 708.5,310.833 708.5,310.5C 713.844,310.666 719.177,310.499 724.5,310C 723.748,309.329 723.414,308.496 723.5,307.5C 724.627,308.122 725.627,308.955 726.5,310C 732.196,310.83 737.863,310.663 743.5,309.5C 742.048,308.06 741.048,306.394 740.5,304.5C 742.67,305.838 744.336,307.672 745.5,310C 751.5,310.667 757.5,310.667 763.5,310C 761.612,308.05 760.446,305.883 760,303.5C 761.715,305.759 763.548,307.926 765.5,310C 768.333,310.167 771.167,310.333 774,310.5C 777.252,310.481 780.085,309.814 782.5,308.5 Z"/></g>
</svg>
