<?xml version="1.0" encoding="UTF-8"?>
<svg version="1.1" xmlns="http://www.w3.org/2000/svg" width="864" height="864">
<path d="M0 0 C1.08410156 0.00257813 2.16820312 0.00515625 3.28515625 0.0078125 C4.90744141 0.00394531 4.90744141 0.00394531 6.5625 0 C9.34765625 0.1328125 9.34765625 0.1328125 11.34765625 1.1328125 C12.6762655 1.48450318 14.00923953 1.82051526 15.34765625 2.1328125 C15.67765625 3.7828125 16.00765625 5.4328125 16.34765625 7.1328125 C15.35765625 7.1328125 14.36765625 7.1328125 13.34765625 7.1328125 C13.81171875 8.215625 13.81171875 8.215625 14.28515625 9.3203125 C15.34765625 12.1328125 15.34765625 12.1328125 15.72265625 14.8203125 C16.1171359 17.31180502 16.1171359 17.31180502 18.41015625 18.4453125 C19.04953125 18.6721875 19.68890625 18.8990625 20.34765625 19.1328125 C19.35765625 19.1328125 18.36765625 19.1328125 17.34765625 19.1328125 C17.62383158 21.07356111 17.62383158 21.07356111 18.34765625 23.1328125 C19.33765625 23.7928125 20.32765625 24.4528125 21.34765625 25.1328125 C21.34765625 26.1228125 21.34765625 27.1128125 21.34765625 28.1328125 C22.00765625 28.4628125 22.66765625 28.7928125 23.34765625 29.1328125 C23.67765625 28.4728125 24.00765625 27.8128125 24.34765625 27.1328125 C25.00765625 26.8028125 25.66765625 26.4728125 26.34765625 26.1328125 C26.01765625 25.1428125 25.68765625 24.1528125 25.34765625 23.1328125 C27.34765625 20.1328125 27.34765625 20.1328125 28.34765625 19.1328125 C28.34765625 18.2253125 28.34765625 17.3178125 28.34765625 16.3828125 C28.34765625 13.4490054 28.6788541 10.97522162 29.34765625 8.1328125 C30.33765625 7.8028125 31.32765625 7.4728125 32.34765625 7.1328125 C32.34765625 5.1528125 32.34765625 3.1728125 32.34765625 1.1328125 C35.74534493 0.10122509 38.86905588 -0.00096346 42.41015625 0.0078125 C43.45300781 0.00523437 44.49585938 0.00265625 45.5703125 0 C48.34765625 0.1328125 48.34765625 0.1328125 51.34765625 1.1328125 C51.34765625 2.4528125 51.34765625 3.7728125 51.34765625 5.1328125 C52.00765625 5.1328125 52.66765625 5.1328125 53.34765625 5.1328125 C53.67765625 4.4728125 54.00765625 3.8128125 54.34765625 3.1328125 C54.34765625 4.4528125 54.34765625 5.7728125 54.34765625 7.1328125 C52.69765625 7.1328125 51.04765625 7.1328125 49.34765625 7.1328125 C49.84265625 26.9328125 49.84265625 26.9328125 50.34765625 47.1328125 C51.66765625 47.4628125 52.98765625 47.7928125 54.34765625 48.1328125 C53.68765625 49.4528125 53.02765625 50.7728125 52.34765625 52.1328125 C47.72765625 52.1328125 43.10765625 52.1328125 38.34765625 52.1328125 C37.68765625 50.8128125 37.02765625 49.4928125 36.34765625 48.1328125 C36.34765625 48.7928125 36.34765625 49.4528125 36.34765625 50.1328125 C35.35765625 49.6378125 35.35765625 49.6378125 34.34765625 49.1328125 C35.00765625 47.9984375 35.66765625 46.8640625 36.34765625 45.6953125 C38.67798875 41.10849607 38.76870025 37.18534051 38.34765625 32.1328125 C37.35765625 31.8028125 36.36765625 31.4728125 35.34765625 31.1328125 C35.34765625 32.4528125 35.34765625 33.7728125 35.34765625 35.1328125 C34.68765625 35.1328125 34.02765625 35.1328125 33.34765625 35.1328125 C33.01765625 38.7628125 32.68765625 42.3928125 32.34765625 46.1328125 C31.68765625 46.1328125 31.02765625 46.1328125 30.34765625 46.1328125 C29.68765625 48.1128125 29.02765625 50.0928125 28.34765625 52.1328125 C25.04765625 52.1328125 21.74765625 52.1328125 18.34765625 52.1328125 C17.91453125 51.0396875 17.48140625 49.9465625 17.03515625 48.8203125 C15.85269984 46.03872457 14.73965582 44.06919311 12.34765625 42.1328125 C13.00765625 42.1328125 13.66765625 42.1328125 14.34765625 42.1328125 C14.34765625 41.4728125 14.34765625 40.8128125 14.34765625 40.1328125 C11.70765625 40.1328125 9.06765625 40.1328125 6.34765625 40.1328125 C6.62609375 40.9990625 6.62609375 40.9990625 6.91015625 41.8828125 C7.38789171 44.33973775 7.10494989 45.77678784 6.34765625 48.1328125 C7.00765625 48.1328125 7.66765625 48.1328125 8.34765625 48.1328125 C7.34765625 51.1328125 7.34765625 51.1328125 5.34765625 52.1328125 C2.65752286 52.31985654 0.05079448 52.21862641 -2.65234375 52.1328125 C-4.27989019 50.50526606 -3.77971452 48.69142927 -3.78173828 46.4453125 C-3.78489044 45.44757813 -3.7880426 44.44984375 -3.79129028 43.421875 C-3.78926605 42.33648437 -3.78724182 41.25109375 -3.78515625 40.1328125 C-3.78611298 39.02679688 -3.7870697 37.92078125 -3.78805542 36.78125 C-3.78873742 34.43749942 -3.78688179 32.09374697 -3.78271484 29.75 C-3.77736689 26.14839462 -3.78265922 22.54691397 -3.7890625 18.9453125 C-3.78840172 16.67447889 -3.78712057 14.40364536 -3.78515625 12.1328125 C-3.78718048 11.04742187 -3.78920471 9.96203125 -3.79129028 8.84375 C-3.78813812 7.84601563 -3.78498596 6.84828125 -3.78173828 5.8203125 C-3.78094269 4.93730469 -3.78014709 4.05429687 -3.77932739 3.14453125 C-3.58334001 0.03963145 -3.13640016 0.15705097 0 0 Z M30.34765625 8.1328125 C30.34765625 8.7928125 30.34765625 9.4528125 30.34765625 10.1328125 C31.00765625 9.8028125 31.66765625 9.4728125 32.34765625 9.1328125 C31.68765625 8.8028125 31.02765625 8.4728125 30.34765625 8.1328125 Z M37.34765625 22.1328125 C38.34765625 24.1328125 38.34765625 24.1328125 38.34765625 24.1328125 Z M36.34765625 25.1328125 C36.67765625 25.7928125 37.00765625 26.4528125 37.34765625 27.1328125 C37.67765625 26.4728125 38.00765625 25.8128125 38.34765625 25.1328125 C37.68765625 25.1328125 37.02765625 25.1328125 36.34765625 25.1328125 Z M8.34765625 26.1328125 C6.88702775 28.78020166 6.34765625 30.02729584 6.34765625 33.1328125 C6.34765625 35.1328125 6.34765625 37.1328125 6.34765625 39.1328125 C7.33765625 39.1328125 8.32765625 39.1328125 9.34765625 39.1328125 C11.17032504 33.65714866 11.17032504 33.65714866 10.47265625 28.1328125 C10.10140625 27.4728125 9.73015625 26.8128125 9.34765625 26.1328125 C9.01765625 26.1328125 8.68765625 26.1328125 8.34765625 26.1328125 Z M21.34765625 31.1328125 C21.34765625 31.7928125 21.34765625 32.4528125 21.34765625 33.1328125 C22.33765625 32.8028125 23.32765625 32.4728125 24.34765625 32.1328125 C23.35765625 31.8028125 22.36765625 31.4728125 21.34765625 31.1328125 Z M22.34765625 34.1328125 C23.00765625 34.7928125 23.66765625 35.4528125 24.34765625 36.1328125 C24.34765625 35.4728125 24.34765625 34.8128125 24.34765625 34.1328125 C23.68765625 34.1328125 23.02765625 34.1328125 22.34765625 34.1328125 Z M11.34765625 35.1328125 C12.34765625 37.1328125 12.34765625 37.1328125 12.34765625 37.1328125 Z M12.34765625 37.1328125 C13.34765625 39.1328125 13.34765625 39.1328125 13.34765625 39.1328125 Z M49.34765625 48.1328125 C50.34765625 50.1328125 50.34765625 50.1328125 50.34765625 50.1328125 Z " fill="#36D1E1" transform="translate(374.65234375,395.8671875)"/>
<path d="M0 0 C2.78012267 1.91732598 3.37372557 3.76424877 4 7 C4.495 7.99 4.495 7.99 5 9 C4.01 9 3.02 9 2 9 C2 9.99 2 10.98 2 12 C1.01 12.33 0.02 12.66 -1 13 C-0.97679687 13.80824219 -0.95359375 14.61648438 -0.9296875 15.44921875 C-0.91164063 16.51785156 -0.89359375 17.58648437 -0.875 18.6875 C-0.85179687 19.74324219 -0.82859375 20.79898437 -0.8046875 21.88671875 C-1.00141271 25.02251859 -1.66942346 27.17645373 -3 30 C-3.99 30 -4.98 30 -6 30 C-5.50243908 32.75641416 -5.50243908 32.75641416 -4 35 C-3.34 34.34 -2.68 33.68 -2 33 C-1.505 35.475 -1.505 35.475 -1 38 C-0.38125 38.0825 0.2375 38.165 0.875 38.25 C3 39 3 39 4.25 40.875 C5.17568575 43.4977763 5.20512518 45.34359944 4.375 48 C3.70113419 50.3084494 3.70113419 50.3084494 6 53 C5.01 53.33 4.02 53.66 3 54 C2.34 54.99 1.68 55.98 1 57 C-0.4375 58.6875 -0.4375 58.6875 -2 60 C-2.99 60 -3.98 60 -5 60 C-6.175625 60.350625 -7.35125 60.70125 -8.5625 61.0625 C-12 62 -12 62 -14 61 C-14.33 61.66 -14.66 62.32 -15 63 C-16.65 62.67 -18.3 62.34 -20 62 C-20 62.66 -20 63.32 -20 64 C-23.875 62.125 -23.875 62.125 -25 61 C-25.66 61.66 -26.32 62.32 -27 63 C-28.32 63 -29.64 63 -31 63 C-31.66 62.34 -32.32 61.68 -33 61 C-32.67 60.01 -32.34 59.02 -32 58 C-32.66 57.34 -33.32 56.68 -34 56 C-34 55.01 -34 54.02 -34 53 C-34.66 52.67 -35.32 52.34 -36 52 C-35.34 50.35 -34.68 48.7 -34 47 C-34.66 46.67 -35.32 46.34 -36 46 C-35.01 45.34 -34.02 44.68 -33 44 C-33 43.01 -33 42.02 -33 41 C-32.01 41 -31.02 41 -30 41 C-31.05270463 39.84188612 -31.05270463 39.84188612 -33 39 C-32.835 38.401875 -32.67 37.80375 -32.5 37.1875 C-31.8885876 34.88655664 -31.8885876 34.88655664 -32 32 C-31.01 32.33 -30.02 32.66 -29 33 C-28.04979584 30.760165 -28.04979584 30.760165 -28 28 C-30.39585286 25.35412766 -30.39585286 25.35412766 -33 23 C-33 20 -33 17 -33 14 C-32.34 13.67 -31.68 13.34 -31 13 C-31.66 12.34 -32.32 11.68 -33 11 C-33 9.68 -33 8.36 -33 7 C-31.35 7 -29.7 7 -28 7 C-28.33 7.66 -28.66 8.32 -29 9 C-27.00016466 8.20882096 -27.00016466 8.20882096 -25 7 C-24.67 6.01 -24.34 5.02 -24 4 C-23.34 4.33 -22.68 4.66 -22 5 C-21.13375 4.67 -20.2675 4.34 -19.375 4 C-15.09207062 2.73098389 -12.37098344 3.24638217 -8 4 C-8 3.01 -8 2.02 -8 1 C-5.20129973 -0.39935013 -3.09501208 -0.25265405 0 0 Z M-18 13 C-18 13.33 -18 13.66 -18 14 C-15.03 14.495 -15.03 14.495 -12 15 C-12 14.34 -12 13.68 -12 13 C-13.98 13 -15.96 13 -18 13 Z M-20 15 C-20.33 16.65 -20.66 18.3 -21 20 C-20.01 20.33 -19.02 20.66 -18 21 C-17.67 21.99 -17.34 22.98 -17 24 C-17.12375 22.700625 -17.2475 21.40125 -17.375 20.0625 C-17.44460938 19.33160156 -17.51421875 18.60070312 -17.5859375 17.84765625 C-17.72257813 17.23792969 -17.85921875 16.62820313 -18 16 C-18.66 15.67 -19.32 15.34 -20 15 Z M-15 15 C-15 15.66 -15 16.32 -15 17 C-14.34 16.67 -13.68 16.34 -13 16 C-13.66 15.67 -14.32 15.34 -15 15 Z M-12 16 C-11.67 16.66 -11.34 17.32 -11 18 C-10.67 17.34 -10.34 16.68 -10 16 C-10.66 16 -11.32 16 -12 16 Z M-32 18 C-31 20 -31 20 -31 20 Z M-14 18 C-14.99 19.485 -14.99 19.485 -16 21 C-15.01 22.485 -15.01 22.485 -14 24 C-12.68 23.01 -11.36 22.02 -10 21 C-10.33 20.34 -10.66 19.68 -11 19 C-11.99 18.67 -12.98 18.34 -14 18 Z M-14 32 C-15.6662553 32.0370279 -17.33401319 32.04759962 -19 32 C-19.33 32.66 -19.66 33.32 -20 34 C-19.34 34.66 -18.68 35.32 -18 36 C-16.66400079 35.67751743 -15.33106622 35.34227417 -14 35 C-11.25 35.4375 -11.25 35.4375 -9 36 C-8.34 34.68 -7.68 33.36 -7 32 C-9.69506472 30.65246764 -11.08441088 31.38976042 -14 32 Z M-21 45 C-21.33 47.31 -21.66 49.62 -22 52 C-17.94568308 53.15837626 -15.78187881 52.83691257 -12 51 C-11.957279 49.33388095 -11.95936168 47.66617115 -12 46 C-12.98267859 44.79438816 -12.98267859 44.79438816 -14.84765625 44.90234375 C-16.8984375 44.93489583 -18.94921875 44.96744792 -21 45 Z M-23 47 C-23.33 47.66 -23.66 48.32 -24 49 C-23.01 49 -22.02 49 -21 49 C-21 48.34 -21 47.68 -21 47 C-21.66 47 -22.32 47 -23 47 Z M-10 47 C-10.33 47.99 -10.66 48.98 -11 50 C-9.68 49.34 -8.36 48.68 -7 48 C-7.99 47.67 -8.98 47.34 -10 47 Z " fill="#39D2E1" transform="translate(609,403)"/>
<path d="M0 0 C1.79244141 0.01740234 1.79244141 0.01740234 3.62109375 0.03515625 C5.41740234 0.04869141 5.41740234 0.04869141 7.25 0.0625 C8.17683594 0.07410156 9.10367187 0.08570313 10.05859375 0.09765625 C10.71859375 1.74765625 11.37859375 3.39765625 12.05859375 5.09765625 C11.06859375 5.59265625 11.06859375 5.59265625 10.05859375 6.09765625 C9.39859375 5.76765625 8.73859375 5.43765625 8.05859375 5.09765625 C8.22092499 6.01540329 8.38325623 6.93315033 8.55050659 7.87870789 C9.29114819 13.10586184 9.19799724 18.33126138 9.18798828 23.60083008 C9.1897406 24.73980743 9.19149292 25.87878479 9.19329834 27.05227661 C9.19768672 30.8030959 9.19479044 34.55386776 9.19140625 38.3046875 C9.19207992 40.9130606 9.19305047 43.52143364 9.19430542 46.12980652 C9.19612066 51.58776359 9.1937364 57.0457071 9.18896484 62.50366211 C9.18350982 68.81637714 9.18529644 75.12905993 9.19079125 81.44177419 C9.19586986 87.51957936 9.19534073 93.59737021 9.19240952 99.67517662 C9.19174084 102.26086112 9.1925666 104.84654645 9.19488907 107.43223 C9.19741629 111.03532755 9.19357462 114.63836223 9.18798828 118.24145508 C9.19001251 119.31730362 9.19203674 120.39315216 9.19412231 121.50160217 C9.19130249 122.47869141 9.18848267 123.45578064 9.18557739 124.46247864 C9.18520037 125.31434155 9.18482334 126.16620447 9.18443489 127.04388142 C9.05859375 129.09765625 9.05859375 129.09765625 8.05859375 131.09765625 C4.42859375 131.09765625 0.79859375 131.09765625 -2.94140625 131.09765625 C-3.94140625 127.09765625 -3.94140625 127.09765625 -2.94140625 125.09765625 C-3.60140625 124.76765625 -4.26140625 124.43765625 -4.94140625 124.09765625 C-4.44640625 123.60265625 -4.44640625 123.60265625 -3.94140625 123.09765625 C-3.86616835 121.27877998 -3.85826321 119.45703342 -3.87890625 117.63671875 C-3.88664062 116.52554688 -3.894375 115.414375 -3.90234375 114.26953125 C-3.92829939 111.91275947 -3.95434048 109.55598862 -3.98046875 107.19921875 C-3.98820312 106.08546875 -3.9959375 104.97171875 -4.00390625 103.82421875 C-4.01550781 102.79893066 -4.02710938 101.77364258 -4.0390625 100.71728516 C-3.94140625 98.09765625 -3.94140625 98.09765625 -2.94140625 95.09765625 C-3.60140625 95.09765625 -4.26140625 95.09765625 -4.94140625 95.09765625 C-4.77874771 94.51790889 -4.61608917 93.93816153 -4.44850159 93.34084606 C-3.632444 89.73092907 -3.82070707 86.08012675 -3.84375 82.39770508 C-3.84521027 81.52090591 -3.84667053 80.64410675 -3.84817505 79.74073792 C-3.85197686 77.83970895 -3.85808902 75.93868352 -3.86624146 74.03766823 C-3.87899568 71.03362444 -3.88551784 68.02962473 -3.89038086 65.02555847 C-3.90181006 58.65373792 -3.92106703 52.28195377 -3.94140625 45.91015625 C-3.96496061 38.51782688 -3.98535567 31.12551797 -3.99734497 23.73316002 C-4.0038551 20.76550435 -4.01636083 17.79791125 -4.02905273 14.83027649 C-4.03268294 13.02332617 -4.03603496 11.21637526 -4.0390625 9.40942383 C-4.04422882 8.57773682 -4.04939514 7.7460498 -4.05471802 6.88916016 C-4.05489882 4.9582894 -4.00382304 3.02751791 -3.94140625 1.09765625 C-2.94140625 0.09765625 -2.94140625 0.09765625 0 0 Z M8.05859375 2.09765625 C8.38859375 2.75765625 8.71859375 3.41765625 9.05859375 4.09765625 C9.38859375 3.43765625 9.71859375 2.77765625 10.05859375 2.09765625 C9.39859375 2.09765625 8.73859375 2.09765625 8.05859375 2.09765625 Z " fill="#1CCBDC" transform="translate(287.94140625,352.90234375)"/>
<path d="M0 0 C2.66666667 1.33333333 5.33333333 2.66666667 8 4 C8 4.66 8 5.32 8 6 C8.61875 6.309375 9.2375 6.61875 9.875 6.9375 C11.25 7.625 12.625 8.3125 14 9 C13.67 10.32 13.34 11.64 13 13 C13.66 13 14.32 13 15 13 C15 14.98 15 16.96 15 19 C12.66666667 19 10.33333333 19 8 19 C7.67 19.66 7.34 20.32 7 21 C7.99 20.67 8.98 20.34 10 20 C12.6875 20.9375 12.6875 20.9375 15 22 C14.01 22.495 14.01 22.495 13 23 C13.144375 23.58007812 13.28875 24.16015625 13.4375 24.7578125 C14.95624124 31.1491819 15.52348762 36.52517759 14 43 C9.25 44 9.25 44 7 44 C6.2795752 44.02094727 5.55915039 44.04189453 4.81689453 44.06347656 C1.9197643 44.14674863 -0.97714023 44.19844976 -3.875 44.25 C-4.88175781 44.28351563 -5.88851562 44.31703125 -6.92578125 44.3515625 C-14.35809303 44.45026518 -14.35809303 44.45026518 -17.6953125 42.109375 C-19 40 -19 40 -19 38 C-18.34 38 -17.68 38 -17 38 C-16.505 35.03 -16.505 35.03 -16 32 C-10.53303019 30.17767673 -5.06737072 33.77035688 0 36 C0 34.02 0 32.04 0 30 C-0.763125 30.226875 -1.52625 30.45375 -2.3125 30.6875 C-3.199375 30.790625 -4.08625 30.89375 -5 31 C-6.625 29.6875 -6.625 29.6875 -8 28 C-10.98646769 26.00902154 -13.59687262 25.05875074 -17 24 C-17 20.04 -17 16.08 -17 12 C-18.32 11.67 -19.64 11.34 -21 11 C-18.18134715 6.77202073 -18.18134715 6.77202073 -16 5 C-13.14353521 4.46144287 -10.93498095 4.70152736 -8 5 C-8.33 4.34 -8.66 3.68 -9 3 C-7.35 2.34 -5.7 1.68 -4 1 C-4 1.99 -4 2.98 -4 4 C-2.68 3.67 -1.36 3.34 0 3 C0 2.01 0 1.02 0 0 Z M-16 8 C-15.67 8.99 -15.34 9.98 -15 11 C-15 10.01 -15 9.02 -15 8 C-15.33 8 -15.66 8 -16 8 Z M-1 12 C-0.67 12.66 -0.34 13.32 0 14 C0.66 14 1.32 14 2 14 C2 13.34 2 12.68 2 12 C1.01 12 0.02 12 -1 12 Z M11 14 C10.67 14.66 10.34 15.32 10 16 C10.66 16 11.32 16 12 16 C11.67 15.34 11.34 14.68 11 14 Z M-2 15 C-2.66 15.66 -3.32 16.32 -4 17 C-3.34 17 -2.68 17 -2 17 C-2 17.66 -2 18.32 -2 19 C-0.68 19.33 0.64 19.66 2 20 C1.67 18.35 1.34 16.7 1 15 C0.01 15 -0.98 15 -2 15 Z M4 16 C4.33 17.65 4.66 19.3 5 21 C5.66 19.68 6.32 18.36 7 17 C6.01 16.67 5.02 16.34 4 16 Z M-17 39 C-16 41 -16 41 -16 41 Z " fill="#35D0E0" transform="translate(632,404)"/>
<path d="M0 0 C1.32 0.33 2.64 0.66 4 1 C3.67 1.66 3.34 2.32 3 3 C4.0725 2.95875 5.145 2.9175 6.25 2.875 C11.54311649 3.05143722 11.54311649 3.05143722 14 5 C19.66534009 13.09334299 19.1811584 21.79918929 19.1875 31.375 C19.19974609 32.37144531 19.21199219 33.36789062 19.22460938 34.39453125 C19.22654297 35.34457031 19.22847656 36.29460937 19.23046875 37.2734375 C19.23457764 38.13372559 19.23868652 38.99401367 19.24291992 39.88037109 C19 42 19 42 17 44 C9.69565217 44.46376812 9.69565217 44.46376812 6 42 C6 41.01 6 40.02 6 39 C6.66 39 7.32 39 8 39 C7.91621094 38.3709375 7.83242188 37.741875 7.74609375 37.09375 C7.0768319 31.4685618 7.06872311 26.58766133 8 21 C7.34 21 6.68 21 6 21 C6.33 19.35 6.66 17.7 7 16 C6.34 15.67 5.68 15.34 5 15 C5 14.67 5 14.34 5 14 C3.02 14 1.04 14 -1 14 C-3.3890198 18.53338332 -3.3890198 18.53338332 -3.6875 23.4375 C-3.3471875 24.2109375 -3.3471875 24.2109375 -3 25 C-3.99 25 -4.98 25 -6 25 C-5.85764543 26.72945653 -5.71095618 28.45855654 -5.5625 30.1875 C-5.44068359 31.63189453 -5.44068359 31.63189453 -5.31640625 33.10546875 C-5.07633524 35.99069624 -5.07633524 35.99069624 -4.27734375 38.67578125 C-4 41 -4 41 -5.01953125 42.80078125 C-7.93377721 44.56542328 -10.31638725 44.28763206 -13.6875 44.1875 C-15.45673828 44.14689453 -15.45673828 44.14689453 -17.26171875 44.10546875 C-18.16535156 44.07066406 -19.06898438 44.03585937 -20 44 C-19.67 43.01 -19.34 42.02 -19 41 C-18.34 41 -17.68 41 -17 41 C-17.16371094 39.91332031 -17.32742188 38.82664062 -17.49609375 37.70703125 C-18.16324456 32.36629488 -18.10898413 27.06178041 -18.0625 21.6875 C-18.05798828 20.69943359 -18.05347656 19.71136719 -18.04882812 18.69335938 C-18.04015517 16.87327852 -18.02941706 15.05320539 -18.01586914 13.2331543 C-18.00347353 11.48880555 -18 9.74439279 -18 8 C-17 6 -17 6 -15 4 C-11.79570701 3.82198372 -8.93312695 3.76005307 -5.8125 4.5625 C-3.58481439 5.10021722 -2.15542525 4.69281526 0 4 C0 2.68 0 1.36 0 0 Z M-7 7 C-6 9 -6 9 -6 9 Z " fill="#27CDDE" transform="translate(551,404)"/>
<path d="M0 0 C0 0.66 0 1.32 0 2 C-0.99 2.495 -0.99 2.495 -2 3 C-1.236875 3.268125 -0.47375 3.53625 0.3125 3.8125 C2.93603434 4.9717361 4.27119728 5.75255646 6 8 C6.6875 10.1875 6.6875 10.1875 7 12 C6.34 12 5.68 12 5 12 C5.16153564 13.21840576 5.32307129 14.43681152 5.48950195 15.69213867 C6.16058902 21.76788522 6.16212373 27.81873905 6.16796875 33.92578125 C6.17129715 35.1497612 6.17462555 36.37374115 6.17805481 37.6348114 C6.18309775 40.21413805 6.18546395 42.79347116 6.18530273 45.37280273 C6.18748726 49.28966165 6.2056662 53.20623774 6.22460938 57.12304688 C6.22754435 59.64062405 6.22952845 62.15820254 6.23046875 64.67578125 C6.23765427 65.83241776 6.24483978 66.98905426 6.25224304 68.18074036 C6.23150232 75.67194424 5.40411445 82.63857264 4 90 C-0.29 90 -4.58 90 -9 90 C-8 85 -8 85 -7 84 C-6.91087996 81.7617095 -6.89315415 79.52056273 -6.90234375 77.28051758 C-6.90380402 76.57799866 -6.90526428 75.87547974 -6.9067688 75.15167236 C-6.9105843 73.62056087 -6.91671076 72.08945384 -6.92483521 70.55835915 C-6.93756121 68.13286586 -6.94410552 65.70742707 -6.94897461 63.28190613 C-6.96237334 57.25248421 -6.98648664 51.22311345 -7.01037598 45.19372559 C-7.03013672 40.10902381 -7.04577082 35.02434172 -7.05593872 29.93961143 C-7.06240542 27.55441659 -7.07491834 25.16930235 -7.08764648 22.78413391 C-7.09128167 21.31157501 -7.09463307 19.83901537 -7.09765625 18.36645508 C-7.10289307 17.08595779 -7.10812988 15.80546051 -7.11352539 14.48616028 C-7.00741222 11.22761607 -6.62158783 8.19618051 -6 5 C-6.99 5 -7.98 5 -9 5 C-9.33 3.68 -9.66 2.36 -10 1 C-6.59437148 0.22157062 -3.49234244 -0.09978121 0 0 Z " fill="#2FCFDF" transform="translate(310,371)"/>
<path d="M0 0 C3.48221175 0.17411059 5.65214817 0.68551124 8.75 2.1875 C8.9375 5.0625 8.9375 5.0625 8.75 8.1875 C7.76 8.8475 6.77 9.5075 5.75 10.1875 C5.52862607 12.81447064 5.46837975 15.19643964 5.5625 17.8125 C5.57603516 18.51890625 5.58957031 19.2253125 5.60351562 19.953125 C5.6388896 21.69824128 5.69269779 23.44296608 5.75 25.1875 C6.41 25.1875 7.07 25.1875 7.75 25.1875 C7.811875 26.115625 7.811875 26.115625 7.875 27.0625 C8.16375 27.76375 8.4525 28.465 8.75 29.1875 C11.74615946 30.4920656 11.74615946 30.4920656 14.75 31.1875 C14.42 30.1975 14.09 29.2075 13.75 28.1875 C15.07 27.5275 16.39 26.8675 17.75 26.1875 C17.25886719 25.45273437 17.25886719 25.45273437 16.7578125 24.703125 C15.33227411 21.14480437 15.53845652 17.70546989 15.625 13.9375 C15.63402344 13.19242187 15.64304687 12.44734375 15.65234375 11.6796875 C15.67581642 9.84881941 15.71168475 8.01811762 15.75 6.1875 C16.41 6.1875 17.07 6.1875 17.75 6.1875 C17.75 5.5275 17.75 4.8675 17.75 4.1875 C18.41 4.1875 19.07 4.1875 19.75 4.1875 C19.75 3.1975 19.75 2.2075 19.75 1.1875 C22.59083641 -0.23291821 24.60477278 -0.12702272 27.75 0.1875 C30.59780619 2.41956431 31.59997666 3.73742999 32.75 7.1875 C32.42 7.8475 32.09 8.5075 31.75 9.1875 C31.09 9.1875 30.43 9.1875 29.75 9.1875 C29.9975 10.486875 29.9975 10.486875 30.25 11.8125 C31.22501866 18.58191528 31.92310034 26.66819899 29.75 33.1875 C30.41 33.1875 31.07 33.1875 31.75 33.1875 C32.245 32.1975 32.245 32.1975 32.75 31.1875 C32.2520163 34.92237777 31.87508244 36.99987635 29.75 40.1875 C27.19604513 40.45461404 24.88725626 40.53599029 22.3359375 40.48046875 C21.60629791 40.47622391 20.87665833 40.47197906 20.12490845 40.46760559 C17.79123241 40.45079353 15.4584156 40.41313868 13.125 40.375 C11.54428329 40.35995634 9.96355307 40.34626738 8.3828125 40.33398438 C4.50487656 40.30088201 0.62758402 40.24908404 -3.25 40.1875 C-4.0528148 35.25341779 -4.37845356 30.55370801 -4.3828125 25.5390625 C-4.38376923 24.84106537 -4.38472595 24.14306824 -4.38571167 23.42391968 C-4.38638703 21.96343901 -4.38457809 20.50295523 -4.38037109 19.04248047 C-4.37496456 16.79778443 -4.38036262 14.55328406 -4.38671875 12.30859375 C-4.38605881 10.88541622 -4.38477939 9.46223882 -4.3828125 8.0390625 C-4.38168457 6.74822754 -4.38055664 5.45739258 -4.37939453 4.12744141 C-4.19805749 0.00732692 -4.16917711 0.24052945 0 0 Z M4.75 3.1875 C5.08 4.1775 5.41 5.1675 5.75 6.1875 C6.41 5.5275 7.07 4.8675 7.75 4.1875 C6.76 3.8575 5.77 3.5275 4.75 3.1875 Z M16.75 8.1875 C16.75 12.4775 16.75 16.7675 16.75 21.1875 C17.74 21.6825 17.74 21.6825 18.75 22.1875 C18.75 17.5675 18.75 12.9475 18.75 8.1875 C18.09 8.1875 17.43 8.1875 16.75 8.1875 Z " fill="#34D1E0" transform="translate(439.25,407.8125)"/>
<path d="M0 0 C2 1 2 1 3 2 C3.66 1.34 4.32 0.68 5 0 C5 0.99 5 1.98 5 3 C6.65 2.34 8.3 1.68 10 1 C10.763125 1.639375 11.52625 2.27875 12.3125 2.9375 C14.88246713 5.14232781 14.88246713 5.14232781 18 6 C18.495 8.97 18.495 8.97 19 12 C18.34 12 17.68 12 17 12 C16.01 13.485 16.01 13.485 15 15 C15.70339566 17.50965614 15.70339566 17.50965614 17 20 C17.28875 20.61875 17.5775 21.2375 17.875 21.875 C19.50856845 24.96062929 21.25528992 27.97583586 23 31 C23.66 31 24.32 31 25 31 C24.875 32.8125 24.875 32.8125 24 35 C20.9375 36.75 20.9375 36.75 18 38 C18 39.32 18 40.64 18 42 C12.88689383 43.02262123 7.94245632 43.21650028 2.75 43.25 C1.9353125 43.270625 1.120625 43.29125 0.28125 43.3125 C-2.078125 43.328125 -2.078125 43.328125 -6 43 C-6.66 42.01 -7.32 41.02 -8 40 C-11.05429073 38.78715124 -11.05429073 38.78715124 -14 38 C-12.92598892 35.08482708 -12.22189824 33.22189824 -10 31 C-9.01 31 -8.02 31 -7 31 C-7 28.36 -7 25.72 -7 23 C-7.99 23 -8.98 23 -10 23 C-9.67 21.68 -9.34 20.36 -9 19 C-10.32 18.67 -11.64 18.34 -13 18 C-13.33 15.69 -13.66 13.38 -14 11 C-13.01 10.67 -12.02 10.34 -11 10 C-11 9.01 -11 8.02 -11 7 C-9.35 7 -7.7 7 -6 7 C-6 6.34 -6 5.68 -6 5 C-4.34467377 3.98133771 -2.67739862 2.98189187 -1 2 C-0.67 1.34 -0.34 0.68 0 0 Z M4 12 C3.34 13.98 2.68 15.96 2 18 C5.63 18.66 9.26 19.32 13 20 C13.33 18.68 13.66 17.36 14 16 C13.38125 15.71125 12.7625 15.4225 12.125 15.125 C10 14 10 14 8 12 C8 12.66 8 13.32 8 14 C7.01 14 6.02 14 5 14 C4.67 13.34 4.34 12.68 4 12 Z M1 14 C1 17 1 17 1 17 Z M-5 26 C-4.34 27.65 -3.68 29.3 -3 31 C-1.68 30.34 -0.36 29.68 1 29 C0.34 28.01 -0.32 27.02 -1 26 C-2.32 26 -3.64 26 -5 26 Z M2 27 C2.66 27.66 3.32 28.32 4 29 C4 28.34 4 27.68 4 27 C3.34 27 2.68 27 2 27 Z M-6 29 C-5 31 -5 31 -5 31 Z M4 29 C4 29.66 4 30.32 4 31 C4.99 31.33 5.98 31.66 7 32 C7.66 31.34 8.32 30.68 9 30 C7.35 29.67 5.7 29.34 4 29 Z M5 32 C6 34 6 34 6 34 Z M2 33 C2 33.66 2 34.32 2 35 C2.99 34.67 3.98 34.34 5 34 C4.01 33.67 3.02 33.34 2 33 Z M20 33 C21 35 21 35 21 35 Z " fill="#43D4E2" transform="translate(487,405)"/>
<path d="M0 0 C5.75 0.875 5.75 0.875 8 2 C8 2.99 8 3.98 8 5 C9.32 5.33 10.64 5.66 12 6 C12.625 7.875 12.625 7.875 13 10 C12.34 10.66 11.68 11.32 11 12 C10.70592891 15.07764921 10.70592891 15.07764921 10.77294922 18.74462891 C10.77251114 19.78382225 10.77251114 19.78382225 10.77206421 20.8440094 C10.77345969 23.13832034 10.78903081 25.43230816 10.8046875 27.7265625 C10.80841686 29.31553978 10.8112642 30.90451936 10.81326294 32.49349976 C10.82090547 36.67914154 10.84055919 40.8646449 10.8626709 45.05023193 C10.88311604 49.31992724 10.8922618 53.58964487 10.90234375 57.859375 C10.92380457 66.23964691 10.95794789 74.61980625 11 83 C11.66 83.33 12.32 83.66 13 84 C11.515 84.495 11.515 84.495 10 85 C9.6278958 86.32303717 9.29369827 87.65737935 9 89 C5.4300086 90.7849957 1.95613116 90.25496831 -1.8125 89.25 C-4 88 -4 88 -4.9375 86.0625 C-5 84 -5 84 -3 81 C-2.67 81.66 -2.34 82.32 -2 83 C-1.97531916 77.90967159 -1.95714918 72.81937785 -1.94506836 67.72900391 C-1.94003318 65.99657586 -1.93320468 64.26415208 -1.92456055 62.53173828 C-1.91245935 60.04458567 -1.90676362 57.55748913 -1.90234375 55.0703125 C-1.89718246 54.29317902 -1.89202118 53.51604553 -1.88670349 52.71536255 C-1.79671948 48.72829094 -1.79671948 48.72829094 -3 45 C-2.34 45 -1.68 45 -1 45 C-1.0721875 44.08863281 -1.144375 43.17726563 -1.21875 42.23828125 C-1.87035957 33.14289763 -2.08635517 24.12835215 -1.96289062 15.0090332 C-1.95451172 14.155271 -1.94613281 13.30150879 -1.9375 12.421875 C-1.92589844 11.66487305 -1.91429687 10.90787109 -1.90234375 10.12792969 C-1.92184378 7.97298776 -1.92184378 7.97298776 -2.59375 5.86425781 C-3 4 -3 4 -1.5625 1.75 C-1.046875 1.1725 -0.53125 0.595 0 0 Z M2 1 C2.33 1.66 2.66 2.32 3 3 C3.33 2.34 3.66 1.68 4 1 C3.34 1 2.68 1 2 1 Z M5 2 C6 4 6 4 6 4 Z " fill="#1BCADC" transform="translate(267,371)"/>
<path d="M0 0 C0.928125 0.2784375 0.928125 0.2784375 1.875 0.5625 C4.04160178 1.23686176 4.04160178 1.23686176 6 0 C8.3329866 -0.04022391 10.66706666 -0.04320247 13 0 C13.33 0.99 13.66 1.98 14 3 C16.00016466 4.20882096 16.00016466 4.20882096 18 5 C17.01 5.33 16.02 5.66 15 6 C14.67 21.18 14.34 36.36 14 52 C14.66 52.33 15.32 52.66 16 53 C15.34 53 14.68 53 14 53 C13.773125 53.639375 13.54625 54.27875 13.3125 54.9375 C12 57 12 57 9.5 57.75 C7 58 7 58 5 58 C4.34 57.34 3.68 56.68 3 56 C1.515 56.495 1.515 56.495 0 57 C0.33 55.35 0.66 53.7 1 52 C1.99 52.33 2.98 52.66 4 53 C3.83701416 51.87207031 3.67402832 50.74414062 3.50610352 49.58203125 C2.92788491 44.93639436 2.87261366 40.36356516 2.90234375 35.6875 C2.90446617 34.40601074 2.90446617 34.40601074 2.90663147 33.09863281 C2.91218038 30.39905127 2.92472303 27.69955601 2.9375 25 C2.94252161 23.15755329 2.94708336 21.31510527 2.95117188 19.47265625 C2.96213301 14.98173814 2.97936175 10.49088364 3 6 C2.01 6 1.02 6 0 6 C-1.125 2.25 -1.125 2.25 0 0 Z " fill="#30CFDF" transform="translate(244,390)"/>
<path d="M0 0 C2.47621871 5.10720108 2.43283403 9.59536648 1.4375 15.125 C0.8432658 17.89419864 0.8432658 17.89419864 1.46435547 20.18652344 C2.14530572 23.76321931 2.14308039 27.26498645 2.1328125 30.890625 C2.13376923 31.63584412 2.13472595 32.38106323 2.13571167 33.14886475 C2.13638946 34.71545497 2.13456327 36.28204805 2.13037109 37.84863281 C2.12498675 40.25592256 2.13034509 42.66302829 2.13671875 45.0703125 C2.13605849 46.59375041 2.13477841 48.11718821 2.1328125 49.640625 C2.13483673 50.36348694 2.13686096 51.08634888 2.13894653 51.83111572 C2.1149722 56.8850278 2.1149722 56.8850278 1 58 C-1.01964199 58.07244053 -3.04167124 58.08377188 -5.0625 58.0625 C-6.16722656 58.05347656 -7.27195312 58.04445313 -8.41015625 58.03515625 C-9.69212891 58.01775391 -9.69212891 58.01775391 -11 58 C-10.75056641 56.14761719 -10.75056641 56.14761719 -10.49609375 54.2578125 C-9.734231 47.41577621 -9.98714621 40.57875307 -10.12695312 33.70703125 C-10.18782063 28.04277281 -9.93001383 23.34348927 -8 18 C-8.99 17.67 -9.98 17.34 -11 17 C-10.505 15.515 -10.505 15.515 -10 14 C-9.34 14 -8.68 14 -8 14 C-8.99 13.34 -9.98 12.68 -11 12 C-11.29296875 9.6171875 -11.29296875 9.6171875 -11.1875 6.875 C-11.16042969 5.96492188 -11.13335937 5.05484375 -11.10546875 4.1171875 C-11.07066406 3.41851562 -11.03585937 2.71984375 -11 2 C-7.17010894 0.19769832 -4.21878192 -0.19622241 0 0 Z M-7 16 C-6 18 -6 18 -6 18 Z " fill="#27CDDE" transform="translate(523,390)"/>
<path d="M0 0 C6.75 -0.125 6.75 -0.125 9 1 C9 19.48 9 37.96 9 57 C2 58 2 58 -1 57 C-3 55 -3 55 -4 53 C-2.02 52.505 -2.02 52.505 0 52 C-0.01474869 51.3927861 -0.02949738 50.7855722 -0.04469299 50.15995789 C-0.19691341 43.85002121 -0.34171603 37.53994549 -0.48217773 31.22973633 C-0.53560512 28.87357242 -0.59093504 26.51745087 -0.64819336 24.16137695 C-0.73008339 20.77825046 -0.80516966 17.39503154 -0.87890625 14.01171875 C-0.90594131 12.95538742 -0.93297638 11.89905609 -0.96083069 10.81071472 C-0.98092697 9.82992447 -1.00102325 8.84913422 -1.02172852 7.83862305 C-1.05170677 6.54289619 -1.05170677 6.54289619 -1.08229065 5.22099304 C-1 3 -1 3 0 0 Z " fill="#20CCDD" transform="translate(324,390)"/>
<path d="M0 0 C2.18400352 0.62799241 2.18400352 0.62799241 5.05078125 0.5078125 C5.15890128 3.25886672 5.2381307 6.00566337 5.30078125 8.7578125 C5.35105469 9.92376953 5.35105469 9.92376953 5.40234375 11.11328125 C5.5022202 16.95605378 5.5022202 16.95605378 3.08203125 19.9140625 C2.41171875 20.44 1.74140625 20.9659375 1.05078125 21.5078125 C0.26351345 23.6460091 0.26351345 23.6460091 0.05078125 25.5078125 C-6.23759084 26.71711483 -6.23759084 26.71711483 -9.07421875 25.8828125 C-14.28345132 22.06270861 -16.71135305 18.9222075 -17.94921875 12.5078125 C-18.07421875 9.2578125 -18.07421875 9.2578125 -17.94921875 6.5078125 C-17.94921875 5.5178125 -17.94921875 4.5278125 -17.94921875 3.5078125 C-17.61921875 2.8478125 -17.28921875 2.1878125 -16.94921875 1.5078125 C-15.63147679 1.11737044 -14.29254603 0.79826164 -12.94921875 0.5078125 C-11.61890625 -0.08 -11.61890625 -0.08 -10.26171875 -0.6796875 C-6.30760755 -1.64956383 -3.86110536 -1.05363497 0 0 Z M-12.94921875 7.5078125 C-11.94921875 9.5078125 -11.94921875 9.5078125 -11.94921875 9.5078125 Z M-5.94921875 7.5078125 C-4.94921875 9.5078125 -4.94921875 9.5078125 -4.94921875 9.5078125 Z M-0.94921875 8.5078125 C-0.94921875 9.1678125 -0.94921875 9.8278125 -0.94921875 10.5078125 C-0.28921875 10.1778125 0.37078125 9.8478125 1.05078125 9.5078125 C0.39078125 9.1778125 -0.26921875 8.8478125 -0.94921875 8.5078125 Z M1.05078125 10.5078125 C1.05078125 13.5078125 1.05078125 13.5078125 1.05078125 13.5078125 Z M-12.94921875 13.5078125 C-12.61921875 14.1678125 -12.28921875 14.8278125 -11.94921875 15.5078125 C-11.61921875 14.8478125 -11.28921875 14.1878125 -10.94921875 13.5078125 C-11.60921875 13.5078125 -12.26921875 13.5078125 -12.94921875 13.5078125 Z M-5.94921875 13.5078125 C-4.94921875 15.5078125 -4.94921875 15.5078125 -4.94921875 15.5078125 Z M-0.94921875 14.5078125 C0.05078125 16.5078125 0.05078125 16.5078125 0.05078125 16.5078125 Z M-6.94921875 16.5078125 C-6.61921875 17.1678125 -6.28921875 17.8278125 -5.94921875 18.5078125 C-5.28921875 18.1778125 -4.62921875 17.8478125 -3.94921875 17.5078125 C-4.93921875 17.1778125 -5.92921875 16.8478125 -6.94921875 16.5078125 Z M-1.94921875 22.5078125 C-0.94921875 24.5078125 -0.94921875 24.5078125 -0.94921875 24.5078125 Z " fill="#6DDEE9" transform="translate(664.94921875,402.4921875)"/>
<path d="M0 0 C2.31 0 4.62 0 7 0 C7.33 0.99 7.66 1.98 8 3 C8 2.01 8 1.02 8 0 C9.65 0 11.3 0 13 0 C13.33 0.66 13.66 1.32 14 2 C13.49726563 2.5465625 12.99453125 3.093125 12.4765625 3.65625 C10.59857848 6.63717701 10.87399748 8.05915254 11.375 11.5 C12.09382157 16.63041274 12.09382157 16.63041274 11.51367188 18.91577148 C10.98420167 21.06410188 10.92802225 22.79963442 11.0078125 25.00390625 C11.02457031 25.74447266 11.04132813 26.48503906 11.05859375 27.24804688 C11.10298354 28.79516177 11.15510947 30.34207343 11.21484375 31.88867188 C11.32414744 37.58736906 11.32414744 37.58736906 9.5546875 39.83984375 C8.78511719 40.41412109 8.78511719 40.41412109 8 41 C7.67 41.99 7.34 42.98 7 44 C4.69 43.34 2.38 42.68 0 42 C0 28.14 0 14.28 0 0 Z " fill="#37D1E1" transform="translate(229,397)"/>
<path d="M0 0 C1.62600941 0.0870005 3.25089678 0.1951781 4.875 0.3125 C5.77992188 0.37050781 6.68484375 0.42851562 7.6171875 0.48828125 C10 1 10 1 12 4 C12.24050903 5.87931824 12.24050903 5.87931824 12.22705078 8.01245117 C12.22682419 9.2133564 12.22682419 9.2133564 12.22659302 10.43852234 C12.21627045 11.29798965 12.20594788 12.15745697 12.1953125 13.04296875 C12.1924826 13.9265657 12.18965271 14.81016266 12.18673706 15.72053528 C12.17554097 18.54299454 12.15043751 21.36513662 12.125 24.1875 C12.11496946 26.10090688 12.10584374 28.01431873 12.09765625 29.92773438 C12.07560351 34.61861182 12.04107762 39.30925213 12 44 C9.31672858 44.78953402 8.11199248 45.02604476 5.3125 44.375 C3 43 3 43 2.3125 40.4375 C2.209375 39.633125 2.10625 38.82875 2 38 C1.34 37.67 0.68 37.34 0 37 C-0.125 29.375 -0.125 29.375 1 26 C1.12255168 23.1756113 1.18512869 20.38673238 1.1875 17.5625 C1.19974609 16.79873047 1.21199219 16.03496094 1.22460938 15.24804688 C1.24712434 9.84940829 1.24712434 9.84940829 -1 5 C-0.34 4.34 0.32 3.68 1 3 C0.67 2.01 0.34 1.02 0 0 Z M1 5 C1.33 5.99 1.66 6.98 2 8 C2.33 7.01 2.66 6.02 3 5 C2.34 5 1.68 5 1 5 Z M9 41 C9 41.66 9 42.32 9 43 C9.66 42.67 10.32 42.34 11 42 C10.34 41.67 9.68 41.34 9 41 Z " fill="#1DCBDD" transform="translate(340,396)"/>
<path d="M0 0 C3.19585333 6.5914475 2.18019305 12.32315878 0 19 C-1.258125 19.04125 -2.51625 19.0825 -3.8125 19.125 C-4.52019531 19.14820313 -5.22789062 19.17140625 -5.95703125 19.1953125 C-8 19 -8 19 -11 17 C-10.505 15.515 -10.505 15.515 -10 14 C-9.34 14 -8.68 14 -8 14 C-8.99 13.34 -9.98 12.68 -11 12 C-11.29296875 9.6171875 -11.29296875 9.6171875 -11.1875 6.875 C-11.16042969 5.96492188 -11.13335937 5.05484375 -11.10546875 4.1171875 C-11.07066406 3.41851562 -11.03585937 2.71984375 -11 2 C-7.17010894 0.19769832 -4.21878192 -0.19622241 0 0 Z M-7 16 C-6 18 -6 18 -6 18 Z " fill="#51D8E5" transform="translate(523,390)"/>
<path d="M0 0 C2.97 0.495 2.97 0.495 6 1 C5.67 1.99 5.34 2.98 5 4 C4.01 4.33 3.02 4.66 2 5 C0.4773861 8.04522779 0.82064829 11.22775586 0.79467773 14.57080078 C0.78477814 15.35137848 0.77487854 16.13195618 0.76467896 16.93618774 C0.73303022 19.52253155 0.70829324 22.10889375 0.68359375 24.6953125 C0.66302713 26.48607874 0.64203074 28.27684008 0.62062073 30.06759644 C0.56536987 34.78578743 0.5159739 39.50402245 0.46777344 44.22229004 C0.4175804 49.03495207 0.36188288 53.84755 0.30664062 58.66015625 C0.19902219 68.1067161 0.09758541 77.55333156 0 87 C-1.98 87.495 -1.98 87.495 -4 88 C-4.625 86.1875 -4.625 86.1875 -5 84 C-4.34 83.01 -3.68 82.02 -3 81 C-2.67 81.66 -2.34 82.32 -2 83 C-1.97531916 77.90967159 -1.95714918 72.81937785 -1.94506836 67.72900391 C-1.94003318 65.99657586 -1.93320468 64.26415208 -1.92456055 62.53173828 C-1.91245935 60.04458567 -1.90676362 57.55748913 -1.90234375 55.0703125 C-1.89718246 54.29317902 -1.89202118 53.51604553 -1.88670349 52.71536255 C-1.79671948 48.72829094 -1.79671948 48.72829094 -3 45 C-2.34 45 -1.68 45 -1 45 C-1.0721875 44.08863281 -1.144375 43.17726563 -1.21875 42.23828125 C-1.87035957 33.14289763 -2.08635517 24.12835215 -1.96289062 15.0090332 C-1.95451172 14.155271 -1.94613281 13.30150879 -1.9375 12.421875 C-1.92589844 11.66487305 -1.91429687 10.90787109 -1.90234375 10.12792969 C-1.92184378 7.97298776 -1.92184378 7.97298776 -2.59375 5.86425781 C-3 4 -3 4 -1.5625 1.75 C-1.046875 1.1725 -0.53125 0.595 0 0 Z M2 1 C2.33 1.66 2.66 2.32 3 3 C3.33 2.34 3.66 1.68 4 1 C3.34 1 2.68 1 2 1 Z " fill="#8CE5ED" transform="translate(267,371)"/>
<path d="M0 0 C3.0625 0.125 3.0625 0.125 5.0625 1.125 C5.0625 2.445 5.0625 3.765 5.0625 5.125 C4.4025 5.125 3.7425 5.125 3.0625 5.125 C3.0625 4.465 3.0625 3.805 3.0625 3.125 C1.7425 2.795 0.4225 2.465 -0.9375 2.125 C-0.99808594 2.89585937 -1.05867187 3.66671875 -1.12109375 4.4609375 C-1.20488281 5.46382813 -1.28867187 6.46671875 -1.375 7.5 C-1.45621094 8.49773437 -1.53742187 9.49546875 -1.62109375 10.5234375 C-1.9375 13.125 -1.9375 13.125 -2.9375 15.125 C0.0325 15.62 0.0325 15.62 3.0625 16.125 C3.0625 16.785 3.0625 17.445 3.0625 18.125 C-1.43922909 18.47807679 -4.86375304 18.68424321 -8.9375 16.5625 C-11.48727482 13.45496194 -11.7091978 11.08223818 -11.9375 7.125 C-11.298125 6.83625 -10.65875 6.5475 -10 6.25 C-7.78543921 5.29676549 -7.78543921 5.29676549 -6.9375 3.125 C-6.70963542 5.17578125 -6.48177083 7.2265625 -6.25390625 9.27734375 C-6.11863386 11.13640229 -6.11863386 11.13640229 -4.9375 12.125 C-4.87691406 11.34253906 -4.81632813 10.56007813 -4.75390625 9.75390625 C-4.67011719 8.74199219 -4.58632813 7.73007812 -4.5 6.6875 C-4.41878906 5.67816406 -4.33757813 4.66882813 -4.25390625 3.62890625 C-3.79953376 0.03319311 -3.69087368 0.15705845 0 0 Z " fill="#42D3E2" transform="translate(658.9375,406.875)"/>
<path d="M0 0 C2.51547628 3.77321443 2.27435478 6.74339443 2.24291992 11.11157227 C2.24481827 11.93785126 2.24671661 12.76413025 2.24867249 13.615448 C2.25238004 16.34919698 2.24167701 19.08268085 2.23046875 21.81640625 C2.2292769 23.71304798 2.2288238 25.60969031 2.2290802 27.5063324 C2.22751541 31.48171685 2.2192255 35.45701124 2.20581055 39.43237305 C2.18880918 44.53604078 2.18499654 49.63960961 2.18575573 54.74330235 C2.18548423 58.65940806 2.1800065 62.57549201 2.17275429 66.4915905 C2.16956542 68.3739194 2.16759971 70.25625077 2.16686058 72.13858223 C2.16469998 74.7650386 2.15596214 77.39138862 2.14526367 80.01782227 C2.14571686 80.80073135 2.14617004 81.58364044 2.14663696 82.39027405 C2.1144784 87.7710432 2.1144784 87.7710432 1 90 C0.34 90 -0.32 90 -1 90 C-1.08572612 71.04546103 -0.85052897 52.10289119 -0.53643799 33.15185547 C-0.47463708 29.39618248 -0.41516908 25.64047249 -0.35546875 21.88476562 C-0.23918298 14.58980699 -0.12043989 7.29489136 0 0 Z " fill="#38D0E0" transform="translate(295,394)"/>
<path d="M0 0 C-0.625 1.9375 -0.625 1.9375 -2 4 C-5.125 4.75 -5.125 4.75 -8 5 C-8.87867729 8.73437848 -9.08912219 12.16774573 -9 16 C-10.5625 14.875 -10.5625 14.875 -12 13 C-11.6875 9.8125 -11.6875 9.8125 -11 7 C-11.66 7 -12.32 7 -13 7 C-13 7.66 -13 8.32 -13 9 C-13.99 9.33 -14.98 9.66 -16 10 C-16.90786761 6.70897992 -17.59440475 4.18880951 -16 1 C-14.68225804 0.60955794 -13.34332728 0.29044914 -12 0 C-11.05125 -0.391875 -10.1025 -0.78375 -9.125 -1.1875 C-5.36094946 -2.16615314 -3.51856002 -1.50795429 0 0 Z " fill="#58D9E6" transform="translate(664,403)"/>
<path d="M0 0 C0.66 1.32 1.32 2.64 2 4 C1.34 4.66 0.68 5.32 0 6 C-0.29407109 9.07764921 -0.29407109 9.07764921 -0.22705078 12.74462891 C-0.22734283 13.43742447 -0.22763489 14.13022003 -0.22793579 14.8440094 C-0.22654031 17.13832034 -0.21096919 19.43230816 -0.1953125 21.7265625 C-0.19158314 23.31553978 -0.1887358 24.90451936 -0.18673706 26.49349976 C-0.17909453 30.67914154 -0.15944081 34.8646449 -0.1373291 39.05023193 C-0.11688396 43.31992724 -0.1077382 47.58964487 -0.09765625 51.859375 C-0.07619543 60.23964691 -0.04205211 68.61980625 0 77 C0.66 77.33 1.32 77.66 2 78 C0.515 78.495 0.515 78.495 -1 79 C-1.33 79.99 -1.66 80.98 -2 82 C-2.04630033 71.7515107 -2.08185748 61.5030462 -2.10362434 51.25447369 C-2.1140703 46.49586485 -2.12824431 41.73732747 -2.15087891 36.97875977 C-2.17257834 32.38816944 -2.18456251 27.79764792 -2.18975449 23.20701027 C-2.19345546 21.45388518 -2.20068236 19.70076394 -2.21146011 17.94766808 C-2.22593655 15.49587176 -2.22797957 13.04436134 -2.22705078 10.5925293 C-2.23424133 9.86460678 -2.24143188 9.13668427 -2.24884033 8.38670349 C-2.233662 4.6941978 -2.10659383 3.15989075 0 0 Z " fill="#CEF2F2" transform="translate(278,377)"/>
<path d="M0 0 C1.98 0.495 1.98 0.495 4 1 C4.33 2.32 4.66 3.64 5 5 C4.01 5.495 4.01 5.495 3 6 C2.34 5.67 1.68 5.34 1 5 C1.16371094 5.88816406 1.32742188 6.77632813 1.49609375 7.69140625 C2.31302746 13.40994221 2.10509035 19.174698 2.0625 24.9375 C2.05798828 26.09830078 2.05347656 27.25910156 2.04882812 28.45507812 C2.03710647 31.30343934 2.0206976 34.15169222 2 37 C1.34 37 0.68 37 0 37 C-0.63655091 28.02008531 -1.10303291 19.06717754 -1.125 10.0625 C-1.13176758 8.90065186 -1.13176758 8.90065186 -1.13867188 7.71533203 C-1.12397792 2.24795584 -1.12397792 2.24795584 0 0 Z M1 2 C1.33 2.66 1.66 3.32 2 4 C2.33 3.34 2.66 2.68 3 2 C2.34 2 1.68 2 1 2 Z " fill="#65DBE7" transform="translate(295,353)"/>
<path d="M0 0 C0.33 0 0.66 0 1 0 C1 12.54 1 25.08 1 38 C-0.98 38.495 -0.98 38.495 -3 39 C-3.625 37.1875 -3.625 37.1875 -4 35 C-3.34 34.01 -2.68 33.02 -2 32 C-1.67 32.66 -1.34 33.32 -1 34 C-0.67 22.78 -0.34 11.56 0 0 Z " fill="#9FE9F2" transform="translate(266,420)"/>
<path d="M0 0 C0.66 0.33 1.32 0.66 2 1 C2 13.21 2 25.42 2 38 C0.68 38 -0.64 38 -2 38 C-1.67 37.01 -1.34 36.02 -1 35 C-0.34 35 0.32 35 1 35 C0.83628906 33.91332031 0.67257812 32.82664062 0.50390625 31.70703125 C-0.16324456 26.36629488 -0.10898413 21.06178041 -0.0625 15.6875 C-0.05798828 14.69943359 -0.05347656 13.71136719 -0.04882812 12.69335938 C-0.04015517 10.87327852 -0.02941706 9.05320539 -0.01586914 7.2331543 C-0.00347353 5.48880555 0 3.74439279 0 2 C0 1.34 0 0.68 0 0 Z " fill="#B5F0F5" transform="translate(533,410)"/>
<path d="M0 0 C3.0625 0.125 3.0625 0.125 5.0625 1.125 C5.0625 2.445 5.0625 3.765 5.0625 5.125 C4.4025 5.125 3.7425 5.125 3.0625 5.125 C3.0625 4.465 3.0625 3.805 3.0625 3.125 C1.7425 2.795 0.4225 2.465 -0.9375 2.125 C-1.2675 5.755 -1.5975 9.385 -1.9375 13.125 C-2.5975 12.795 -3.2575 12.465 -3.9375 12.125 C-3.96437279 10.31257948 -3.98383715 8.50004767 -4 6.6875 C-4.01160156 5.67816406 -4.02320313 4.66882813 -4.03515625 3.62890625 C-3.89372238 0.00254195 -3.67216809 0.15626247 0 0 Z " fill="#18CCDE" transform="translate(658.9375,406.875)"/>
<path d="M0 0 C0.66 0 1.32 0 2 0 C2 6.6 2 13.2 2 20 C0.68 20 -0.64 20 -2 20 C-2 14.06 -2 8.12 -2 2 C-1.34 2 -0.68 2 0 2 C0 1.34 0 0.68 0 0 Z M-1 4 C-1 8.29 -1 12.58 -1 17 C-0.01 17.495 -0.01 17.495 1 18 C1 13.38 1 8.76 1 4 C0.34 4 -0.32 4 -1 4 Z " fill="#F2FFFF" transform="translate(457,412)"/>
<path d="M0 0 C0.66 0 1.32 0 2 0 C2 11.55 2 23.1 2 35 C1.34 34.67 0.68 34.34 0 34 C-0.02712066 32.56260487 -0.04645067 31.12506137 -0.0625 29.6875 C-0.07410156 28.88699219 -0.08570313 28.08648437 -0.09765625 27.26171875 C0 25 0 25 1 22 C0.34 22 -0.32 22 -1 22 C-0.83701416 21.42926758 -0.67402832 20.85853516 -0.50610352 20.27050781 C0.00368519 17.98346733 0.11435968 16.01035544 0.09765625 13.671875 C0.09443359 12.87265625 0.09121094 12.0734375 0.08789062 11.25 C0.07951172 10.425 0.07113281 9.6 0.0625 8.75 C0.05573242 7.48929687 0.05573242 7.48929687 0.04882812 6.203125 C0.03707961 4.13538599 0.01914522 2.06768376 0 0 Z " fill="#65DBE8" transform="translate(284,426)"/>
<path d="M0 0 C3.5 0.3125 3.5 0.3125 7 1 C7.33 1.66 7.66 2.32 8 3 C6.88625 2.8453125 6.88625 2.8453125 5.75 2.6875 C2.74927133 2.7254586 2.74927133 2.7254586 0.6875 5.5 C0.130625 6.325 -0.42625 7.15 -1 8 C0.25541557 10.51083114 1.50063488 10.87125446 4 12 C2.25 12.75 2.25 12.75 0 13 C-2.25 11.1875 -2.25 11.1875 -4 9 C-4 8.34 -4 7.68 -4 7 C-3.34 7 -2.68 7 -2 7 C-1.855625 6.030625 -1.71125 5.06125 -1.5625 4.0625 C-1 1 -1 1 0 0 Z " fill="#6DDCE8" transform="translate(617,435)"/>
<path d="M0 0 C1.98 0.99 1.98 0.99 4 2 C4 2.99 4 3.98 4 5 C3.01 5 2.02 5 1 5 C1.14235457 6.72945653 1.28904382 8.45855654 1.4375 10.1875 C1.51871094 11.15042969 1.59992187 12.11335938 1.68359375 13.10546875 C1.97666151 15.78649602 2.42703754 18.3662986 3 21 C2.01 21.66 1.02 22.32 0 23 C0 15.41 0 7.82 0 0 Z " fill="#BAEEF5" transform="translate(544,424)"/>
<path d="M0 0 C0.33 0 0.66 0 1 0 C1 8.91 1 17.82 1 27 C0.01 26.67 -0.98 26.34 -2 26 C-2.125 18.375 -2.125 18.375 -1 15 C-0.95530204 12.62542065 -0.96099089 10.24967962 -1 7.875 C-1.03748646 5.58363995 -1.04687851 3.29118714 -1 1 C-0.67 0.67 -0.34 0.34 0 0 Z " fill="#47D4E3" transform="translate(342,407)"/>
<path d="M0 0 C-0.66 1.32 -1.32 2.64 -2 4 C-4.31 4 -6.62 4 -9 4 C-9 3.01 -9 2.02 -9 1 C-9.99 0.67 -10.98 0.34 -12 0 C-7.22144261 -2.04795317 -4.77855739 -2.04795317 0 0 Z " fill="#7EE2ED" transform="translate(664,403)"/>
<path d="M0 0 C1.27875 0.103125 2.5575 0.20625 3.875 0.3125 C4.95394531 0.39951172 4.95394531 0.39951172 6.0546875 0.48828125 C8 1 8 1 10 4 C8.68 5.32 7.36 6.64 6 8 C5.690625 7.0409375 5.690625 7.0409375 5.375 6.0625 C4.10461791 3.65074923 4.10461791 3.65074923 0.875 3.25 C-0.07375 3.1675 -1.0225 3.085 -2 3 C-1.34 2.01 -0.68 1.02 0 0 Z " fill="#FFFFFF" transform="translate(628,416)"/>
<path d="M0 0 C0.99 0.33 1.98 0.66 3 1 C3.042721 2.66611905 3.04063832 4.33382885 3 6 C2 7 2 7 -0.72265625 7.09765625 C-2.37587891 7.08025391 -2.37587891 7.08025391 -4.0625 7.0625 C-5.16722656 7.05347656 -6.27195312 7.04445313 -7.41015625 7.03515625 C-8.69212891 7.01775391 -8.69212891 7.01775391 -10 7 C-9.67 6.01 -9.34 5.02 -9 4 C-5.95613276 3.91773332 -3.92824652 4.02391783 -1 5 C-0.67 3.35 -0.34 1.7 0 0 Z " fill="#B6EEF3" transform="translate(601,433)"/>
<path d="M0 0 C2.64 0.33 5.28 0.66 8 1 C8.33 2.98 8.66 4.96 9 7 C7.35 7.33 5.7 7.66 4 8 C4 6.02 4 4.04 4 2 C2.35 2.33 0.7 2.66 -1 3 C-0.67 2.01 -0.34 1.02 0 0 Z " fill="#CDF3F7" transform="translate(628,432)"/>
<path d="M0 0 C3.3 0.33 6.6 0.66 10 1 C10 2.32 10 3.64 10 5 C8.741875 5.04125 7.48375 5.0825 6.1875 5.125 C5.47980469 5.14820313 4.77210938 5.17140625 4.04296875 5.1953125 C2 5 2 5 -1 3 C-0.67 2.01 -0.34 1.02 0 0 Z M3 2 C4 4 4 4 4 4 Z " fill="#F3FDFE" transform="translate(513,404)"/>
<path d="M0 0 C1.32 0.33 2.64 0.66 4 1 C1.67783003 5.51533049 -0.98560245 8.01055501 -5 11 C-5.66 11 -6.32 11 -7 11 C-7 9.35 -7 7.7 -7 6 C-4.69 5.34 -2.38 4.68 0 4 C0 2.68 0 1.36 0 0 Z " fill="#A8EAEF" transform="translate(551,404)"/>
<path d="M0 0 C2.97 0.495 2.97 0.495 6 1 C5.67 1.99 5.34 2.98 5 4 C4.01 4.33 3.02 4.66 2 5 C1.484375 5.515625 0.96875 6.03125 0.4375 6.5625 C-0.2740625 7.2740625 -0.2740625 7.2740625 -1 8 C-1.66 8 -2.32 8 -3 8 C-2.45276317 4.62537285 -1.9451 2.91765 0 0 Z M2 1 C2.33 1.66 2.66 2.32 3 3 C3.33 2.34 3.66 1.68 4 1 C3.34 1 2.68 1 2 1 Z " fill="#FDFDFF" transform="translate(267,371)"/>
<path d="M0 0 C0 0.66 0 1.32 0 2 C-2.25 4.1875 -2.25 4.1875 -5 6 C-7.3125 5.75 -7.3125 5.75 -9 5 C-9.33 3.68 -9.66 2.36 -10 1 C-6.59437148 0.22157062 -3.49234244 -0.09978121 0 0 Z " fill="#FFFFFF" transform="translate(310,371)"/>
<path d="M0 0 C2.64 0.33 5.28 0.66 8 1 C7.8125 2.875 7.8125 2.875 7 5 C4.4375 6.25 4.4375 6.25 2 7 C0.5393715 4.35261084 0 3.10551666 0 0 Z M4 2 C4 2.66 4 3.32 4 4 C4.66 3.67 5.32 3.34 6 3 C5.34 2.67 4.68 2.34 4 2 Z " fill="#FFFFFF" transform="translate(590,416)"/>
<path d="M0 0 C3.3 0.33 6.6 0.66 10 1 C10.33 1.99 10.66 2.98 11 4 C9.906875 3.979375 8.81375 3.95875 7.6875 3.9375 C4.05615809 3.81455548 4.05615809 3.81455548 1 5 C0.67 5.99 0.34 6.98 0 8 C-0.33 7.01 -0.66 6.02 -1 5 C-0.34 4.34 0.32 3.68 1 3 C0.67 2.01 0.34 1.02 0 0 Z " fill="#FFFFFF" transform="translate(340,396)"/>
<path d="M0 0 C0.66 1.32 1.32 2.64 2 4 C1.34 4.66 0.68 5.32 0 6 C-0.30599063 8.56916657 -0.51087087 11.04758384 -0.625 13.625 C-0.66367187 14.33140625 -0.70234375 15.0378125 -0.7421875 15.765625 C-0.83647724 17.50998524 -0.91932891 19.25495691 -1 21 C-1.33 21 -1.66 21 -2 21 C-2.05390357 18.06225537 -2.0936255 15.12549768 -2.125 12.1875 C-2.14175781 11.35412109 -2.15851563 10.52074219 -2.17578125 9.66210938 C-2.18222656 8.85966797 -2.18867188 8.05722656 -2.1953125 7.23046875 C-2.20578613 6.49207764 -2.21625977 5.75368652 -2.22705078 4.99291992 C-2 3 -2 3 0 0 Z " fill="#D8F8F8" transform="translate(278,377)"/>
<path d="M0 0 C2 2 2 2 2 4 C2.66 4.33 3.32 4.66 4 5 C2.9375 6.5 2.9375 6.5 1 8 C-2.6875 8.1875 -2.6875 8.1875 -6 8 C-5.0409375 7.6596875 -5.0409375 7.6596875 -4.0625 7.3125 C-1.73252567 6.15613334 -1.73252567 6.15613334 -1.3125 3.4375 C-1.1578125 2.2309375 -1.1578125 2.2309375 -1 1 C-0.67 0.67 -0.34 0.34 0 0 Z " fill="#FCFCFF" transform="translate(598,448)"/>
<path d="M0 0 C1.65 0.99 3.3 1.98 5 3 C4.67 4.32 4.34 5.64 4 7 C4.66 7 5.32 7 6 7 C6 7.99 6 8.98 6 10 C5.01 10 4.02 10 3 10 C1.5783681 6.6828589 0.60990891 3.55780196 0 0 Z " fill="#B1EDF3" transform="translate(641,410)"/>
<path d="M0 0 C0.66 0.66 1.32 1.32 2 2 C1.625 4.625 1.625 4.625 1 7 C-0.65 7.33 -2.3 7.66 -4 8 C-3.67 6.68 -3.34 5.36 -3 4 C-2.34 4 -1.68 4 -1 4 C-0.67 2.68 -0.34 1.36 0 0 Z " fill="#FFFFFF" transform="translate(645,440)"/>
<path d="M0 0 C0.33 0.66 0.66 1.32 1 2 C1.66 2 2.32 2 3 2 C2.67 3.65 2.34 5.3 2 7 C0.02 7.33 -1.96 7.66 -4 8 C-3.01 7.67 -2.02 7.34 -1 7 C-0.67 4.69 -0.34 2.38 0 0 Z M1 3 C2 5 2 5 2 5 Z " fill="#F2FDFD" transform="translate(385,428)"/>
<path d="M0 0 C2.97 0 5.94 0 9 0 C9 1.32 9 2.64 9 4 C3.375 4.25 3.375 4.25 0 2 C0 1.34 0 0.68 0 0 Z " fill="#FFFFFF" transform="translate(654,425)"/>
<path d="M0 0 C2 1 4 2 6 3 C5.67 3.99 5.34 4.98 5 6 C2.69 5.67 0.38 5.34 -2 5 C-2 4.01 -2 3.02 -2 2 C-1.34 2 -0.68 2 0 2 C0 1.34 0 0.68 0 0 Z " fill="#FBFFFF" transform="translate(641,418)"/>
<path d="M0 0 C0.66 0 1.32 0 2 0 C2 3.63 2 7.26 2 11 C-1 8 -1 8 -1.25 4.375 C-1 1 -1 1 0 0 Z " fill="#FBFDFF" transform="translate(653,408)"/>
<path d="M0 0 C2.31 0.33 4.62 0.66 7 1 C7 2.32 7 3.64 7 5 C6.34 5 5.68 5 5 5 C5 4.34 5 3.68 5 3 C3.68 2.67 2.36 2.34 1 2 C0.67 2.66 0.34 3.32 0 4 C0 2.68 0 1.36 0 0 Z " fill="#27D2E1" transform="translate(657,407)"/>
<path d="M0 0 C1.32 0.66 2.64 1.32 4 2 C4 2.66 4 3.32 4 4 C4.66 4.33 5.32 4.66 6 5 C5.34 5.66 4.68 6.32 4 7 C2.35 5.68 0.7 4.36 -1 3 C-0.67 2.01 -0.34 1.02 0 0 Z " fill="#FFFFFF" transform="translate(487,432)"/>
<path d="M0 0 C0 2.31 0 4.62 0 7 C-0.99 7.33 -1.98 7.66 -3 8 C-3.33 5.69 -3.66 3.38 -4 1 C-1 0 -1 0 0 0 Z " fill="#FFFFFF" transform="translate(477,415)"/>
<path d="M0 0 C1.65 0 3.3 0 5 0 C5.33 0.66 5.66 1.32 6 2 C4.68 3.32 3.36 4.64 2 6 C0 3 0 3 0 0 Z " fill="#FFFFFF" transform="translate(237,397)"/>
<path d="M0 0 C1.65 0 3.3 0 5 0 C4.67 0.66 4.34 1.32 4 2 C4.33 2.66 4.66 3.32 5 4 C4.67 4.66 4.34 5.32 4 6 C2.68 5.34 1.36 4.68 0 4 C0 2.68 0 1.36 0 0 Z " fill="#F5FFFF" transform="translate(576,410)"/>
<path d="M0 0 C2.4375 0.6875 2.4375 0.6875 5 2 C5.75 4.5 5.75 4.5 6 7 C6.33 7.66 6.66 8.32 7 9 C5.109375 8.75390625 5.109375 8.75390625 3 8 C1.953125 6.15234375 1.953125 6.15234375 1.25 3.9375 C1.00765625 3.20402344 0.7653125 2.47054688 0.515625 1.71484375 C0.34546875 1.14894531 0.1753125 0.58304687 0 0 Z " fill="#A8E8ED" transform="translate(607,403)"/>
<path d="M0 0 C0.66 0.66 1.32 1.32 2 2 C2.99 2.66 3.98 3.32 5 4 C4.67 4.66 4.34 5.32 4 6 C2.68 6 1.36 6 0 6 C-0.66 5.34 -1.32 4.68 -2 4 C-1.34 2.68 -0.68 1.36 0 0 Z " fill="#FFFFFF" transform="translate(578,460)"/>
<path d="M0 0 C0 0.66 0 1.32 0 2 C1.32 1.67 2.64 1.34 4 1 C2.875 2.5 2.875 2.5 1 4 C-2.1875 4.1875 -2.1875 4.1875 -5 4 C-5 3.34 -5 2.68 -5 2 C-2 0 -2 0 0 0 Z " fill="#FFFFFF" transform="translate(475,444)"/>
<path d="M0 0 C1.98 0 3.96 0 6 0 C6 0.66 6 1.32 6 2 C6.99 1.67 7.98 1.34 9 1 C8.67 1.99 8.34 2.98 8 4 C5.33333333 3.33333333 2.66666667 2.66666667 0 2 C0 1.34 0 0.68 0 0 Z " fill="#E5F5FB" transform="translate(343,437)"/>
<path d="M0 0 C0.66 0 1.32 0 2 0 C2 0.66 2 1.32 2 2 C2.66 2 3.32 2 4 2 C4 3.32 4 4.64 4 6 C2.68 5.67 1.36 5.34 0 5 C0 3.35 0 1.7 0 0 Z " fill="#20CCDC" transform="translate(660,413)"/>
<path d="M0 0 C3 1 3 1 4 3 C6.01669827 4.13350534 6.01669827 4.13350534 8 5 C6.25 5.75 6.25 5.75 4 6 C1.75 4.1875 1.75 4.1875 0 2 C0 1.34 0 0.68 0 0 Z " fill="#FFFFFF" transform="translate(613,442)"/>
<path d="M0 0 C0.99 0.33 1.98 0.66 3 1 C3 2.65 3 4.3 3 6 C1.68 6.33 0.36 6.66 -1 7 C-0.67 4.69 -0.34 2.38 0 0 Z " fill="#F3FEFE" transform="translate(601,433)"/>
<path d="M0 0 C0.33 0.99 0.66 1.98 1 3 C1.66 3 2.32 3 3 3 C3 4.98 3 6.96 3 9 C2.01 8.67 1.02 8.34 0 8 C0 5.36 0 2.72 0 0 Z " fill="#B9EFF4" transform="translate(340,425)"/>
<path d="M0 0 C0.99 0.33 1.98 0.66 3 1 C3.6875 3.0625 3.6875 3.0625 4 5 C2.35 5.33 0.7 5.66 -1 6 C-1.042721 4.33388095 -1.04063832 2.66617115 -1 1 C-0.67 0.67 -0.34 0.34 0 0 Z " fill="#F7FFFF" transform="translate(244,390)"/>
<path d="M0 0 C0.99 0.495 0.99 0.495 2 1 C1.67 4.3 1.34 7.6 1 11 C0.67 11 0.34 11 0 11 C0 7.37 0 3.74 0 0 Z " fill="#FFFFFF" transform="translate(411,428)"/>
<path d="M0 0 C0.66 0.33 1.32 0.66 2 1 C1.01 2.485 1.01 2.485 0 4 C-1.32 3.67 -2.64 3.34 -4 3 C-2 1 -2 1 0 0 Z " fill="#FFFFFF" transform="translate(261,444)"/>
<path d="M0 0 C1.485 0.99 1.485 0.99 3 2 C2.34 3.32 1.68 4.64 1 6 C0.34 4.35 -0.32 2.7 -1 1 C-0.67 0.67 -0.34 0.34 0 0 Z " fill="#FFFFFF" transform="translate(577,429)"/>
<path d="M0 0 C0.33 0.99 0.66 1.98 1 3 C0.01 3.99 -0.98 4.98 -2 6 C-2.33 4.35 -2.66 2.7 -3 1 C-2.01 0.67 -1.02 0.34 0 0 Z " fill="#FFFFFF" transform="translate(243,403)"/>
<path d="M0 0 C0.33 0.66 0.66 1.32 1 2 C1.66 2.33 2.32 2.66 3 3 C1.35 3.33 -0.3 3.66 -2 4 C-2 3.01 -2 2.02 -2 1 C-1.34 0.67 -0.68 0.34 0 0 Z " fill="#FFFFFF" transform="translate(395,415)"/>
<path d="M0 0 C0.99 0.33 1.98 0.66 3 1 C2.67 1.66 2.34 2.32 2 3 C0.68 2.67 -0.64 2.34 -2 2 C-1.34 1.34 -0.68 0.68 0 0 Z " fill="#FFFFFF" transform="translate(600,464)"/>
<path d="M0 0 C1.32 0.33 2.64 0.66 4 1 C3.67 1.66 3.34 2.32 3 3 C2.01 2.67 1.02 2.34 0 2 C0 1.34 0 0.68 0 0 Z " fill="#FFFFFF" transform="translate(628,436)"/>
<path d="M0 0 C2.475 0.495 2.475 0.495 5 1 C3.02 1.99 3.02 1.99 1 3 C0.67 2.01 0.34 1.02 0 0 Z " fill="#FFFFFF" transform="translate(392,409)"/>
<path d="M0 0 C0.66 0.33 1.32 0.66 2 1 C1.34 2.32 0.68 3.64 0 5 C-0.33 4.01 -0.66 3.02 -1 2 C-0.67 1.34 -0.34 0.68 0 0 Z " fill="#FFFFFF" transform="translate(321,392)"/>
<path d="M0 0 C0.99 0.99 1.98 1.98 3 3 C1.68 2.67 0.36 2.34 -1 2 C-0.67 1.34 -0.34 0.68 0 0 Z " fill="#FFFFFF" transform="translate(604,464)"/>
<path d="M0 0 C0.99 0.495 0.99 0.495 2 1 C1.67 2.32 1.34 3.64 1 5 C0.67 3.35 0.34 1.7 0 0 Z " fill="#FFFFFF" transform="translate(317,453)"/>
<path d="M0 0 C0.66 0.33 1.32 0.66 2 1 C1.67 1.99 1.34 2.98 1 4 C0.34 3.34 -0.32 2.68 -1 2 C-0.67 1.34 -0.34 0.68 0 0 Z " fill="#FFFFFF" transform="translate(341,438)"/>
<path d="M0 0 C0.33 0 0.66 0 1 0 C1 2.31 1 4.62 1 7 C0.67 7 0.34 7 0 7 C0 4.69 0 2.38 0 0 Z " fill="#FFFFFF" transform="translate(264,422)"/>
<path d="M0 0 C0.33 0.99 0.66 1.98 1 3 C0.34 3.99 -0.32 4.98 -1 6 C-0.67 4.02 -0.34 2.04 0 0 Z " fill="#FFFFFF" transform="translate(318,397)"/>
<path d="M0 0 C0.33 0 0.66 0 1 0 C1 2.31 1 4.62 1 7 C0.67 7 0.34 7 0 7 C0 4.69 0 2.38 0 0 Z " fill="#FFFFFF" transform="translate(263,384)"/>
<path d="M0 0 C0.33 0 0.66 0 1 0 C1 1.98 1 3.96 1 6 C0.67 6 0.34 6 0 6 C0 4.02 0 2.04 0 0 Z " fill="#FFFFFF" transform="translate(280,442)"/>
<path d="M0 0 C0.33 0 0.66 0 1 0 C1 1.98 1 3.96 1 6 C0.67 6 0.34 6 0 6 C0 4.02 0 2.04 0 0 Z " fill="#FFFFFF" transform="translate(263,429)"/>
<path d="M0 0 C0.33 0 0.66 0 1 0 C1 1.98 1 3.96 1 6 C0.67 6 0.34 6 0 6 C0 4.02 0 2.04 0 0 Z " fill="#FFFFFF" transform="translate(445,423)"/>
<path d="M0 0 C0.33 0 0.66 0 1 0 C1 1.98 1 3.96 1 6 C0.67 6 0.34 6 0 6 C0 4.02 0 2.04 0 0 Z " fill="#FFFFFF" transform="translate(278,423)"/>
<path d="M0 0 C0.33 0 0.66 0 1 0 C1 1.98 1 3.96 1 6 C0.67 6 0.34 6 0 6 C0 4.02 0 2.04 0 0 Z " fill="#FFFFFF" transform="translate(261,416)"/>
<path d="M0 0 C0.66 0 1.32 0 2 0 C1.67 1.32 1.34 2.64 1 4 C0.67 2.68 0.34 1.36 0 0 Z " fill="#FFFFFF" transform="translate(398,416)"/>
<path d="M0 0 C0.99 0.495 0.99 0.495 2 1 C1.67 2.32 1.34 3.64 1 5 C0.67 3.35 0.34 1.7 0 0 Z " fill="#FFFFFF" transform="translate(612,403)"/>
<path d="M0 0 C0.33 0 0.66 0 1 0 C1 1.65 1 3.3 1 5 C0.67 5 0.34 5 0 5 C0 3.35 0 1.7 0 0 Z " fill="#FFFFFF" transform="translate(299,448)"/>
<path d="M0 0 C0.33 0.66 0.66 1.32 1 2 C-0.32 1.67 -1.64 1.34 -3 1 C-2.01 0.67 -1.02 0.34 0 0 Z " fill="#FFFFFF" transform="translate(548,446)"/>
<path d="M0 0 C0.66 0.99 1.32 1.98 2 3 C1.01 2.67 0.02 2.34 -1 2 C-0.67 1.34 -0.34 0.68 0 0 Z " fill="#FFFFFF" transform="translate(321,445)"/>
<path d="M0 0 C0.33 0 0.66 0 1 0 C1 1.65 1 3.3 1 5 C0.67 5 0.34 5 0 5 C0 3.35 0 1.7 0 0 Z " fill="#FFFFFF" transform="translate(316,437)"/>
<path d="M0 0 C0.33 0 0.66 0 1 0 C1 1.65 1 3.3 1 5 C0.67 5 0.34 5 0 5 C0 3.35 0 1.7 0 0 Z " fill="#FFFFFF" transform="translate(472,429)"/>
<path d="M0 0 C0.33 0 0.66 0 1 0 C1 1.65 1 3.3 1 5 C0.67 5 0.34 5 0 5 C0 3.35 0 1.7 0 0 Z " fill="#FFFFFF" transform="translate(316,429)"/>
<path d="M0 0 C0.99 0.495 0.99 0.495 2 1 C2 1.66 2 2.32 2 3 C1.34 3 0.68 3 0 3 C0 2.01 0 1.02 0 0 Z " fill="#FFFFFF" transform="translate(507,429)"/>
<path d="M0 0 C0.99 0.33 1.98 0.66 3 1 C1.68 1.33 0.36 1.66 -1 2 C-0.67 1.34 -0.34 0.68 0 0 Z " fill="#FFFFFF" transform="translate(497,421)"/>
<path d="M0 0 C0.99 0 1.98 0 3 0 C3 0.66 3 1.32 3 2 C2.01 1.67 1.02 1.34 0 1 C0 0.67 0 0.34 0 0 Z " fill="#FFFFFF" transform="translate(492,420)"/>
<path d="M0 0 C0.33 0.99 0.66 1.98 1 3 C0.01 3.495 0.01 3.495 -1 4 C-0.67 2.68 -0.34 1.36 0 0 Z " fill="#FFFFFF" transform="translate(504,417)"/>
<path d="M0 0 C1.32 0.33 2.64 0.66 4 1 C3.01 1.495 3.01 1.495 2 2 C1.34 1.34 0.68 0.68 0 0 Z " fill="#FFFFFF" transform="translate(597,405)"/>
<path d="M0 0 C0.66 1.32 1.32 2.64 2 4 C1.34 4 0.68 4 0 4 C0 2.68 0 1.36 0 0 Z " fill="#FFFFFF" transform="translate(405,397)"/>
<path d="M0 0 C0.66 0.66 1.32 1.32 2 2 C1.34 2.66 0.68 3.32 0 4 C0 2.68 0 1.36 0 0 Z " fill="#FFFFFF" transform="translate(263,379)"/>
<path d="M0 0 C0.66 0.66 1.32 1.32 2 2 C1.01 1.67 0.02 1.34 -1 1 C-0.67 0.67 -0.34 0.34 0 0 Z " fill="#FFFFFF" transform="translate(283,481)"/>
<path d="M0 0 C1 4 1 4 1 4 Z " fill="#FFFFFF" transform="translate(282,459)"/>
<path d="M0 0 C0.66 0 1.32 0 2 0 C2 0.66 2 1.32 2 2 C1.34 2 0.68 2 0 2 C0 1.34 0 0.68 0 0 Z " fill="#FFFFFF" transform="translate(612,457)"/>
<path d="M0 0 C1 4 1 4 1 4 Z " fill="#FFFFFF" transform="translate(299,454)"/>
<path d="M0 0 C1 4 1 4 1 4 Z " fill="#FFFFFF" transform="translate(282,437)"/>
<path d="M0 0 C0.66 0 1.32 0 2 0 C1.67 0.99 1.34 1.98 1 3 C0.67 2.01 0.34 1.02 0 0 Z " fill="#FFFFFF" transform="translate(407,436)"/>
<path d="M0 0 C0.66 0.66 1.32 1.32 2 2 C1.01 1.67 0.02 1.34 -1 1 C-0.67 0.67 -0.34 0.34 0 0 Z " fill="#FFFFFF" transform="translate(510,432)"/>
<path d="M0 0 C0.99 0.33 1.98 0.66 3 1 C2.01 1 1.02 1 0 1 C0 0.67 0 0.34 0 0 Z " fill="#FFFFFF" transform="translate(484,433)"/>
<path d="M0 0 C1 4 1 4 1 4 Z " fill="#FFFFFF" transform="translate(299,422)"/>
<path d="M0 0 C0.33 0.99 0.66 1.98 1 3 C0.34 2.67 -0.32 2.34 -1 2 C-0.67 1.34 -0.34 0.68 0 0 Z " fill="#FFFFFF" transform="translate(504,421)"/>
<path d="M0 0 C0.99 0.33 1.98 0.66 3 1 C2.01 1 1.02 1 0 1 C0 0.67 0 0.34 0 0 Z " fill="#FFFFFF" transform="translate(396,421)"/>
<path d="M0 0 C1 4 1 4 1 4 Z " fill="#FFFFFF" transform="translate(471,418)"/>
<path d="M0 0 C0.99 0.33 1.98 0.66 3 1 C2.01 1 1.02 1 0 1 C0 0.67 0 0.34 0 0 Z " fill="#FFFFFF" transform="translate(477,410)"/>
<path d="M0 0 C0.99 0.495 0.99 0.495 2 1 C1.67 1.66 1.34 2.32 1 3 C0.67 2.01 0.34 1.02 0 0 Z " fill="#FFFFFF" transform="translate(455,409)"/>
<path d="M0 0 C0.66 0 1.32 0 2 0 C1.67 0.99 1.34 1.98 1 3 C0.67 2.01 0.34 1.02 0 0 Z " fill="#FFFFFF" transform="translate(542,405)"/>
<path d="M0 0 C4 1 4 1 4 1 Z " fill="#FFFFFF" transform="translate(558,404)"/>
<path d="M0 0 C1 4 1 4 1 4 Z " fill="#FFFFFF" transform="translate(318,386)"/>
<path d="M0 0 C0.66 0 1.32 0 2 0 C1.67 0.99 1.34 1.98 1 3 C0.67 2.01 0.34 1.02 0 0 Z " fill="#FFFFFF" transform="translate(301,379)"/>
<path d="M0 0 C0.99 1.485 0.99 1.485 2 3 C1.34 3 0.68 3 0 3 C0 2.01 0 1.02 0 0 Z " fill="#FFFFFF" transform="translate(282,355)"/>
<path d="" fill="#FFFFFF" transform="translate(0,0)"/>
<path d="M0 0 C0.33 0.66 0.66 1.32 1 2 C0.34 1.67 -0.32 1.34 -1 1 C-0.67 0.67 -0.34 0.34 0 0 Z " fill="#FFFFFF" transform="translate(596,465)"/>
<path d="M0 0 C0.66 0 1.32 0 2 0 C1.67 0.66 1.34 1.32 1 2 C0.67 1.34 0.34 0.68 0 0 Z " fill="#FFFFFF" transform="translate(605,463)"/>
<path d="" fill="#FFFFFF" transform="translate(0,0)"/>
<path d="M0 0 C0.66 0 1.32 0 2 0 C1.67 0.66 1.34 1.32 1 2 C0.67 1.34 0.34 0.68 0 0 Z " fill="#FFFFFF" transform="translate(279,456)"/>
<path d="M0 0 C0.33 0.66 0.66 1.32 1 2 C0.34 1.67 -0.32 1.34 -1 1 C-0.67 0.67 -0.34 0.34 0 0 Z " fill="#FFFFFF" transform="translate(282,454)"/>
<path d="" fill="#FFFFFF" transform="translate(0,0)"/>
<path d="" fill="#FFFFFF" transform="translate(0,0)"/>
<path d="" fill="#FFFFFF" transform="translate(0,0)"/>
<path d="M0 0 C0.66 0.66 1.32 1.32 2 2 C1.34 2 0.68 2 0 2 C0 1.34 0 0.68 0 0 Z " fill="#FFFFFF" transform="translate(450,436)"/>
<path d="" fill="#FFFFFF" transform="translate(0,0)"/>
<path d="M0 0 C0.33 0.66 0.66 1.32 1 2 C0.34 1.67 -0.32 1.34 -1 1 C-0.67 0.67 -0.34 0.34 0 0 Z " fill="#FFFFFF" transform="translate(510,429)"/>
<path d="M0 0 C0.99 0.495 0.99 0.495 2 1 C1.01 1.495 1.01 1.495 0 2 C0 1.34 0 0.68 0 0 Z " fill="#FFFFFF" transform="translate(549,427)"/>
<path d="" fill="#FFFFFF" transform="translate(0,0)"/>
<path d="M0 0 C0.99 0.495 0.99 0.495 2 1 C1.01 1.495 1.01 1.495 0 2 C0 1.34 0 0.68 0 0 Z " fill="#FFFFFF" transform="translate(474,424)"/>
<path d="M0 0 C3 1 3 1 3 1 Z " fill="#FFFFFF" transform="translate(549,421)"/>
<path d="M0 0 C0.66 0.66 1.32 1.32 2 2 C1.34 2 0.68 2 0 2 C0 1.34 0 0.68 0 0 Z " fill="#FFFFFF" transform="translate(474,413)"/>
<path d="" fill="#FFFFFF" transform="translate(0,0)"/>
<path d="M0 0 C0.33 0.66 0.66 1.32 1 2 C0.34 1.67 -0.32 1.34 -1 1 C-0.67 0.67 -0.34 0.34 0 0 Z " fill="#FFFFFF" transform="translate(645,410)"/>
<path d="M0 0 C0.66 0 1.32 0 2 0 C1.67 0.66 1.34 1.32 1 2 C0.67 1.34 0.34 0.68 0 0 Z " fill="#FFFFFF" transform="translate(474,410)"/>
<path d="M0 0 C3 1 3 1 3 1 Z " fill="#FFFFFF" transform="translate(538,406)"/>
<path d="M0 0 C3 1 3 1 3 1 Z " fill="#FFFFFF" transform="translate(436,405)"/>
<path d="M0 0 C0.66 0 1.32 0 2 0 C1.67 0.66 1.34 1.32 1 2 C0.67 1.34 0.34 0.68 0 0 Z " fill="#FFFFFF" transform="translate(446,404)"/>
<path d="M0 0 C3 1 3 1 3 1 Z " fill="#FFFFFF" transform="translate(655,400)"/>
<path d="" fill="#FFFFFF" transform="translate(0,0)"/>
<path d="M0 0 C0.99 0.495 0.99 0.495 2 1 C1.01 1.495 1.01 1.495 0 2 C0 1.34 0 0.68 0 0 Z " fill="#FFFFFF" transform="translate(279,382)"/>
<path d="" fill="#FFFFFF" transform="translate(0,0)"/>
<path d="M0 0 C0.33 0.66 0.66 1.32 1 2 C0.34 1.67 -0.32 1.34 -1 1 C-0.67 0.67 -0.34 0.34 0 0 Z " fill="#FFFFFF" transform="translate(313,373)"/>
<path d="M0 0 C0.99 0.495 0.99 0.495 2 1 C1.01 1.495 1.01 1.495 0 2 C0 1.34 0 0.68 0 0 Z " fill="#FFFFFF" transform="translate(263,373)"/>
<path d="" fill="#FFFFFF" transform="translate(0,0)"/>
<path d="" fill="#FFFFFF" transform="translate(0,0)"/>
<path d="" fill="#FFFFFF" transform="translate(0,0)"/>
<path d="M0 0 C2 1 2 1 2 1 Z " fill="#FFFFFF" transform="translate(277,459)"/>
<path d="M0 0 C2 1 2 1 2 1 Z " fill="#FFFFFF" transform="translate(316,458)"/>
<path d="" fill="#FFFFFF" transform="translate(0,0)"/>
<path d="" fill="#FFFFFF" transform="translate(0,0)"/>
<path d="M0 0 C2 1 2 1 2 1 Z " fill="#FFFFFF" transform="translate(590,454)"/>
<path d="" fill="#FFFFFF" transform="translate(0,0)"/>
<path d="" fill="#FFFFFF" transform="translate(0,0)"/>
<path d="" fill="#FFFFFF" transform="translate(0,0)"/>
<path d="" fill="#FFFFFF" transform="translate(0,0)"/>
<path d="" fill="#FFFFFF" transform="translate(0,0)"/>
<path d="M0 0 C2 1 2 1 2 1 Z " fill="#FFFFFF" transform="translate(245,447)"/>
<path d="" fill="#FFFFFF" transform="translate(0,0)"/>
<path d="" fill="#FFFFFF" transform="translate(0,0)"/>
<path d="M0 0 C2 1 2 1 2 1 Z " fill="#FFFFFF" transform="translate(385,440)"/>
<path d="M0 0 C2 1 2 1 2 1 Z " fill="#FFFFFF" transform="translate(229,440)"/>
<path d="" fill="#FFFFFF" transform="translate(0,0)"/>
<path d="" fill="#FFFFFF" transform="translate(0,0)"/>
<path d="" fill="#FFFFFF" transform="translate(0,0)"/>
<path d="" fill="#FFFFFF" transform="translate(0,0)"/>
<path d="" fill="#FFFFFF" transform="translate(0,0)"/>
<path d="" fill="#FFFFFF" transform="translate(0,0)"/>
<path d="" fill="#FFFFFF" transform="translate(0,0)"/>
<path d="" fill="#FFFFFF" transform="translate(0,0)"/>
<path d="" fill="#FFFFFF" transform="translate(0,0)"/>
<path d="M0 0 C2 1 2 1 2 1 Z " fill="#FFFFFF" transform="translate(240,433)"/>
<path d="M0 0 C2 1 2 1 2 1 Z " fill="#FFFFFF" transform="translate(621,432)"/>
<path d="" fill="#FFFFFF" transform="translate(0,0)"/>
<path d="" fill="#FFFFFF" transform="translate(0,0)"/>
<path d="" fill="#FFFFFF" transform="translate(0,0)"/>
<path d="" fill="#FFFFFF" transform="translate(0,0)"/>
<path d="" fill="#FFFFFF" transform="translate(0,0)"/>
<path d="" fill="#FFFFFF" transform="translate(0,0)"/>
<path d="" fill="#FFFFFF" transform="translate(0,0)"/>
<path d="" fill="#FFFFFF" transform="translate(0,0)"/>
<path d="" fill="#FFFFFF" transform="translate(0,0)"/>
<path d="M0 0 C2 1 2 1 2 1 Z " fill="#FFFFFF" transform="translate(594,423)"/>
<path d="M0 0 C2 1 2 1 2 1 Z " fill="#FFFFFF" transform="translate(498,423)"/>
<path d="" fill="#FFFFFF" transform="translate(0,0)"/>
<path d="" fill="#FFFFFF" transform="translate(0,0)"/>
<path d="M0 0 C2 1 2 1 2 1 Z " fill="#FFFFFF" transform="translate(553,420)"/>
<path d="M0 0 C2 1 2 1 2 1 Z " fill="#FFFFFF" transform="translate(551,419)"/>
<path d="" fill="#FFFFFF" transform="translate(0,0)"/>
<path d="M0 0 C2 1 2 1 2 1 Z " fill="#FFFFFF" transform="translate(568,412)"/>
<path d="" fill="#FFFFFF" transform="translate(0,0)"/>
<path d="" fill="#FFFFFF" transform="translate(0,0)"/>
<path d="" fill="#FFFFFF" transform="translate(0,0)"/>
<path d="" fill="#FFFFFF" transform="translate(0,0)"/>
<path d="" fill="#FFFFFF" transform="translate(0,0)"/>
<path d="" fill="#FFFFFF" transform="translate(0,0)"/>
<path d="" fill="#FFFFFF" transform="translate(0,0)"/>
<path d="M0 0 C2 1 2 1 2 1 Z " fill="#FFFFFF" transform="translate(586,406)"/>
<path d="M0 0 C2 1 2 1 2 1 Z " fill="#FFFFFF" transform="translate(535,406)"/>
<path d="" fill="#FFFFFF" transform="translate(0,0)"/>
<path d="M0 0 C2 1 2 1 2 1 Z " fill="#FFFFFF" transform="translate(443,406)"/>
<path d="" fill="#FFFFFF" transform="translate(0,0)"/>
<path d="" fill="#FFFFFF" transform="translate(0,0)"/>
<path d="" fill="#FFFFFF" transform="translate(0,0)"/>
<path d="" fill="#FFFFFF" transform="translate(0,0)"/>
<path d="M0 0 C2 1 2 1 2 1 Z " fill="#FFFFFF" transform="translate(637,404)"/>
<path d="M0 0 C2 1 2 1 2 1 Z " fill="#FFFFFF" transform="translate(628,404)"/>
<path d="M0 0 C2 1 2 1 2 1 Z " fill="#FFFFFF" transform="translate(595,404)"/>
<path d="M0 0 C2 1 2 1 2 1 Z " fill="#FFFFFF" transform="translate(534,404)"/>
<path d="M0 0 C2 1 2 1 2 1 Z " fill="#FFFFFF" transform="translate(635,403)"/>
<path d="M0 0 C2 1 2 1 2 1 Z " fill="#FFFFFF" transform="translate(626,403)"/>
<path d="M0 0 C2 1 2 1 2 1 Z " fill="#FFFFFF" transform="translate(622,403)"/>
<path d="M0 0 C2 1 2 1 2 1 Z " fill="#FFFFFF" transform="translate(554,403)"/>
<path d="M0 0 C2 1 2 1 2 1 Z " fill="#FFFFFF" transform="translate(539,403)"/>
<path d="M0 0 C2 1 2 1 2 1 Z " fill="#FFFFFF" transform="translate(439,403)"/>
<path d="" fill="#FFFFFF" transform="translate(0,0)"/>
<path d="" fill="#FFFFFF" transform="translate(0,0)"/>
<path d="M0 0 C2 1 2 1 2 1 Z " fill="#FFFFFF" transform="translate(662,400)"/>
<path d="" fill="#FFFFFF" transform="translate(0,0)"/>
<path d="" fill="#FFFFFF" transform="translate(0,0)"/>
<path d="" fill="#FFFFFF" transform="translate(0,0)"/>
<path d="" fill="#FFFFFF" transform="translate(0,0)"/>
<path d="M0 0 C2 1 2 1 2 1 Z " fill="#FFFFFF" transform="translate(261,393)"/>
<path d="M0 0 C2 1 2 1 2 1 Z " fill="#FFFFFF" transform="translate(257,391)"/>
<path d="M0 0 C2 1 2 1 2 1 Z " fill="#FFFFFF" transform="translate(317,383)"/>
<path d="" fill="#FFFFFF" transform="translate(0,0)"/>
<path d="" fill="#FFFFFF" transform="translate(0,0)"/>
<path d="" fill="#FFFFFF" transform="translate(0,0)"/>
<path d="" fill="#FFFFFF" transform="translate(0,0)"/>
<path d="M0 0 C2 1 2 1 2 1 Z " fill="#FFFFFF" transform="translate(280,378)"/>
<path d="" fill="#FFFFFF" transform="translate(0,0)"/>
<path d="" fill="#FFFFFF" transform="translate(0,0)"/>
<path d="" fill="#FFFFFF" transform="translate(0,0)"/>
<path d="" fill="#FFFFFF" transform="translate(0,0)"/>
<path d="M0 0 C2 1 2 1 2 1 Z " fill="#FFFFFF" transform="translate(273,371)"/>
<path d="M0 0 C2 1 2 1 2 1 Z " fill="#FFFFFF" transform="translate(263,371)"/>
<path d="" fill="#FFFFFF" transform="translate(0,0)"/>
<path d="" fill="#FFFFFF" transform="translate(0,0)"/>
<path d="" fill="#FFFFFF" transform="translate(0,0)"/>
<path d="" fill="#FFFFFF" transform="translate(0,0)"/>
<path d="" fill="#FFFFFF" transform="translate(0,0)"/>
<path d="" fill="#FFFFFF" transform="translate(0,0)"/>
<path d="" fill="#FFFFFF" transform="translate(0,0)"/>
<path d="" fill="#FFFFFF" transform="translate(0,0)"/>
<path d="" fill="#FFFFFF" transform="translate(0,0)"/>
<path d="" fill="#FFFFFF" transform="translate(0,0)"/>
<path d="" fill="#FFFFFF" transform="translate(0,0)"/>
<path d="" fill="#FFFFFF" transform="translate(0,0)"/>
<path d="" fill="#FFFFFF" transform="translate(0,0)"/>
<path d="" fill="#FFFFFF" transform="translate(0,0)"/>
<path d="" fill="#FFFFFF" transform="translate(0,0)"/>
<path d="" fill="#FFFFFF" transform="translate(0,0)"/>
<path d="" fill="#FFFFFF" transform="translate(0,0)"/>
<path d="" fill="#FFFFFF" transform="translate(0,0)"/>
<path d="" fill="#FFFFFF" transform="translate(0,0)"/>
<path d="" fill="#FFFFFF" transform="translate(0,0)"/>
<path d="" fill="#FFFFFF" transform="translate(0,0)"/>
<path d="" fill="#FFFFFF" transform="translate(0,0)"/>
<path d="" fill="#FFFFFF" transform="translate(0,0)"/>
<path d="" fill="#FFFFFF" transform="translate(0,0)"/>
<path d="" fill="#FFFFFF" transform="translate(0,0)"/>
<path d="" fill="#FFFFFF" transform="translate(0,0)"/>
<path d="" fill="#FFFFFF" transform="translate(0,0)"/>
<path d="" fill="#FFFFFF" transform="translate(0,0)"/>
<path d="" fill="#FFFFFF" transform="translate(0,0)"/>
<path d="" fill="#FFFFFF" transform="translate(0,0)"/>
<path d="" fill="#FFFFFF" transform="translate(0,0)"/>
<path d="" fill="#FFFFFF" transform="translate(0,0)"/>
<path d="" fill="#FFFFFF" transform="translate(0,0)"/>
<path d="" fill="#FFFFFF" transform="translate(0,0)"/>
<path d="" fill="#FFFFFF" transform="translate(0,0)"/>
<path d="" fill="#FFFFFF" transform="translate(0,0)"/>
<path d="" fill="#FFFFFF" transform="translate(0,0)"/>
<path d="" fill="#FFFFFF" transform="translate(0,0)"/>
<path d="" fill="#FFFFFF" transform="translate(0,0)"/>
<path d="" fill="#FFFFFF" transform="translate(0,0)"/>
<path d="" fill="#FFFFFF" transform="translate(0,0)"/>
<path d="" fill="#FFFFFF" transform="translate(0,0)"/>
<path d="" fill="#FFFFFF" transform="translate(0,0)"/>
<path d="" fill="#FFFFFF" transform="translate(0,0)"/>
<path d="" fill="#FFFFFF" transform="translate(0,0)"/>
<path d="" fill="#FFFFFF" transform="translate(0,0)"/>
<path d="" fill="#FFFFFF" transform="translate(0,0)"/>
<path d="" fill="#FFFFFF" transform="translate(0,0)"/>
<path d="" fill="#FFFFFF" transform="translate(0,0)"/>
<path d="" fill="#FFFFFF" transform="translate(0,0)"/>
<path d="" fill="#FFFFFF" transform="translate(0,0)"/>
<path d="" fill="#FFFFFF" transform="translate(0,0)"/>
<path d="" fill="#FFFFFF" transform="translate(0,0)"/>
<path d="" fill="#FFFFFF" transform="translate(0,0)"/>
<path d="" fill="#FFFFFF" transform="translate(0,0)"/>
<path d="" fill="#FFFFFF" transform="translate(0,0)"/>
<path d="" fill="#FFFFFF" transform="translate(0,0)"/>
<path d="" fill="#FFFFFF" transform="translate(0,0)"/>
<path d="" fill="#FFFFFF" transform="translate(0,0)"/>
<path d="" fill="#FFFFFF" transform="translate(0,0)"/>
<path d="" fill="#FFFFFF" transform="translate(0,0)"/>
<path d="" fill="#FFFFFF" transform="translate(0,0)"/>
<path d="" fill="#FFFFFF" transform="translate(0,0)"/>
<path d="" fill="#FFFFFF" transform="translate(0,0)"/>
<path d="" fill="#FFFFFF" transform="translate(0,0)"/>
<path d="" fill="#FFFFFF" transform="translate(0,0)"/>
<path d="" fill="#FFFFFF" transform="translate(0,0)"/>
<path d="" fill="#FFFFFF" transform="translate(0,0)"/>
<path d="" fill="#FFFFFF" transform="translate(0,0)"/>
<path d="" fill="#FFFFFF" transform="translate(0,0)"/>
<path d="" fill="#FFFFFF" transform="translate(0,0)"/>
<path d="" fill="#FFFFFF" transform="translate(0,0)"/>
<path d="" fill="#FFFFFF" transform="translate(0,0)"/>
<path d="" fill="#FFFFFF" transform="translate(0,0)"/>
<path d="" fill="#FFFFFF" transform="translate(0,0)"/>
<path d="" fill="#FFFFFF" transform="translate(0,0)"/>
<path d="" fill="#FFFFFF" transform="translate(0,0)"/>
<path d="" fill="#FFFFFF" transform="translate(0,0)"/>
<path d="" fill="#FFFFFF" transform="translate(0,0)"/>
<path d="" fill="#FFFFFF" transform="translate(0,0)"/>
<path d="" fill="#FFFFFF" transform="translate(0,0)"/>
<path d="" fill="#FFFFFF" transform="translate(0,0)"/>
<path d="" fill="#FFFFFF" transform="translate(0,0)"/>
<path d="" fill="#FFFFFF" transform="translate(0,0)"/>
<path d="" fill="#FFFFFF" transform="translate(0,0)"/>
<path d="" fill="#FFFFFF" transform="translate(0,0)"/>
<path d="" fill="#FFFFFF" transform="translate(0,0)"/>
<path d="" fill="#FFFFFF" transform="translate(0,0)"/>
<path d="" fill="#FFFFFF" transform="translate(0,0)"/>
<path d="" fill="#FFFFFF" transform="translate(0,0)"/>
<path d="" fill="#FFFFFF" transform="translate(0,0)"/>
<path d="" fill="#FFFFFF" transform="translate(0,0)"/>
<path d="" fill="#FFFFFF" transform="translate(0,0)"/>
<path d="" fill="#FFFFFF" transform="translate(0,0)"/>
<path d="" fill="#FFFFFF" transform="translate(0,0)"/>
<path d="" fill="#FFFFFF" transform="translate(0,0)"/>
<path d="" fill="#FFFFFF" transform="translate(0,0)"/>
<path d="" fill="#FFFFFF" transform="translate(0,0)"/>
<path d="" fill="#FFFFFF" transform="translate(0,0)"/>
<path d="" fill="#FFFFFF" transform="translate(0,0)"/>
<path d="" fill="#FFFFFF" transform="translate(0,0)"/>
<path d="" fill="#FFFFFF" transform="translate(0,0)"/>
<path d="" fill="#FFFFFF" transform="translate(0,0)"/>
<path d="" fill="#FFFFFF" transform="translate(0,0)"/>
<path d="" fill="#FFFFFF" transform="translate(0,0)"/>
<path d="" fill="#FFFFFF" transform="translate(0,0)"/>
<path d="" fill="#FFFFFF" transform="translate(0,0)"/>
<path d="" fill="#FFFFFF" transform="translate(0,0)"/>
<path d="" fill="#FFFFFF" transform="translate(0,0)"/>
<path d="" fill="#FFFFFF" transform="translate(0,0)"/>
<path d="" fill="#FFFFFF" transform="translate(0,0)"/>
<path d="" fill="#FFFFFF" transform="translate(0,0)"/>
<path d="" fill="#FFFFFF" transform="translate(0,0)"/>
<path d="" fill="#FFFFFF" transform="translate(0,0)"/>
<path d="" fill="#FFFFFF" transform="translate(0,0)"/>
<path d="" fill="#FFFFFF" transform="translate(0,0)"/>
<path d="" fill="#FFFFFF" transform="translate(0,0)"/>
<path d="" fill="#FFFFFF" transform="translate(0,0)"/>
<path d="" fill="#FFFFFF" transform="translate(0,0)"/>
<path d="" fill="#FFFFFF" transform="translate(0,0)"/>
<path d="" fill="#FFFFFF" transform="translate(0,0)"/>
<path d="" fill="#FFFFFF" transform="translate(0,0)"/>
<path d="" fill="#FFFFFF" transform="translate(0,0)"/>
<path d="" fill="#FFFFFF" transform="translate(0,0)"/>
<path d="" fill="#FFFFFF" transform="translate(0,0)"/>
<path d="" fill="#FFFFFF" transform="translate(0,0)"/>
<path d="" fill="#FFFFFF" transform="translate(0,0)"/>
<path d="" fill="#FFFFFF" transform="translate(0,0)"/>
<path d="" fill="#FFFFFF" transform="translate(0,0)"/>
<path d="" fill="#FFFFFF" transform="translate(0,0)"/>
<path d="" fill="#FFFFFF" transform="translate(0,0)"/>
<path d="" fill="#FFFFFF" transform="translate(0,0)"/>
<path d="" fill="#FFFFFF" transform="translate(0,0)"/>
<path d="" fill="#FFFFFF" transform="translate(0,0)"/>
<path d="" fill="#FFFFFF" transform="translate(0,0)"/>
<path d="" fill="#FFFFFF" transform="translate(0,0)"/>
<path d="" fill="#FFFFFF" transform="translate(0,0)"/>
<path d="" fill="#FFFFFF" transform="translate(0,0)"/>
<path d="" fill="#FFFFFF" transform="translate(0,0)"/>
<path d="" fill="#FFFFFF" transform="translate(0,0)"/>
<path d="" fill="#FFFFFF" transform="translate(0,0)"/>
<path d="" fill="#FFFFFF" transform="translate(0,0)"/>
<path d="" fill="#FFFFFF" transform="translate(0,0)"/>
<path d="" fill="#FFFFFF" transform="translate(0,0)"/>
<path d="" fill="#FFFFFF" transform="translate(0,0)"/>
<path d="" fill="#FFFFFF" transform="translate(0,0)"/>
<path d="" fill="#FFFFFF" transform="translate(0,0)"/>
<path d="" fill="#FFFFFF" transform="translate(0,0)"/>
<path d="" fill="#FFFFFF" transform="translate(0,0)"/>
<path d="" fill="#FFFFFF" transform="translate(0,0)"/>
<path d="" fill="#FFFFFF" transform="translate(0,0)"/>
<path d="" fill="#FFFFFF" transform="translate(0,0)"/>
<path d="" fill="#FFFFFF" transform="translate(0,0)"/>
<path d="" fill="#FFFFFF" transform="translate(0,0)"/>
<path d="" fill="#FFFFFF" transform="translate(0,0)"/>
<path d="" fill="#FFFFFF" transform="translate(0,0)"/>
<path d="" fill="#FFFFFF" transform="translate(0,0)"/>
<path d="" fill="#FFFFFF" transform="translate(0,0)"/>
<path d="" fill="#FFFFFF" transform="translate(0,0)"/>
<path d="" fill="#FFFFFF" transform="translate(0,0)"/>
<path d="" fill="#FFFFFF" transform="translate(0,0)"/>
<path d="" fill="#FFFFFF" transform="translate(0,0)"/>
<path d="" fill="#FFFFFF" transform="translate(0,0)"/>
<path d="" fill="#FFFFFF" transform="translate(0,0)"/>
<path d="" fill="#FFFFFF" transform="translate(0,0)"/>
<path d="" fill="#FFFFFF" transform="translate(0,0)"/>
<path d="" fill="#FFFFFF" transform="translate(0,0)"/>
<path d="" fill="#FFFFFF" transform="translate(0,0)"/>
<path d="" fill="#FFFFFF" transform="translate(0,0)"/>
<path d="" fill="#FFFFFF" transform="translate(0,0)"/>
<path d="" fill="#FFFFFF" transform="translate(0,0)"/>
<path d="" fill="#FFFFFF" transform="translate(0,0)"/>
<path d="" fill="#FFFFFF" transform="translate(0,0)"/>
<path d="" fill="#FFFFFF" transform="translate(0,0)"/>
<path d="" fill="#FFFFFF" transform="translate(0,0)"/>
<path d="" fill="#FFFFFF" transform="translate(0,0)"/>
<path d="" fill="#FFFFFF" transform="translate(0,0)"/>
<path d="" fill="#FFFFFF" transform="translate(0,0)"/>
<path d="" fill="#FFFFFF" transform="translate(0,0)"/>
<path d="" fill="#FFFFFF" transform="translate(0,0)"/>
<path d="" fill="#FFFFFF" transform="translate(0,0)"/>
<path d="" fill="#FFFFFF" transform="translate(0,0)"/>
<path d="" fill="#FFFFFF" transform="translate(0,0)"/>
<path d="" fill="#FFFFFF" transform="translate(0,0)"/>
<path d="" fill="#FFFFFF" transform="translate(0,0)"/>
<path d="" fill="#FFFFFF" transform="translate(0,0)"/>
<path d="" fill="#FFFFFF" transform="translate(0,0)"/>
<path d="" fill="#FFFFFF" transform="translate(0,0)"/>
<path d="" fill="#FFFFFF" transform="translate(0,0)"/>
<path d="" fill="#FFFFFF" transform="translate(0,0)"/>
<path d="" fill="#FFFFFF" transform="translate(0,0)"/>
<path d="" fill="#FFFFFF" transform="translate(0,0)"/>
<path d="" fill="#FFFFFF" transform="translate(0,0)"/>
<path d="" fill="#FFFFFF" transform="translate(0,0)"/>
<path d="" fill="#FFFFFF" transform="translate(0,0)"/>
<path d="" fill="#FFFFFF" transform="translate(0,0)"/>
<path d="" fill="#FFFFFF" transform="translate(0,0)"/>
<path d="" fill="#FFFFFF" transform="translate(0,0)"/>
<path d="" fill="#FFFFFF" transform="translate(0,0)"/>
<path d="" fill="#FFFFFF" transform="translate(0,0)"/>
<path d="" fill="#FFFFFF" transform="translate(0,0)"/>
<path d="" fill="#FFFFFF" transform="translate(0,0)"/>
<path d="" fill="#FFFFFF" transform="translate(0,0)"/>
<path d="" fill="#FFFFFF" transform="translate(0,0)"/>
<path d="" fill="#FFFFFF" transform="translate(0,0)"/>
<path d="" fill="#FFFFFF" transform="translate(0,0)"/>
<path d="" fill="#FFFFFF" transform="translate(0,0)"/>
<path d="" fill="#FFFFFF" transform="translate(0,0)"/>
<path d="" fill="#FFFFFF" transform="translate(0,0)"/>
<path d="" fill="#FFFFFF" transform="translate(0,0)"/>
<path d="" fill="#FFFFFF" transform="translate(0,0)"/>
<path d="" fill="#FFFFFF" transform="translate(0,0)"/>
<path d="" fill="#FFFFFF" transform="translate(0,0)"/>
<path d="" fill="#FFFFFF" transform="translate(0,0)"/>
<path d="" fill="#FFFFFF" transform="translate(0,0)"/>
<path d="" fill="#FFFFFF" transform="translate(0,0)"/>
<path d="" fill="#FFFFFF" transform="translate(0,0)"/>
<path d="" fill="#FFFFFF" transform="translate(0,0)"/>
</svg>
