<svg width="377" height="231" viewBox="0 0 377 231" fill="none" xmlns="http://www.w3.org/2000/svg">
<path fill-rule="evenodd" clip-rule="evenodd" d="M9.52981 0.997386C10.9274 15.0509 14.2692 33.4762 29.192 48.23C34.0841 53.0668 40.2169 57.5051 47.9263 61.2652C51.6371 64.6575 56.0033 67.8291 61.148 70.6775L61.2529 70.7822L61.2959 70.8251L61.4195 70.9476C64.3276 73.8227 67.674 76.5571 71.5294 79.0919C72.4602 80.1531 73.444 81.1992 74.4841 82.2275C75.1472 82.8831 75.833 83.5313 76.5425 84.1715C78.4593 96.9418 82.8392 111.85 95.3201 124.189C110.248 138.948 136.727 149.997 184.303 149.385C214.574 148.996 237.153 144.411 255.136 138.469C270.061 133.538 281.819 127.672 292.157 122.514L292.163 122.511L292.176 122.505L292.18 122.503C294.286 121.452 296.334 120.431 298.337 119.453C310.186 113.668 320.481 109.406 332.36 109.442C344.245 109.479 357.764 113.818 376.022 125.351L376.417 124.895C358.124 113.34 344.502 108.94 332.455 108.903C320.404 108.866 309.978 113.197 298.116 118.988C296.097 119.973 294.037 121.001 291.919 122.058C281.582 127.214 269.878 133.053 255.009 137.966C237.099 143.884 214.593 148.458 184.388 148.846C136.919 149.457 110.6 138.434 95.7933 123.795C83.6604 111.799 79.2321 97.3521 77.2605 84.8096C77.5931 85.1007 77.9308 85.3901 78.2735 85.6776C78.643 86.1916 79.0231 86.7032 79.4141 87.2119C82.1826 96.4947 86.9233 106.069 95.4068 114.456C110.335 129.215 136.813 140.264 184.39 139.652C214.661 139.263 237.239 134.678 255.223 128.736C270.148 123.805 281.905 117.939 292.244 112.781C294.358 111.726 296.413 110.701 298.423 109.72C310.272 103.935 320.567 99.6729 332.447 99.7092C344.332 99.7456 357.85 104.085 376.108 115.618L376.503 115.162C358.21 103.606 344.589 99.2069 332.542 99.17C320.491 99.1332 310.065 103.464 298.202 109.255C296.186 110.239 294.127 111.266 292.012 112.322L292.006 112.325C281.669 117.481 269.965 123.32 255.095 128.233C237.186 134.151 214.679 138.725 184.474 139.113C137.005 139.724 110.687 128.7 95.88 114.062C87.9327 106.204 83.2911 97.2952 80.4803 88.5584C80.54 88.6317 80.5999 88.7048 80.6601 88.7779C83.3991 94.1006 87.038 99.3119 91.9128 104.131C106.841 118.89 133.319 129.939 180.896 129.328C211.167 128.939 233.745 124.353 251.729 118.411C266.654 113.48 278.411 107.614 288.75 102.457C290.864 101.402 292.919 100.377 294.929 99.395C306.778 93.6104 317.073 89.3482 328.953 89.3846C340.838 89.4209 354.356 93.7606 372.615 105.293L373.009 104.837C354.716 93.2818 341.095 88.8823 329.048 88.8454C316.997 88.8085 306.571 93.1389 294.708 98.9302C292.692 99.9147 290.633 100.942 288.518 101.997L288.512 102C278.175 107.157 266.471 112.995 251.601 117.908C233.692 123.826 211.185 128.4 180.98 128.789C133.511 129.399 107.193 118.376 92.386 103.737C88.3103 99.7073 85.104 95.4012 82.5682 90.9835C83.2888 91.7767 84.04 92.5609 84.8229 93.335C99.7507 108.094 126.23 119.143 173.806 118.531C204.077 118.142 226.656 113.557 244.639 107.615C259.564 102.684 271.322 96.8179 281.66 91.6602L281.663 91.6587C283.776 90.6044 285.83 89.5797 287.84 88.5987C299.689 82.8141 309.983 78.5518 321.863 78.5882C333.748 78.6246 347.267 82.9642 365.525 94.4971L365.92 94.0405C347.627 82.4854 334.005 78.0859 321.958 78.049C309.907 78.0121 299.481 82.3426 287.618 88.1338C285.62 89.1096 283.58 90.127 281.484 91.1725L281.472 91.1786L281.466 91.1814L281.444 91.1927L281.44 91.1946L281.425 91.2022L281.422 91.2036C271.085 96.3602 259.381 102.199 244.512 107.112C226.602 113.029 204.096 117.604 173.891 117.992C126.422 118.602 100.103 107.579 85.2961 92.9405C83.817 91.4781 82.4524 89.9792 81.1927 88.4519C81.0648 88.2028 80.9388 87.9535 80.8148 87.7039C96.5476 99.6275 121.99 107.957 163.467 107.424C193.738 107.035 216.317 102.449 234.3 96.5074C249.225 91.5761 260.983 85.7103 271.321 80.5527C273.435 79.4979 275.49 78.4727 277.501 77.4912C289.35 71.7065 299.645 67.4443 311.524 67.4807C323.409 67.5171 336.928 71.8567 355.186 83.3896L355.581 82.933C337.288 71.3779 323.666 66.9784 311.619 66.9415C299.568 66.9046 289.142 71.2351 277.28 77.0263C275.261 78.0117 273.201 79.0396 271.083 80.0961C260.746 85.2527 249.042 91.0914 234.173 96.0044C216.263 101.922 193.757 106.496 163.552 106.885C121.259 107.428 95.7547 98.7374 80.2237 86.482C79.8808 85.7537 79.5539 85.0239 79.2422 84.2933C79.1662 84.0014 79.092 83.7099 79.0196 83.419C94.8898 91.4583 117.646 96.565 150.403 96.1439C180.674 95.7548 203.252 91.1694 221.236 85.2275C236.161 80.2961 247.918 74.4304 258.256 69.2728C260.371 68.218 262.426 67.1928 264.436 66.2112C276.285 60.4266 286.58 56.1644 298.46 56.2008C310.344 56.2371 323.863 60.5768 342.121 72.1096L342.516 71.653C324.223 60.098 310.601 55.6984 298.555 55.6616C286.504 55.6247 276.078 59.9551 264.215 65.7464C262.197 66.7318 260.136 67.7597 258.018 68.8162C247.682 73.9728 235.978 79.8115 221.108 84.7245C203.198 90.642 180.692 95.2165 150.487 95.6048C117.432 96.0297 94.6331 90.8137 78.8352 82.6638C78.4395 81.0102 78.0991 79.3733 77.8036 77.7617C92.3241 82.4119 111.025 85.1004 135.151 84.7903C165.423 84.4011 188.001 79.8157 205.984 73.8738C220.909 68.9425 232.667 63.0768 243.005 57.9191C245.119 56.8643 247.174 55.8391 249.185 54.8576C261.034 49.073 271.329 44.8107 283.209 44.8471C295.093 44.8835 308.612 49.2231 326.87 60.756L327.265 60.2994C308.972 48.7444 295.35 44.3448 283.304 44.3079C271.252 44.271 260.826 48.6015 248.964 54.3928C246.945 55.3782 244.885 56.406 242.767 57.4625C232.43 62.6191 220.726 68.4579 205.857 73.3708C187.947 79.2884 165.441 83.8628 135.236 84.2511C110.946 84.5634 92.1942 81.8297 77.6888 77.1241C77.2774 74.7978 76.9575 72.5272 76.6969 70.3389C88.347 72.5013 102.049 73.6337 118.175 73.4263C148.446 73.0372 171.025 68.4518 189.008 62.5099C203.933 57.5785 215.691 51.7128 226.029 46.5552C228.143 45.5004 230.198 44.4752 232.209 43.4936C244.058 37.709 254.352 33.4468 266.232 33.4832C278.117 33.5195 291.636 37.8592 309.894 49.3921L310.289 48.9354C291.996 37.3804 278.374 32.9809 266.327 32.944C254.276 32.9071 243.85 37.2375 231.987 43.0288C229.969 44.0142 227.909 45.0421 225.791 46.0986C215.454 51.2552 203.75 57.0939 188.881 62.0069C170.971 67.9244 148.465 72.4989 118.26 72.8872C102.042 73.0957 88.2935 71.9463 76.629 69.7589C76.525 68.8554 76.4308 67.9666 76.344 67.0944L75.7446 67.2235C75.8234 68.0155 75.9083 68.8214 76.0011 69.6397C75.5598 69.555 75.1215 69.4688 74.6861 69.3811C73.7828 64.9584 73.2406 60.6966 72.85 56.7697L72.2506 56.8988C72.6329 60.7428 73.1606 64.9139 74.0311 69.2475C72.7323 68.9796 71.4604 68.6985 70.2149 68.4045C67.56 60.5261 66.4343 52.751 65.7602 45.9733L65.1608 46.1024C65.8249 52.7803 66.928 60.4454 69.504 68.2346C67.5576 67.7638 65.6763 67.2615 63.8577 66.7295C58.1926 55.7887 56.3647 44.3505 55.4214 34.8658L54.822 34.9949C55.7519 44.3458 57.5426 55.6324 63.0329 66.4849C60.6987 65.7833 58.4697 65.0322 56.3408 64.2358C46.1903 50.8896 43.5572 35.656 42.3568 23.5859L41.7574 23.715C42.9375 35.5816 45.5038 50.5652 55.258 63.8235C52.8187 62.8782 50.5142 61.8725 48.3366 60.8126C47.7554 60.2801 47.1905 59.7422 46.6414 59.1994C31.8298 44.5556 28.5004 26.258 27.1055 12.2322L26.506 12.3613C27.9037 26.4148 31.2454 44.8402 46.1682 59.594L46.2458 59.6706C46.3092 59.733 46.3728 59.7954 46.4366 59.8577C39.6267 56.3241 34.124 52.2437 29.6652 47.8354C14.8536 33.1916 11.5241 14.894 10.1293 0.868293L9.52981 0.997386ZM76.9335 82.5914C77.512 83.4988 78.121 84.4002 78.7622 85.294L78.8996 85.4087C78.8187 85.1123 78.7398 84.8163 78.6627 84.5207C78.4312 83.9773 78.2079 83.4335 77.9927 82.8897C77.6226 82.6956 77.2564 82.5 76.894 82.3027C76.907 82.3988 76.9202 82.495 76.9335 82.5914ZM76.7973 81.5751C77.0845 81.7339 77.374 81.8917 77.666 82.0485C77.2216 80.8814 76.813 79.7146 76.4369 78.551C76.545 79.5411 76.6641 80.55 76.7973 81.5751ZM75.6676 77.0533C74.8999 76.7898 74.1444 76.5205 73.4009 76.2459C74.1958 77.893 75.0739 79.5316 76.045 81.1535L76.1336 81.2037C75.9546 79.7851 75.8021 78.3993 75.6676 77.0533ZM76.349 82.8314C76.081 82.4095 75.8195 81.9864 75.5643 81.5621C74.862 81.1619 74.1745 80.7556 73.5015 80.3434C73.974 80.8438 74.4592 81.3405 74.9573 81.833C75.4275 82.2978 75.9093 82.759 76.403 83.2164C76.3848 83.0878 76.3668 82.9595 76.349 82.8314ZM77.1402 77.5469C77.2991 78.4324 77.4714 79.3259 77.6588 80.2261C77.3263 79.2862 77.0162 78.3472 76.7266 77.4107C76.8641 77.4563 77.002 77.5017 77.1402 77.5469ZM76.0682 70.2208C76.3209 72.3754 76.6304 74.6128 77.0275 76.9072C76.8585 76.8512 76.69 76.7949 76.5222 76.7383C75.8408 74.4604 75.2787 72.199 74.8097 69.9761C75.2265 70.059 75.646 70.1406 76.0682 70.2208ZM74.1528 69.8438C72.8868 69.5858 71.6459 69.3153 70.4298 69.0327C71.178 71.1879 72.0427 73.3491 73.0458 75.4979C73.947 75.838 74.8662 76.1699 75.8038 76.4934C75.148 74.2517 74.606 72.0282 74.1528 69.8438ZM72.5614 75.9315C73.2848 77.4698 74.079 79.002 74.9523 80.5211C73.9303 79.9183 72.9412 79.3023 71.9837 78.674C70.724 77.2348 69.5621 75.7675 68.4899 74.2791C69.8047 74.8488 71.1614 75.4 72.5614 75.9315ZM69.7156 68.8647C70.4322 70.9679 71.2581 73.0785 72.2136 75.1795C70.704 74.5941 69.246 73.9855 67.8377 73.3552C66.4905 71.4077 65.2922 69.4268 64.2247 67.4274C65.996 67.9349 67.8256 68.4145 69.7156 68.8647ZM63.393 67.1859C61.1725 66.532 59.0451 65.8339 57.0068 65.095C58.3918 66.8483 59.9105 68.5667 61.577 70.2386C63.2197 71.1462 64.9425 72.0209 66.7496 72.8593C65.5033 70.9919 64.3897 69.0965 63.393 67.1859ZM67.3841 73.7911C65.9094 73.1285 64.4889 72.4421 63.1205 71.7336C65.2177 73.695 67.5322 75.5856 70.0881 77.3854C69.1263 76.2026 68.2264 75.0033 67.3841 73.7911ZM55.9069 64.689C57.0644 66.204 58.3186 67.6948 59.6782 69.1541C56.013 66.9904 52.7701 64.6569 49.8983 62.1962C51.8077 63.0687 53.809 63.9009 55.9069 64.689ZM92.0705 133.299C77.1477 118.546 73.8059 100.12 72.4083 86.0667L73.0078 85.9376C74.4026 99.9634 77.7321 118.261 92.5437 132.905C107.35 147.544 133.669 158.567 181.138 157.957C211.343 157.568 233.849 152.994 251.759 147.076C266.629 142.163 278.333 136.325 288.669 131.168L288.675 131.165C290.791 130.109 292.849 129.083 294.866 128.098C306.729 122.307 317.155 117.976 329.206 118.013C341.252 118.05 354.874 122.45 373.167 134.005L372.772 134.461C354.514 122.929 340.995 118.589 329.111 118.552C317.231 118.516 306.936 122.778 295.087 128.563C293.077 129.545 291.022 130.57 288.907 131.625C278.569 136.782 266.812 142.648 251.887 147.579C233.903 153.521 211.325 158.106 181.054 158.496C133.477 159.107 106.998 148.058 92.0705 133.299ZM66.6814 94.6212C68.079 108.675 71.4208 127.1 86.3436 141.854C101.271 156.613 127.75 167.662 175.327 167.05C205.598 166.661 228.176 162.076 246.16 156.134C261.085 151.202 272.842 145.337 283.18 140.179C285.295 139.124 287.35 138.099 289.36 137.117C301.209 131.333 311.504 127.071 323.384 127.107C335.268 127.143 348.787 131.483 367.045 143.016L367.44 142.559C349.147 131.004 335.525 126.605 323.479 126.568C311.428 126.531 301.002 130.861 289.139 136.653C287.122 137.637 285.064 138.664 282.948 139.719L282.942 139.722C272.606 144.879 260.902 150.718 246.032 155.631C228.122 161.548 205.616 166.123 175.411 166.511C127.942 167.121 101.623 156.098 86.8168 141.459C72.0052 126.815 68.6757 108.518 67.2809 94.4921L66.6814 94.6212ZM78.8818 149.985C63.959 135.231 60.6173 116.806 59.2196 102.752L59.8191 102.623C61.214 116.649 64.5434 134.946 79.355 149.59C94.1617 164.229 120.481 175.252 167.95 174.642C198.154 174.254 220.661 169.679 238.57 163.762C253.44 158.849 265.144 153.01 275.481 147.853L275.483 147.852C277.6 146.796 279.66 145.768 281.677 144.783C293.54 138.992 303.966 134.662 316.017 134.699C328.064 134.735 341.685 139.135 359.978 150.69L359.584 151.147C341.326 139.614 327.807 135.274 315.922 135.238C304.042 135.201 293.747 139.464 281.898 145.248C279.888 146.23 277.833 147.255 275.719 148.31C265.38 153.467 253.623 159.333 238.698 164.265C220.714 170.206 198.136 174.792 167.865 175.181C120.288 175.793 93.8096 164.743 78.8818 149.985ZM50.6982 110.609C52.0958 124.662 55.4376 143.088 70.3604 157.841C85.2881 172.6 111.767 183.649 159.344 183.038C189.615 182.649 212.193 178.063 230.177 172.121C245.102 167.19 256.859 161.324 267.197 156.167C269.311 155.112 271.366 154.087 273.377 153.105C285.226 147.32 295.521 143.058 307.401 143.095C319.285 143.131 332.804 147.471 351.062 159.003L351.457 158.547C333.164 146.992 319.542 142.592 307.496 142.555C295.445 142.518 285.018 146.849 273.156 152.64C271.137 153.626 269.077 154.653 266.959 155.71C256.623 160.867 244.919 166.705 230.049 171.618C212.139 177.536 189.633 182.11 159.428 182.499C111.959 183.109 85.6402 172.086 70.8336 157.447C56.022 142.803 52.6925 124.505 51.2976 110.48L50.6982 110.609ZM61.3267 165.561C46.4038 150.808 43.0621 132.382 41.6645 118.329L42.2639 118.2C43.6588 132.225 46.9882 150.523 61.7999 165.167C76.6065 179.806 102.925 190.829 150.394 190.219C180.599 189.83 203.106 185.256 221.015 179.338C235.885 174.425 247.589 168.587 257.925 163.43C260.043 162.373 262.104 161.346 264.122 160.36C275.985 154.569 286.411 150.238 298.462 150.275C310.508 150.312 324.13 154.712 342.423 166.267L342.028 166.723C323.77 155.191 310.251 150.851 298.367 150.815C286.487 150.778 276.192 155.04 264.343 160.825C262.333 161.807 260.278 162.832 258.163 163.887C247.825 169.044 236.068 174.91 221.143 179.841C203.159 185.783 180.581 190.369 150.31 190.758C102.733 191.369 76.2544 180.32 61.3267 165.561ZM32.5471 126.025C33.9448 140.078 37.2865 158.504 52.2093 173.257C67.1371 188.016 93.6159 199.065 141.192 198.454C171.464 198.064 194.042 193.479 212.025 187.537C226.95 182.606 238.708 176.74 249.046 171.582L249.048 171.582L249.057 171.577L249.057 171.577C251.168 170.524 253.219 169.501 255.226 168.521C267.075 162.736 277.37 158.474 289.25 158.51C301.134 158.547 314.653 162.886 332.911 174.419L333.306 173.963C315.013 162.408 301.391 158.008 289.345 157.971C277.294 157.934 266.867 162.265 255.005 168.056C252.986 169.041 250.926 170.069 248.808 171.126C238.471 176.282 226.767 182.121 211.898 187.034C193.988 192.952 171.482 197.526 141.277 197.914C93.808 198.525 67.4891 187.502 52.6825 172.863C37.8709 158.219 34.5415 139.921 33.1466 125.896L32.5471 126.025ZM43.3234 181.017C28.4005 166.264 25.0588 147.838 23.6612 133.785L24.2606 133.656C25.6555 147.681 28.9849 165.979 43.7965 180.623C58.6032 195.262 84.9221 206.285 132.391 205.674C162.596 205.286 185.102 200.712 203.012 194.794C217.881 189.881 229.585 184.042 239.922 178.886L239.927 178.884C242.043 177.828 244.102 176.801 246.119 175.816C257.981 170.025 268.408 165.694 280.459 165.731C292.505 165.768 306.127 170.168 324.42 181.723L324.025 182.179C305.767 170.646 292.248 166.307 280.364 166.27C268.484 166.234 258.189 170.496 246.34 176.281C244.333 177.261 242.282 178.284 240.172 179.337L240.171 179.337L240.162 179.342L240.16 179.342C229.822 184.5 218.065 190.366 203.14 195.297C185.156 201.239 162.578 205.824 132.307 206.214C84.7299 206.825 58.2511 195.776 43.3234 181.017ZM15.2457 141.669C16.6433 155.722 19.985 174.147 34.9078 188.901C49.8356 203.66 76.3144 214.709 123.891 214.098C154.162 213.708 176.74 209.123 194.724 203.181C209.649 198.25 221.406 192.384 231.745 187.226C233.859 186.172 235.914 185.146 237.924 184.165C249.773 178.38 260.068 174.118 271.948 174.154C283.833 174.191 297.352 178.53 315.61 190.063L316.004 189.607C297.711 178.052 284.09 173.652 272.043 173.615C259.992 173.578 249.566 177.909 237.703 183.7C235.685 184.685 233.624 185.713 231.507 186.77C221.17 191.926 209.466 197.765 194.597 202.678C176.687 208.596 154.18 213.17 123.976 213.558C76.5065 214.169 50.1877 203.146 35.381 188.507C20.5694 173.863 17.24 155.565 15.8451 141.54L15.2457 141.669ZM27.129 196.951C12.2062 182.197 8.86446 163.772 7.46683 149.718L8.06628 149.589C9.46115 163.615 12.7906 181.912 27.6022 196.556C42.4088 211.195 68.7277 222.218 116.197 221.608C146.402 221.22 168.908 216.645 186.818 210.728C201.687 205.815 213.391 199.976 223.728 194.819C225.846 193.763 227.906 192.735 229.925 191.75C241.787 185.958 252.213 181.628 264.264 181.665C276.311 181.702 289.933 186.101 308.226 197.656L307.831 198.113C289.573 186.58 276.054 182.24 264.169 182.204C252.289 182.168 241.995 186.43 230.146 192.214C228.135 193.196 226.08 194.221 223.966 195.276C213.628 200.434 201.87 206.299 186.945 211.231C168.962 217.172 146.383 221.758 116.112 222.147C68.5356 222.759 42.0568 211.709 27.129 196.951ZM0.440287 157.958C1.83792 172.012 5.17964 190.437 20.1025 205.191C35.0302 219.95 61.509 230.999 109.086 230.387C139.357 229.998 161.935 225.413 179.919 219.471C194.844 214.54 206.601 208.674 216.939 203.516C219.054 202.461 221.108 201.436 223.119 200.455C234.968 194.67 245.263 190.408 257.143 190.444C269.027 190.481 282.546 194.82 300.804 206.353L301.199 205.897C282.906 194.342 269.284 189.942 257.238 189.905C245.187 189.868 234.761 194.199 222.898 199.99C220.881 200.975 218.821 202.002 216.705 203.058L216.701 203.06C206.365 208.216 194.661 214.055 179.791 218.968C161.881 224.886 139.375 229.46 109.17 229.848C61.7012 230.459 35.3823 219.435 20.5756 204.797C5.76404 190.153 2.43461 171.855 1.03974 157.829L0.440287 157.958Z" fill="url(#paint0_radial_1_9)" fill-opacity="0.92"/>
<defs>
<radialGradient id="paint0_radial_1_9" cx="0" cy="0" r="1" gradientUnits="userSpaceOnUse" gradientTransform="translate(144.43 80.9121) rotate(5.21676) scale(153.262 52.213)">
<stop stop-color="#F1F1F1"/>
<stop offset="1" stop-color="#0E0E35" stop-opacity="0"/>
<stop offset="1" stop-color="#CDCDCD"/>
</radialGradient>
</defs>
</svg>
