<svg width="524" height="146" viewBox="0 0 524 146" fill="none" xmlns="http://www.w3.org/2000/svg">
<path fill-rule="evenodd" clip-rule="evenodd" d="M193.637 -373.113C181.207 -345.43 166.716 -308.528 169.66 -273.849C170.626 -262.478 173.466 -251.344 178.867 -240.853C179.877 -232.756 181.888 -224.804 185.153 -217.147C185.17 -216.933 185.187 -216.719 185.205 -216.504C185.78 -209.743 187.016 -203.066 189.06 -196.557C189.103 -194.117 189.223 -191.683 189.429 -189.26C189.561 -187.702 189.729 -186.148 189.933 -184.599C179.398 -159.163 169.641 -128.572 172.106 -99.5373C173.579 -82.1878 179.417 -65.3903 192.057 -50.5851C204.696 -35.782 224.12 -22.9891 252.736 -13.6186C319.389 8.2068 369.451 -7.91213 407.984 -20.3192C411.562 -21.4712 415.041 -22.5913 418.424 -23.646C438.354 -29.8589 454.903 -33.7772 469.001 -28.7337C483.075 -23.6986 494.798 -9.69014 504.949 20.2209L505.49 20.0373C495.322 -9.92184 483.521 -24.146 469.193 -29.2717C454.889 -34.3889 438.157 -30.3961 418.254 -24.1914C414.87 -23.1364 411.392 -22.0168 407.816 -20.8656L407.813 -20.8645C369.284 -8.4605 319.385 7.6043 252.914 -14.1615C224.37 -23.5084 205.045 -36.2522 192.492 -50.956C179.94 -65.6576 174.14 -82.3371 172.676 -99.5856C170.251 -128.144 179.71 -158.252 190.088 -183.477C190.207 -182.65 190.337 -181.825 190.478 -181.002C190.4 -179.843 190.339 -178.684 190.293 -177.526C184.272 -158.465 180.305 -138.018 181.98 -118.289C183.453 -100.94 189.29 -84.1423 201.93 -69.337C214.569 -54.534 233.993 -41.7411 262.61 -32.3705C329.262 -10.5451 379.324 -26.6641 417.857 -39.0711C421.435 -40.2232 424.914 -41.3432 428.297 -42.3979C448.227 -48.6108 464.776 -52.5292 478.874 -47.4857C492.949 -42.4506 504.671 -28.4421 514.822 1.46898L515.363 1.28537C505.196 -28.6738 493.394 -42.898 479.067 -48.0236C464.762 -53.1408 448.031 -49.148 428.127 -42.9433C424.742 -41.888 421.263 -40.768 417.686 -39.6164C379.157 -27.2124 329.258 -11.1476 262.787 -32.9135C234.243 -42.2603 214.919 -55.0042 202.365 -69.708C189.813 -84.4095 184.013 -101.089 182.549 -118.338C180.939 -137.301 184.568 -156.947 190.228 -175.393C190.217 -174.931 190.21 -174.469 190.205 -174.006C188.122 -162.594 187.221 -151.02 188.184 -139.682C189.657 -122.333 195.494 -105.536 208.135 -90.7303C220.773 -75.9272 240.197 -63.1343 268.814 -53.7638C335.466 -31.9384 385.528 -48.0573 424.062 -60.4644L424.063 -60.4648C427.641 -61.6168 431.119 -62.7366 434.502 -63.7912C454.431 -70.0041 470.98 -73.9224 485.078 -68.8789C499.153 -63.8438 510.875 -49.8353 521.027 -19.9243L521.568 -20.1079C511.4 -50.067 499.598 -64.2912 485.271 -69.4168C470.967 -74.5341 454.235 -70.5413 434.332 -64.3366C430.952 -63.2829 427.478 -62.1647 423.907 -61.015L423.894 -61.0108L423.89 -61.0097C385.362 -48.6057 335.462 -32.5409 268.992 -54.3067C240.447 -63.6536 221.123 -76.3974 208.569 -91.1012C196.017 -105.803 190.218 -122.482 188.753 -139.731C187.885 -149.959 188.541 -160.386 190.217 -170.716C190.26 -168.299 190.381 -165.889 190.584 -163.49C192.057 -146.14 197.895 -129.343 210.535 -114.538C223.174 -99.7345 242.598 -86.9416 271.214 -77.5711C337.867 -55.7457 387.929 -71.8646 426.462 -84.2717L426.464 -84.2721C430.041 -85.4241 433.519 -86.5439 436.902 -87.5985C456.832 -93.8114 473.381 -97.7297 487.479 -92.6862C501.553 -87.6511 513.276 -73.6426 523.427 -43.7316L523.968 -43.9152C513.8 -73.8743 501.999 -88.0985 487.671 -93.2241C473.367 -98.3414 456.635 -94.3486 436.732 -88.1439C433.352 -87.0902 429.878 -85.972 426.307 -84.8223L426.294 -84.8181L426.291 -84.817C387.762 -72.413 337.863 -56.3482 271.392 -78.114C242.848 -87.4609 223.523 -100.205 210.97 -114.908C198.418 -129.61 192.618 -146.29 191.154 -163.538C190.86 -166.991 190.741 -170.466 190.776 -173.953C190.946 -174.883 191.124 -175.812 191.309 -176.739C194.138 -163.87 199.809 -151.518 209.38 -140.308C222.018 -125.505 241.442 -112.712 270.059 -103.342C336.711 -81.5164 386.773 -97.6353 425.307 -110.042L425.308 -110.043C428.886 -111.195 432.364 -112.315 435.747 -113.369C455.676 -119.582 472.225 -123.5 486.323 -118.457C500.398 -113.422 512.12 -99.4133 522.272 -69.5022L522.813 -69.6858C512.645 -99.645 500.843 -113.869 486.516 -118.995C472.212 -124.112 455.48 -120.119 435.577 -113.915C432.197 -112.861 428.723 -111.743 425.152 -110.593L425.139 -110.589L425.135 -110.588C386.607 -98.1836 336.707 -82.1189 270.237 -103.885C241.692 -113.232 222.368 -125.975 209.814 -140.679C199.994 -152.181 194.307 -164.893 191.595 -178.142C191.922 -179.71 192.27 -181.274 192.636 -182.834C192.921 -183.671 193.209 -184.505 193.5 -185.336C196.481 -179.17 200.321 -173.216 205.156 -167.552C217.795 -152.749 237.219 -139.956 265.835 -130.586C332.488 -108.76 382.55 -124.879 421.083 -137.286L421.085 -137.287C424.662 -138.439 428.14 -139.559 431.523 -140.613C451.453 -146.826 468.002 -150.744 482.1 -145.701C496.174 -140.666 507.897 -126.657 518.048 -96.7463L518.589 -96.9299C508.421 -126.889 496.62 -141.113 482.292 -146.239C467.988 -151.356 451.257 -147.363 431.353 -141.159C427.973 -140.105 424.5 -138.987 420.928 -137.837L420.915 -137.833L420.912 -137.832C382.383 -125.428 332.484 -109.363 266.013 -131.129C237.469 -140.476 218.144 -153.219 205.591 -167.923C200.655 -173.704 196.763 -179.791 193.769 -186.098C195.039 -189.688 196.365 -193.215 197.721 -196.663C197.83 -196.532 197.94 -196.401 198.05 -196.271L198.145 -196.158L198.217 -196.074L198.334 -195.936L198.404 -195.853C211.043 -181.05 230.467 -168.257 259.084 -158.887C325.736 -137.061 375.798 -153.18 414.331 -165.587L414.333 -165.588C417.91 -166.74 421.388 -167.86 424.771 -168.914C444.701 -175.127 461.25 -179.046 475.348 -174.002C489.423 -168.967 501.145 -154.958 511.296 -125.047L511.837 -125.231C501.67 -155.19 489.868 -169.414 475.54 -174.54C461.236 -179.657 444.505 -175.664 424.601 -169.46C421.221 -168.406 417.748 -167.288 414.176 -166.138L414.163 -166.134L414.16 -166.133C375.631 -153.729 325.732 -137.664 259.261 -159.43C230.717 -168.777 211.393 -181.52 198.839 -196.224C198.542 -196.572 198.249 -196.92 197.96 -197.27C199.89 -202.151 201.879 -206.873 203.852 -211.393C215.574 -202.282 230.8 -194.312 250.29 -187.93C316.943 -166.105 367.004 -182.224 405.538 -194.631L405.539 -194.631C409.117 -195.783 412.595 -196.903 415.978 -197.957C435.908 -204.17 452.456 -208.089 466.555 -203.045C480.629 -198.01 492.351 -184.002 502.503 -154.091L503.044 -154.274C492.876 -184.233 481.075 -198.457 466.747 -203.583C452.443 -208.7 435.711 -204.707 415.808 -198.503C412.428 -197.449 408.954 -196.331 405.383 -195.181L405.37 -195.177L405.367 -195.176C366.838 -182.772 316.938 -166.707 250.468 -188.473C230.963 -194.86 215.764 -202.832 204.088 -211.933C204.889 -213.763 205.687 -215.56 206.477 -217.32L205.956 -217.554C205.185 -215.836 204.406 -214.083 203.623 -212.297C203.129 -212.687 202.641 -213.078 202.159 -213.472C205.538 -222.436 209.189 -230.933 212.682 -238.713L212.16 -238.947C208.691 -231.219 205.06 -222.772 201.693 -213.856C200.354 -214.963 199.066 -216.086 197.825 -217.223C202.583 -233.594 209.066 -249.122 215.082 -262.52L214.561 -262.754C208.579 -249.432 202.12 -233.974 197.356 -217.656C195.437 -219.441 193.635 -221.261 191.945 -223.114C196.189 -246.657 205.515 -269.556 213.927 -288.291L213.405 -288.525C205.047 -269.909 195.756 -247.123 191.462 -223.649C190.98 -224.186 190.508 -224.725 190.045 -225.267C188.422 -227.169 186.911 -229.104 185.508 -231.069C186.823 -261.133 199.003 -291.702 209.703 -315.535L209.182 -315.769C198.571 -292.135 186.456 -261.782 184.972 -231.829C182.88 -234.829 181.036 -237.898 179.422 -241.024C179.264 -242.297 179.132 -243.574 179.023 -244.854C176.092 -279.37 190.521 -316.149 202.951 -343.836L202.43 -344.07C190.001 -316.387 175.509 -279.485 178.454 -244.806C178.519 -244.038 178.592 -243.272 178.675 -242.507C173.764 -252.516 171.146 -263.095 170.229 -273.897C167.299 -308.414 181.727 -345.192 194.158 -372.879L193.637 -373.113ZM190.52 -184.522C190.567 -184.173 190.615 -183.825 190.665 -183.477C190.716 -184.074 190.771 -184.671 190.83 -185.268C190.727 -185.02 190.623 -184.771 190.52 -184.522ZM191.596 -187.095C191.772 -187.511 191.948 -187.925 192.123 -188.338C192.39 -187.725 192.664 -187.113 192.947 -186.504C192.65 -185.338 192.364 -184.168 192.088 -182.996C191.782 -182.097 191.48 -181.194 191.183 -180.288C191.138 -180.536 191.095 -180.784 191.052 -181.033C191.187 -183.053 191.37 -185.074 191.596 -187.095ZM192.433 -189.064C193.59 -191.771 194.749 -194.413 195.894 -196.98C194.922 -193.814 194.009 -190.611 193.173 -187.382C192.919 -187.941 192.673 -188.502 192.433 -189.064ZM196.051 -198.732C194.757 -195.849 193.441 -192.866 192.125 -189.796C192.074 -189.919 192.023 -190.042 191.973 -190.165C192.482 -193.982 193.139 -197.791 193.919 -201.578C194.604 -200.622 195.315 -199.673 196.051 -198.732ZM191.038 -187.242C190.817 -186.717 190.595 -186.19 190.375 -185.661C190.227 -186.873 190.102 -188.09 189.998 -189.309C189.847 -191.087 189.742 -192.872 189.681 -194.661C190.203 -193.127 190.771 -191.602 191.387 -190.089C191.261 -189.141 191.145 -188.191 191.038 -187.242ZM197.305 -197.167C196.232 -194.445 195.176 -191.673 194.152 -188.859C194.961 -191.88 195.834 -194.876 196.758 -197.841C196.939 -197.615 197.121 -197.391 197.305 -197.167ZM203.387 -211.756C201.433 -207.284 199.462 -202.609 197.546 -197.775C197.35 -198.015 197.156 -198.256 196.964 -198.498C198.508 -203.403 200.189 -208.218 201.947 -212.908C202.421 -212.522 202.901 -212.138 203.387 -211.756ZM190.86 -177.4L190.861 -177.426L190.873 -177.463L190.86 -177.4ZM201.48 -213.29C200.155 -214.382 198.878 -215.489 197.648 -216.611C196.297 -211.912 195.089 -207.145 194.078 -202.341C194.863 -201.231 195.681 -200.13 196.536 -199.04C198.071 -203.892 199.739 -208.654 201.48 -213.29ZM193.468 -202.214C192.706 -198.573 192.057 -194.909 191.543 -191.237C190.84 -193.027 190.203 -194.832 189.63 -196.65C189.57 -200.306 189.686 -203.978 189.956 -207.653C191.041 -205.818 192.211 -204.004 193.468 -202.214ZM197.178 -217.043C195.841 -212.413 194.641 -207.716 193.63 -202.981C192.337 -204.846 191.14 -206.738 190.034 -208.654C190.406 -213.244 191.016 -217.836 191.819 -222.406C193.496 -220.585 195.281 -218.796 197.178 -217.043ZM191.333 -222.938C190.746 -223.587 190.172 -224.24 189.611 -224.896C188.14 -226.619 186.761 -228.369 185.471 -230.143C185.315 -225.838 185.384 -221.545 185.715 -217.285C186.837 -214.663 188.106 -212.076 189.534 -209.531C189.925 -214.007 190.539 -218.484 191.333 -222.938ZM189.45 -208.522C188.128 -210.822 186.937 -213.156 185.868 -215.52C186.412 -209.795 187.441 -204.135 189.043 -198.593C189.045 -201.895 189.186 -205.208 189.45 -208.522ZM184.929 -230.897C184.76 -226.899 184.783 -222.909 185.027 -218.944C182.361 -225.578 180.618 -232.426 179.637 -239.394C181.198 -236.508 182.957 -233.673 184.929 -230.897ZM159.096 -83.3121C156.151 -117.992 170.643 -154.893 183.072 -182.577L183.593 -182.343C171.162 -154.655 156.734 -117.877 159.665 -83.3604C161.129 -66.1119 166.929 -49.4324 179.481 -34.7308C192.035 -20.0271 211.359 -7.28323 239.903 2.06364C306.374 23.8295 356.273 7.76468 394.802 -4.63932C398.379 -5.79091 401.858 -6.91093 405.243 -7.96621C425.147 -14.1709 441.878 -18.1637 456.182 -13.0465C470.51 -7.92085 482.311 6.30335 492.479 36.2625L491.938 36.4461C481.787 6.53503 470.065 -7.47347 455.99 -12.5086C441.892 -17.5521 425.343 -13.6337 405.413 -7.4208C402.03 -6.3661 398.551 -5.24608 394.973 -4.09402C356.44 8.31302 306.378 24.432 239.725 2.60657C211.109 -6.76396 191.685 -19.5568 179.046 -34.3599C166.406 -49.1652 160.569 -65.9626 159.096 -83.3121ZM167.671 -168.462C155.242 -140.779 140.75 -103.877 143.695 -69.1976C145.168 -51.8481 151.005 -35.0506 163.645 -20.2453C176.284 -5.4423 195.708 7.35059 224.325 16.7211C290.977 38.5465 341.039 22.4276 379.572 10.0205L379.574 10.0201C383.151 8.86814 386.629 7.74828 390.012 6.69375C409.942 0.480853 426.491 -3.43754 440.589 1.60598C454.664 6.64108 466.386 20.6496 476.537 50.5606L477.078 50.377C466.91 20.4179 455.109 6.1937 440.781 1.06806C426.477 -4.04917 409.746 -0.0563594 389.842 6.14832C386.462 7.20199 382.989 8.32021 379.417 9.46992L379.404 9.47413L379.401 9.47521C340.872 21.8792 290.973 37.944 224.502 16.1782C195.958 6.83132 176.634 -5.91251 164.08 -20.6163C151.528 -35.3179 145.728 -51.9974 144.264 -69.2459C141.333 -103.762 155.761 -140.541 168.192 -168.228L167.671 -168.462ZM126.655 -56.6266C123.71 -91.3061 138.202 -128.208 150.631 -155.891L151.153 -155.657C138.722 -127.97 124.293 -91.1915 127.224 -56.675C128.689 -39.4264 134.488 -22.747 147.04 -8.04539C159.594 6.6584 178.918 19.4022 207.463 28.7491C273.933 50.5149 323.833 34.4501 362.361 22.0461C365.938 20.8945 369.417 19.7745 372.803 18.7192C392.706 12.5145 409.438 8.52173 423.742 13.639C438.069 18.7646 449.871 32.9888 460.039 62.9479L459.498 63.1315C449.346 33.2205 437.624 19.212 423.549 14.1769C409.451 9.13338 392.902 13.0518 372.973 19.2646C369.589 20.3193 366.111 21.4394 362.533 22.5914C323.999 34.9985 273.937 51.1174 207.285 29.292C178.668 19.9215 159.244 7.1286 146.606 -7.67444C133.965 -22.4797 128.128 -39.2772 126.655 -56.6266ZM132.607 -144.293C120.178 -116.609 105.686 -79.7078 108.63 -45.0284C110.104 -27.6789 115.941 -10.8814 128.581 3.92382C141.22 18.7269 160.644 31.5197 189.26 40.8903C255.913 62.7157 305.975 46.5967 344.508 34.1897C348.086 33.0376 351.565 31.9176 354.948 30.8629C374.878 24.65 391.427 20.7316 405.525 25.7751C419.599 30.8102 431.322 44.8187 441.473 74.7298L442.014 74.5462C431.846 44.587 420.045 30.3628 405.717 25.2372C391.413 20.12 374.682 24.1128 354.778 30.3175C351.398 31.371 347.925 32.4892 344.354 33.6388L344.347 33.641L344.346 33.6415L344.34 33.6433L344.337 33.6444C305.808 46.0484 255.909 62.1131 189.438 40.3473C160.894 31.0005 141.569 18.2566 129.016 3.55286C116.464 -11.1487 110.664 -27.8282 109.2 -45.0767C106.269 -79.5932 120.697 -116.372 133.128 -144.059L132.607 -144.293ZM90.133 -33.9083C87.1884 -68.5878 101.68 -105.489 114.11 -133.173L114.631 -132.939C102.2 -105.252 87.7715 -68.4732 90.7022 -33.9567C92.1667 -16.7081 97.9662 -0.0286488 110.518 14.6729C123.072 29.3767 142.396 42.1205 170.941 51.4674C237.411 73.2332 287.311 57.1684 325.839 44.7644C329.416 43.6128 332.895 42.4928 336.281 41.4375C356.184 35.2328 372.916 31.24 387.22 36.3573C401.547 41.4829 413.349 55.7071 423.517 85.6662L422.976 85.8498C412.824 55.9388 401.102 41.9303 387.027 36.8952C372.929 31.8517 356.38 35.7701 336.451 41.983C333.067 43.0376 329.589 44.1577 326.011 45.3097C287.477 57.7168 237.415 73.8357 170.763 52.0103C142.146 42.6398 122.722 29.8469 110.084 15.0439C97.4432 0.238612 91.6061 -16.5589 90.133 -33.9083ZM95.5359 -122.134C83.1067 -94.4507 68.6148 -57.5492 71.5593 -22.8697C73.0324 -5.52027 78.8695 11.2772 91.51 26.0825C104.149 40.8855 123.573 53.6784 152.189 63.049C218.842 84.8744 268.904 68.7554 307.437 56.3483C311.015 55.1963 314.494 54.0763 317.877 53.0216C337.807 46.8087 354.356 42.8903 368.454 47.9338C382.528 52.9689 394.251 66.9774 404.402 96.8885L404.943 96.7048C394.775 66.7457 382.974 52.5215 368.646 47.3959C354.342 42.2787 337.61 46.2715 317.707 52.4762C314.322 53.5314 310.843 54.6515 307.266 55.803C268.737 68.207 218.838 84.2718 152.367 62.506C123.823 53.1592 104.498 40.4153 91.9445 25.7115C79.3926 11.01 73.5931 -5.66951 72.1286 -22.918C69.1979 -57.4346 83.6262 -94.213 96.0571 -121.9L95.5359 -122.134ZM53.197 -11.611C50.2524 -46.2905 64.7444 -83.192 77.1736 -110.876L77.6947 -110.642C65.2639 -82.9543 50.8355 -46.1758 53.7662 -11.6593C55.2308 5.58921 61.0302 22.2687 73.5821 36.9702C86.136 51.674 105.46 64.4179 134.005 73.7647C200.475 95.5305 250.375 79.4658 288.903 67.0618C292.48 65.9102 295.959 64.7901 299.345 63.7349C319.248 57.5302 335.98 53.5374 350.284 58.6546C364.611 63.7802 376.413 78.0044 386.581 107.964L386.04 108.147C375.888 78.2361 364.166 64.2276 350.091 59.1925C335.993 54.149 319.444 58.0674 299.515 64.2803C296.131 65.335 292.653 66.455 289.075 67.6071C250.541 80.0141 200.479 96.1331 133.827 74.3077C105.21 64.9371 85.7862 52.1442 73.1477 37.3412C60.5072 22.5359 54.6701 5.73845 53.197 -11.611ZM59.2458 -99.1806C46.8166 -71.4968 32.3246 -34.5953 35.2692 0.0841968C36.7423 17.4336 42.5794 34.2311 55.2199 49.0364C67.8584 63.8394 87.2824 76.6323 115.899 86.0029C182.552 107.828 232.613 91.7093 271.147 79.3023C274.725 78.1502 278.204 77.0302 281.587 75.9755C301.517 69.7626 318.066 65.8442 332.164 70.8877C346.238 75.9228 357.96 89.9313 368.112 119.842L368.653 119.659C358.485 89.6996 346.684 75.4754 332.356 70.3498C318.052 65.2326 301.32 69.2254 281.417 75.4301C278.035 76.4843 274.56 77.6032 270.986 78.7535L270.984 78.7541L270.979 78.7559L270.976 78.7569C232.447 91.161 182.547 107.226 116.077 85.4599C87.5325 76.1131 68.2082 63.3692 55.6543 48.6654C43.1024 33.9639 37.303 17.2844 35.8384 0.0358595C32.9077 -34.4807 47.3361 -71.2591 59.7669 -98.9466L59.2458 -99.1806ZM17.9343 12.3652C14.9898 -22.3143 29.4817 -59.2158 41.9109 -86.8996L42.4321 -86.6656C30.0012 -58.9781 15.5729 -22.1997 18.5036 12.3169C19.9681 29.5654 25.7676 46.2449 38.3195 60.9464C50.8733 75.6502 70.1976 88.394 98.7421 97.7409C165.213 119.507 215.112 103.442 253.641 91.038C257.218 89.8864 260.697 88.7663 264.082 87.7111C283.985 81.5064 300.717 77.5136 315.021 82.6308C329.349 87.7564 341.15 101.981 351.318 131.94L350.777 132.123C340.626 102.212 328.903 88.2038 314.829 83.1687C300.731 78.1252 284.182 82.0436 264.252 88.2565C260.869 89.3112 257.39 90.4312 253.812 91.5832C215.279 103.99 165.217 120.109 98.5643 98.2839C69.9476 88.9133 50.5236 76.1204 37.885 61.3174C25.2445 46.5121 19.4074 29.7146 17.9343 12.3652ZM25.2788 -73.9354C12.8496 -46.2517 -1.64229 -9.3501 1.30226 25.3294C2.77537 42.6788 8.61246 59.4763 21.2529 74.2816C33.8915 89.0846 53.3155 101.877 81.9322 111.248C148.585 133.073 198.647 116.954 237.18 104.547C240.758 103.395 244.237 102.275 247.62 101.221C267.55 95.0078 284.099 91.0894 298.197 96.1329C312.271 101.168 323.994 115.176 334.145 145.088L334.686 144.904C324.518 114.945 312.717 100.721 298.389 95.595C284.085 90.4777 267.353 94.4705 247.45 100.675C244.065 101.73 240.586 102.85 237.009 104.002L237.009 104.002C198.48 116.406 148.581 132.471 82.11 110.705C53.5656 101.358 34.2413 88.6144 21.6874 73.9106C9.13548 59.209 3.33606 42.5296 1.87152 25.281C-1.0592 -9.23549 13.3692 -46.014 25.8 -73.7014L25.2788 -73.9354Z" fill="url(#paint0_radial_102_338)"/>
<defs>
<radialGradient id="paint0_radial_102_338" cx="0" cy="0" r="1" gradientUnits="userSpaceOnUse" gradientTransform="translate(223.51 -37.2049) rotate(27.3787) scale(252.102 257.868)">
<stop/>
<stop offset="1" stop-color="#1E1E1E" stop-opacity="0"/>
<stop offset="1" stop-color="#0E0E35" stop-opacity="0"/>
<stop offset="1" stop-opacity="0"/>
</radialGradient>
</defs>
</svg>
